<svg width="130" height="14" viewBox="0 0 130 14" fill="none" xmlns="http://www.w3.org/2000/svg">
<path d="M24.6311 4.44802C24.6311 1.78597 22.8216 0.256001 19.667 0.256001H15.1576V12.9978H15.9249V8.73478H19.6575C20.0172 8.73834 20.3766 8.71459 20.7327 8.66372L23.7406 12.9836H24.6548L21.4622 8.53583C23.499 8.02426 24.6311 6.60324 24.6311 4.44802ZM19.6859 8.02426H15.9344V1.00441H19.6859C22.348 1.00441 23.8637 2.22649 23.8637 4.46697C23.8637 6.70745 22.348 8.02426 19.6859 8.02426ZM37.5719 7.80637C37.5719 10.6484 35.9472 12.2921 33.1762 12.2921C30.4052 12.2921 28.7852 10.6532 28.7852 7.80637V0.256001H28.0179V7.78269C28.0179 11.0984 29.9126 13.0168 33.1762 13.0168C36.4398 13.0168 38.3345 11.1221 38.3345 7.80637V0.256001H37.5719V7.80637ZM6.63144 0.966512C8.1133 0.959998 9.546 1.49768 10.6577 2.47753L11.1314 1.91386C9.88379 0.828684 8.28493 0.232899 6.63144 0.237054C5.77796 0.219458 4.92937 0.370185 4.13416 0.680625C3.33894 0.991065 2.61268 1.45514 1.99685 2.04633C1.38103 2.63751 0.887716 3.34424 0.54509 4.12613C0.202464 4.90802 0.0172404 5.74975 0 6.60324C0.0105063 7.45648 0.189063 8.29928 0.525465 9.08347C0.861866 9.86767 1.34952 10.5779 1.96054 11.1735C2.57157 11.7691 3.29399 12.2385 4.08651 12.5548C4.87903 12.8711 5.72611 13.0281 6.57934 13.0168C8.23743 13.007 9.83905 12.4133 11.1029 11.34V6.74534H10.4208V10.9753C9.33949 11.8232 8.00559 12.285 6.63144 12.2873C5.87282 12.3005 5.11907 12.1638 4.4134 11.885C3.70774 11.6062 3.06404 11.1909 2.51924 10.6628C1.97444 10.1347 1.53924 9.5043 1.23862 8.80767C0.937986 8.11103 0.777837 7.3619 0.767353 6.60324C0.799698 5.07886 1.43514 3.62949 2.53438 2.57287C3.63363 1.51625 5.10698 0.938584 6.63144 0.966512ZM123.056 10.2032V7.79216H129.157V5.12538H123.056V2.72858H129.815V0.061794H119.712V12.8747H130V10.2032H123.056ZM86.2372 0.061794L80.7426 12.851H84.1814L85.072 10.5868H90.6092L91.4855 12.851H95.0475L89.6761 0.061794H86.2372ZM86.0809 8.04795L87.8714 3.48172L89.624 8.04795H86.0809ZM112.772 0.0570572H109.419V12.87H118.187V10.0279H112.772V0.0570572ZM46.8938 0.256001H42.3986V12.9978H43.166V8.73478H46.8938C50.0295 8.73478 51.7963 7.16691 51.7963 4.43381C51.7868 1.78597 50.02 0.256001 46.8938 0.256001ZM46.8938 8.00058H43.166V1.00441H46.8654C49.5274 1.00441 51.0574 2.22649 51.0574 4.46697C51.0574 6.70745 49.5274 8.02426 46.8654 8.02426L46.8938 8.00058ZM69.5733 9.80054C69.3653 9.79164 69.1577 9.82637 68.9639 9.9025C68.7701 9.97864 68.5944 10.0945 68.4481 10.2426C68.3017 10.3907 68.188 10.5678 68.1142 10.7625C68.0405 10.9572 68.0082 11.1652 68.0197 11.3731C68.0197 11.7877 68.1844 12.1853 68.4775 12.4784C68.7706 12.7716 69.1682 12.9363 69.5828 12.9363C69.9974 12.9363 70.395 12.7716 70.6881 12.4784C70.9812 12.1853 71.1459 11.7877 71.1459 11.3731C71.1557 11.1616 71.1207 10.9504 71.0433 10.7533C70.9659 10.5561 70.8478 10.3775 70.6968 10.2291C70.5457 10.0807 70.365 9.96587 70.1665 9.89202C69.9681 9.81817 69.7562 9.787 69.5449 9.80054H69.5733ZM82.0973 0.061794H71.2028V2.81384H74.9353V12.87H78.2795V2.81384H82.1162L82.0973 0.061794ZM59.7541 0.237054C58.035 0.206629 56.3741 0.860177 55.1368 2.05399C53.8995 3.24781 53.1869 4.88416 53.1558 6.60324C53.2204 8.30995 53.9439 9.92521 55.1743 11.1098C56.4046 12.2944 58.0461 12.9562 59.7541 12.9562C61.462 12.9562 63.1035 12.2944 64.3338 11.1098C65.5642 9.92521 66.2877 8.30995 66.3523 6.60324C66.3375 5.75185 66.1551 4.91172 65.8154 4.13088C65.4757 3.35005 64.9855 2.64382 64.3727 2.05258C63.7599 1.46134 63.0365 0.996673 62.244 0.685152C61.4515 0.373632 60.6054 0.221364 59.7541 0.237054ZM59.7541 12.2684C58.233 12.2848 56.7673 11.6979 55.678 10.6362C54.5887 9.57438 53.9645 8.12424 53.9421 6.60324C53.9853 5.08991 54.6168 3.65304 55.7025 2.5979C56.7882 1.54276 58.2425 0.952488 59.7564 0.952488C61.2704 0.952488 62.7247 1.54276 63.8104 2.5979C64.896 3.65304 65.5276 5.08991 65.5708 6.60324C65.5621 7.35841 65.4048 8.10448 65.1078 8.79884C64.8108 9.4932 64.3799 10.1223 63.8397 10.6501C63.2996 11.1779 62.6608 11.5942 61.9597 11.8751C61.2587 12.156 60.5092 12.2961 59.7541 12.2873V12.2684ZM102.082 2.81384C103.344 2.86188 104.546 3.36687 105.464 4.23487L107.358 1.89491C105.879 0.668892 104.017 -0.00133592 102.096 0.000216276C98.0506 -0.0282042 95.0333 2.74753 95.0333 6.47535C95.0333 10.2032 97.9749 13.0168 101.883 13.0168C103.778 12.9715 105.624 12.4027 107.216 11.3731V6.32851H104.332V9.56371C103.648 9.92507 102.892 10.1305 102.12 10.1653C101.634 10.1738 101.153 10.0839 100.703 9.90096C100.254 9.71805 99.846 9.44594 99.5046 9.10107C99.1633 8.7562 98.8954 8.34572 98.7172 7.89442C98.5389 7.44313 98.454 6.96038 98.4675 6.47535C98.4547 5.99503 98.539 5.51707 98.7155 5.07017C98.892 4.62327 99.157 4.21663 99.4945 3.87467C99.8321 3.5327 100.235 3.26247 100.68 3.08017C101.124 2.89788 101.601 2.80729 102.082 2.81384Z" fill="#353535"/>
</svg>
