<svg width="35" height="13" viewBox="0 0 35 13" fill="none" xmlns="http://www.w3.org/2000/svg">
<path d="M17.2296 3.81418C17.2468 3.82674 17.2655 3.83732 17.2851 3.84573C17.3256 3.86011 17.3685 3.86612 17.4113 3.8634C17.4935 3.8634 17.5722 3.83086 17.6304 3.77291C17.6886 3.71495 17.7215 3.6363 17.7218 3.55418C17.7183 3.49527 17.6996 3.43827 17.6675 3.38873C17.6354 3.33919 17.5911 3.29879 17.5388 3.27146L17.5287 3.26515C15.9637 2.17466 14.7671 2.10777 13.6161 2.0434C12.5357 1.98155 11.5146 1.92476 10.1692 1.02612C9.14307 0.344563 7.81026 0 6.20103 0C4.91089 0.0128773 3.62869 0.203573 2.39064 0.566699L2.32375 0.588155C2.31705 0.589568 2.31064 0.59213 2.30482 0.595728C2.23648 0.620748 2.1791 0.668978 2.1427 0.731996C2.1063 0.795015 2.0932 0.868816 2.10567 0.940514C2.11815 1.01221 2.15541 1.07725 2.21096 1.12427C2.2665 1.17129 2.3368 1.1973 2.40957 1.19777C2.44912 1.19793 2.48825 1.18976 2.52443 1.17379L2.57618 1.15738C3.75433 0.811759 4.97455 0.630404 6.20229 0.618447C7.68278 0.618447 8.89948 0.928932 9.81705 1.54107C11.3038 2.53437 12.4587 2.59874 13.5744 2.66184C14.6435 2.72243 15.7491 2.78806 17.1715 3.77379L17.2296 3.81418Z" fill="#353535"/>
<path d="M15.7678 4.77979C15.3499 4.77979 14.9414 4.90373 14.5939 5.13595C14.2464 5.36816 13.9756 5.69821 13.8157 6.08435C13.6559 6.47049 13.6141 6.89537 13.6957 7.30525C13.7773 7.71514 13.9787 8.0916 14.2743 8.38703C14.5699 8.68247 14.9465 8.88359 15.3564 8.96497C15.7664 9.04635 16.1912 9.00433 16.5773 8.84422C16.9633 8.68412 17.2932 8.41312 17.5252 8.0655C17.7572 7.71788 17.8809 7.30927 17.8807 6.89134C17.88 6.33131 17.6571 5.79442 17.261 5.39854C16.8649 5.00265 16.3279 4.78012 15.7678 4.77979ZM17.2647 6.89134C17.265 7.18745 17.1774 7.47698 17.0131 7.72331C16.8488 7.96964 16.6151 8.1617 16.3416 8.27519C16.0681 8.38868 15.767 8.4185 15.4766 8.36089C15.1861 8.30327 14.9193 8.1608 14.7098 7.95151C14.5004 7.74222 14.3577 7.4755 14.2998 7.18509C14.2419 6.89469 14.2715 6.59365 14.3848 6.32006C14.498 6.04646 14.6899 5.8126 14.9361 5.64807C15.1823 5.48353 15.4717 5.39571 15.7678 5.39571C16.1645 5.39604 16.5449 5.55368 16.8255 5.83406C17.1061 6.11444 17.2641 6.49466 17.2647 6.89134Z" fill="#353535"/>
<path d="M8.75919 4.771C8.67684 4.771 8.59787 4.80371 8.53964 4.86194C8.48141 4.92016 8.4487 4.99914 8.4487 5.08148V6.89012C8.43739 7.27943 8.27479 7.64901 7.99542 7.92038C7.71605 8.19175 7.34191 8.34355 6.95244 8.34355C6.56296 8.34355 6.18882 8.19175 5.90945 7.92038C5.63008 7.64901 5.46748 7.27943 5.45618 6.89012V5.08148C5.45618 4.99914 5.42346 4.92016 5.36524 4.86194C5.30701 4.80371 5.22804 4.771 5.14569 4.771C5.06334 4.771 4.98437 4.80371 4.92614 4.86194C4.86792 4.92016 4.83521 4.99914 4.83521 5.08148V6.89012C4.83521 7.45148 5.0582 7.98985 5.45514 8.38679C5.85208 8.78373 6.39045 9.00672 6.95181 9.00672C7.51317 9.00672 8.05153 8.78373 8.44847 8.38679C8.84541 7.98985 9.06841 7.45148 9.06841 6.89012V5.10168C9.06841 5.09536 9.06841 5.08905 9.06841 5.08653C9.06875 5.00383 9.03648 4.92433 8.9786 4.86526C8.92071 4.80619 8.84188 4.77232 8.75919 4.771Z" fill="#353535"/>
<path d="M13.0466 4.7809H9.82311C9.74231 4.78289 9.66553 4.81655 9.60934 4.87464C9.55314 4.93272 9.52203 5.01057 9.52272 5.09139C9.52305 5.13233 9.53144 5.1728 9.54741 5.2105C9.56338 5.2482 9.58662 5.28238 9.61581 5.31109C9.64499 5.33981 9.67954 5.36249 9.71749 5.37785C9.75544 5.39321 9.79605 5.40095 9.83699 5.40061H11.1269V8.69731C11.1276 8.70149 11.1276 8.70576 11.1269 8.70993C11.1269 8.79228 11.1596 8.87125 11.2178 8.92948C11.2761 8.98771 11.355 9.02042 11.4374 9.02042C11.5197 9.02042 11.5987 8.98771 11.6569 8.92948C11.7152 8.87125 11.7479 8.79228 11.7479 8.70993V5.40061H13.0504C13.0927 5.40332 13.1352 5.39731 13.1751 5.38296C13.2151 5.36861 13.2517 5.34623 13.2826 5.31719C13.3136 5.28815 13.3382 5.25308 13.3551 5.21413C13.372 5.17519 13.3807 5.1332 13.3807 5.09076C13.3807 5.04832 13.372 5.00633 13.3551 4.96738C13.3382 4.92844 13.3136 4.89336 13.2826 4.86432C13.2517 4.83529 13.2151 4.8129 13.1751 4.79856C13.1352 4.78421 13.0927 4.7782 13.0504 4.7809H13.0466Z" fill="#353535"/>
<path d="M29.3029 4.7809H26.0795C26.0006 4.7874 25.9272 4.82376 25.8742 4.88256C25.8212 4.94137 25.7927 5.01818 25.7945 5.0973C25.7963 5.17642 25.8282 5.25187 25.8837 5.30825C25.9393 5.36462 26.0143 5.39766 26.0933 5.40061H27.3883V8.70867C27.3883 8.79102 27.421 8.86999 27.4792 8.92822C27.5375 8.98645 27.6164 9.01916 27.6988 9.01916C27.7811 9.01916 27.8601 8.98645 27.9183 8.92822C27.9765 8.86999 28.0093 8.79102 28.0093 8.70867V5.40061H29.3067C29.3491 5.40332 29.3915 5.39731 29.4315 5.38296C29.4714 5.36861 29.508 5.34623 29.539 5.31719C29.5699 5.28815 29.5946 5.25308 29.6114 5.21413C29.6283 5.17519 29.637 5.1332 29.637 5.09076C29.637 5.04832 29.6283 5.00633 29.6114 4.96738C29.5946 4.92844 29.5699 4.89336 29.539 4.86432C29.508 4.83529 29.4714 4.8129 29.4315 4.79856C29.3915 4.78421 29.3491 4.7782 29.3067 4.7809H29.3029Z" fill="#353535"/>
<path d="M34.1762 4.77196C34.1271 4.77136 34.0786 4.7825 34.0347 4.80445C33.9908 4.82641 33.9528 4.85854 33.9238 4.89818L32.5354 6.66517L30.9224 4.89439C30.8989 4.85954 30.8685 4.82985 30.8331 4.80711C30.7977 4.78436 30.7581 4.76905 30.7166 4.76209C30.6751 4.75513 30.6326 4.75668 30.5918 4.76663C30.5509 4.77658 30.5125 4.79473 30.4788 4.81999C30.4452 4.84524 30.417 4.87706 30.3961 4.91353C30.3751 4.94999 30.3618 4.99034 30.3569 5.03212C30.3519 5.07389 30.3556 5.11623 30.3675 5.15656C30.3795 5.19689 30.3995 5.23437 30.4264 5.26672C30.4315 5.27376 30.437 5.2805 30.4428 5.28692L32.2098 7.24828V8.70857C32.2095 8.79137 32.242 8.87092 32.3002 8.92982C32.3583 8.98873 32.4375 9.02217 32.5203 9.02284C32.5621 9.02403 32.6038 9.01676 32.6427 9.00145C32.6817 8.98615 32.7171 8.96312 32.7469 8.93377C32.7768 8.90441 32.8004 8.86933 32.8163 8.83063C32.8322 8.79193 32.8401 8.75041 32.8396 8.70857C32.8402 8.70269 32.8402 8.69677 32.8396 8.6909V7.28614L34.4299 5.26672C34.4353 5.26009 34.44 5.2529 34.4438 5.24527C34.4727 5.19771 34.488 5.14314 34.488 5.0875C34.4886 5.0462 34.4811 5.00517 34.4657 4.96684C34.4503 4.9285 34.4274 4.89362 34.3984 4.86423C34.3694 4.83485 34.3348 4.81155 34.2966 4.79571C34.2585 4.77986 34.2175 4.77179 34.1762 4.77196Z" fill="#353535"/>
<path d="M20.8807 5.39964H22.3158C22.3581 5.40234 22.4006 5.39633 22.4405 5.38199C22.4805 5.36764 22.5171 5.34525 22.548 5.31622C22.579 5.28718 22.6036 5.2521 22.6205 5.21316C22.6374 5.17421 22.6461 5.13222 22.6461 5.08978C22.6461 5.04734 22.6374 5.00535 22.6205 4.96641C22.6036 4.92746 22.579 4.89239 22.548 4.86335C22.5171 4.83431 22.4805 4.81193 22.4405 4.79758C22.4006 4.78323 22.3581 4.77722 22.3158 4.77993H20.8807C20.5984 4.77303 20.3174 4.8227 20.0545 4.926C19.7916 5.0293 19.552 5.18415 19.3499 5.38144C19.1477 5.57872 18.9871 5.81446 18.8774 6.07476C18.7677 6.33507 18.7112 6.61469 18.7112 6.89716C18.7112 7.17963 18.7677 7.45925 18.8774 7.71956C18.9871 7.97987 19.1477 8.2156 19.3499 8.41289C19.552 8.61017 19.7916 8.76502 20.0545 8.86832C20.3174 8.97162 20.5984 9.02129 20.8807 9.01439H22.3158C22.3978 9.01439 22.4765 8.98182 22.5344 8.92382C22.5924 8.86583 22.625 8.78718 22.625 8.70517C22.625 8.62316 22.5924 8.54451 22.5344 8.48652C22.4765 8.42853 22.3978 8.39595 22.3158 8.39595H20.8807C20.4834 8.39595 20.1023 8.23811 19.8214 7.95715C19.5404 7.67619 19.3826 7.29513 19.3826 6.89779C19.3826 6.50046 19.5404 6.1194 19.8214 5.83844C20.1023 5.55748 20.4834 5.39964 20.8807 5.39964Z" fill="#353535"/>
<path d="M24.2862 4.77589C24.2457 4.77559 24.2055 4.78337 24.1681 4.79875C24.1306 4.81413 24.0965 4.83682 24.0679 4.8655C24.0079 4.92735 23.9748 5.01035 23.9758 5.09647V8.7087C23.9744 8.74931 23.9811 8.78978 23.9954 8.82781C24.0097 8.86583 24.0314 8.90066 24.0592 8.93031C24.087 8.95997 24.1203 8.98386 24.1573 9.00062C24.1943 9.01739 24.2343 9.0267 24.2749 9.02802C24.3569 9.0307 24.4366 9.00069 24.4965 8.94459C24.5564 8.8885 24.5915 8.81091 24.5942 8.7289C24.5949 8.72176 24.5949 8.71458 24.5942 8.70744V5.07249C24.5909 4.9929 24.5571 4.91764 24.4997 4.86239C24.4424 4.80713 24.3659 4.77615 24.2862 4.77589Z" fill="#353535"/>
<path d="M4.3115 8.55715L2.43344 5.00297C2.40433 4.93866 2.3573 4.88409 2.29798 4.84582C2.23866 4.80754 2.16957 4.78717 2.09897 4.78714C2.02384 4.78609 1.95027 4.80867 1.88866 4.8517C1.82706 4.89473 1.78054 4.95604 1.75567 5.02695L0.0315945 8.58239C0.0274718 8.59004 0.0240907 8.59807 0.0214974 8.60637C0.00873744 8.63902 0.00148679 8.67357 4.10509e-05 8.7086C-0.000628898 8.7498 0.00690729 8.79072 0.0222104 8.82897C0.0375136 8.86722 0.0602775 8.90205 0.0891758 8.93142C0.118074 8.96079 0.152528 8.98411 0.190531 9.00003C0.228534 9.01595 0.269325 9.02414 0.310527 9.02414C0.36365 9.02439 0.415923 9.01079 0.462184 8.98468C0.508444 8.95856 0.547093 8.92082 0.574313 8.8752C0.580247 8.8678 0.585327 8.85976 0.589459 8.85122L2.10402 5.71608L3.7448 8.82346C3.76891 8.88144 3.80978 8.93091 3.86216 8.96554C3.91455 9.00016 3.97608 9.01837 4.03888 9.01782C4.12112 9.01783 4.20004 8.98533 4.25843 8.92741C4.31682 8.86949 4.34996 8.79084 4.35062 8.7086C4.34977 8.66484 4.33943 8.62178 4.32033 8.58239C4.31915 8.57346 4.31614 8.56486 4.3115 8.55715Z" fill="#353535"/>
<path d="M11.8957 12.9555C11.6617 13.0111 11.4179 13.0111 11.1838 12.9555C11.1 12.9352 11.0208 12.8993 10.9504 12.8495C10.8931 12.8073 10.8475 12.7513 10.8178 12.6867C10.7873 12.6263 10.7664 12.5616 10.756 12.4948C10.7456 12.4246 10.741 12.3537 10.7421 12.2828V11.1279H11.0412V12.2424C11.0314 12.3706 11.0686 12.4981 11.146 12.6008C11.2005 12.6464 11.2639 12.6803 11.332 12.7005C11.4002 12.7207 11.4717 12.7267 11.5423 12.7182C11.7392 12.7182 11.873 12.6804 11.9449 12.6021C12.0237 12.4995 12.0614 12.3713 12.0509 12.2424V11.1279H12.3438V12.2815C12.3445 12.3529 12.3395 12.4243 12.3286 12.4948C12.3167 12.5616 12.295 12.6262 12.2642 12.6867C12.233 12.7506 12.1872 12.8064 12.1304 12.8495C12.0598 12.8997 11.9801 12.9357 11.8957 12.9555Z" fill="#353535"/>
<path d="M13.7472 12.9901C13.4588 13.0013 13.1739 12.9228 12.9319 12.7654L13.0833 12.5344C13.2778 12.6631 13.5065 12.7304 13.7397 12.7275C13.8695 12.7375 13.9997 12.7145 14.1183 12.6606C14.1543 12.6374 14.1833 12.6048 14.2022 12.5664C14.2211 12.5279 14.2292 12.485 14.2256 12.4423C14.2289 12.4033 14.22 12.3642 14.2001 12.3305C14.1802 12.2968 14.1503 12.2701 14.1145 12.2542C13.9927 12.2071 13.8655 12.1753 13.7359 12.1596C13.6349 12.1444 13.5529 12.1305 13.4897 12.1154C13.4246 12.1001 13.3609 12.0795 13.2992 12.0536C13.2439 12.0325 13.1933 12.0008 13.1502 11.9602C13.112 11.9215 13.0827 11.875 13.0644 11.8238C13.0414 11.7608 13.0303 11.694 13.0316 11.6269C13.0243 11.55 13.0365 11.4726 13.0669 11.4016C13.0973 11.3306 13.1451 11.2683 13.2058 11.2205C13.3694 11.1259 13.5574 11.082 13.746 11.0943C13.9887 11.0821 14.2296 11.1427 14.4376 11.2685L14.2773 11.5134C14.2029 11.4678 14.1221 11.4338 14.0375 11.4124C13.9417 11.3858 13.8428 11.3722 13.7434 11.372C13.6334 11.3633 13.5229 11.3833 13.4229 11.4301C13.3918 11.4495 13.3667 11.4771 13.3503 11.5098C13.3338 11.5425 13.3266 11.5791 13.3295 11.6156C13.3287 11.649 13.3365 11.682 13.3522 11.7115C13.3661 11.7369 13.385 11.7592 13.4077 11.7771C13.4395 11.7978 13.4745 11.8131 13.5112 11.8226C13.5527 11.8358 13.5948 11.8467 13.6374 11.8554C13.677 11.8647 13.7338 11.8747 13.8078 11.8857C13.9088 11.9021 13.9883 11.9172 14.0476 11.9286C14.1126 11.9434 14.1763 11.9633 14.2382 11.9879C14.2959 12.0076 14.3491 12.0385 14.3947 12.0788C14.4335 12.1189 14.4643 12.166 14.4856 12.2176C14.5111 12.2832 14.5235 12.353 14.5222 12.4234C14.5284 12.5036 14.5149 12.5841 14.483 12.658C14.4512 12.7319 14.4018 12.7969 14.3392 12.8474C14.1617 12.956 13.9546 13.0059 13.7472 12.9901Z" fill="#353535"/>
<path d="M14.9626 12.966L15.6997 11.1157H16.0064L16.746 12.966H16.4356L16.2992 12.6139H15.3981L15.2618 12.966H14.9626ZM15.5028 12.3349H16.1932L15.8474 11.4742L15.5028 12.3349Z" fill="#353535"/>
<path d="M17.3406 12.966V11.1283H17.9716C18.1246 11.1253 18.2774 11.1393 18.4273 11.17C18.5386 11.1942 18.6425 11.2448 18.7302 11.3177C18.8148 11.3922 18.8754 11.4901 18.9044 11.5991C18.9428 11.7448 18.9602 11.8953 18.9561 12.0459C18.9561 12.3917 18.88 12.6315 18.7277 12.7653C18.5754 12.8991 18.317 12.966 17.9527 12.966H17.3406ZM17.641 12.6883H17.9628C18.2291 12.6883 18.4109 12.6404 18.5068 12.547C18.6027 12.4536 18.6507 12.2857 18.6507 12.0421C18.6526 11.9413 18.6432 11.8405 18.6229 11.7417C18.6073 11.6695 18.5719 11.6031 18.5207 11.5499C18.4634 11.4946 18.3916 11.4565 18.3137 11.4401C18.2016 11.4174 18.0873 11.4072 17.9729 11.4098H17.641V12.6883Z" fill="#353535"/>
<path d="M20.4378 13C19.8067 13 19.4912 12.6836 19.4912 12.0509C19.4912 11.4181 19.8067 11.1022 20.4378 11.103C21.0714 11.103 21.3882 11.419 21.3882 12.0509C21.3882 12.6828 21.0714 12.9992 20.4378 13ZM20.4378 12.7198C20.5271 12.7284 20.6171 12.7179 20.702 12.689C20.7869 12.66 20.8646 12.6133 20.93 12.552C21.0311 12.4068 21.0853 12.2341 21.0853 12.0572C21.0853 11.8803 21.0311 11.7076 20.93 11.5624C20.8647 11.5009 20.7871 11.4539 20.7022 11.4248C20.6173 11.3956 20.5272 11.3849 20.4378 11.3933C20.0087 11.3933 19.7929 11.6142 19.7929 12.0559C19.7799 12.235 19.8354 12.4123 19.9481 12.552C20.0139 12.6117 20.0914 12.6571 20.1757 12.6851C20.2601 12.7132 20.3493 12.7233 20.4378 12.7148V12.7198Z" fill="#353535"/>
<path d="M22.6894 12.99C22.4009 13.0011 22.1161 12.9226 21.874 12.7654L22.0255 12.5344C22.2204 12.6631 22.4495 12.7304 22.6831 12.7275C22.8129 12.7375 22.9432 12.7145 23.0617 12.6606C23.0979 12.6375 23.127 12.6049 23.1462 12.5665C23.1653 12.528 23.1736 12.4851 23.1702 12.4423C23.1733 12.4032 23.1642 12.364 23.144 12.3303C23.1239 12.2967 23.0938 12.2701 23.0579 12.2542C22.9361 12.2071 22.8089 12.1753 22.6793 12.1596C22.5783 12.1444 22.4963 12.1305 22.4268 12.1154C22.3617 12.0999 22.298 12.0793 22.2363 12.0535C22.181 12.0325 22.1304 12.0007 22.0873 11.9601C22.0495 11.9212 22.0202 11.8748 22.0015 11.8238C21.979 11.7607 21.9683 11.6939 21.9699 11.6269C21.9628 11.5502 21.9748 11.4728 22.005 11.4019C22.0352 11.3309 22.0826 11.2686 22.1429 11.2205C22.3069 11.1259 22.4953 11.082 22.6843 11.0943C22.9271 11.0821 23.168 11.1427 23.376 11.2685L23.2232 11.5171C23.1488 11.4716 23.068 11.4376 22.9834 11.4162C22.8881 11.3896 22.7896 11.376 22.6906 11.3758C22.5801 11.3669 22.4692 11.3869 22.3688 11.4338C22.3378 11.4533 22.3127 11.4809 22.2962 11.5136C22.2797 11.5463 22.2725 11.5829 22.2754 11.6194C22.2746 11.6527 22.2825 11.6858 22.2981 11.7153C22.3124 11.7404 22.3313 11.7626 22.3536 11.7809C22.3855 11.8015 22.4204 11.8169 22.4571 11.8264C22.5038 11.8402 22.5467 11.8516 22.5833 11.8592C22.6199 11.8667 22.6805 11.8781 22.755 11.8895C22.856 11.9059 22.9355 11.921 22.9935 11.9324C23.0589 11.9472 23.1231 11.967 23.1854 11.9917C23.2425 12.0116 23.2953 12.0425 23.3406 12.0826C23.3794 12.1227 23.4102 12.1698 23.4315 12.2214C23.458 12.2867 23.4709 12.3567 23.4694 12.4271C23.4753 12.5075 23.4616 12.588 23.4295 12.6619C23.3974 12.7358 23.3479 12.8007 23.2851 12.8512C23.1062 12.9594 22.8976 13.008 22.6894 12.99Z" fill="#353535"/>
</svg>
