<svg width="18" height="18" viewBox="0 0 18 18" fill="none" xmlns="http://www.w3.org/2000/svg">
<path d="M8.9915 0.666992C4.3915 0.666992 0.666504 4.40033 0.666504 9.00033C0.666504 13.6003 4.3915 17.3337 8.9915 17.3337C13.5998 17.3337 17.3332 13.6003 17.3332 9.00033C17.3332 4.40033 13.5998 0.666992 8.9915 0.666992ZM8.99984 15.667C5.3165 15.667 2.33317 12.6837 2.33317 9.00033C2.33317 5.31699 5.3165 2.33366 8.99984 2.33366C12.6832 2.33366 15.6665 5.31699 15.6665 9.00033C15.6665 12.6837 12.6832 15.667 8.99984 15.667ZM9.4165 4.83366H8.1665V9.83366L12.5415 12.4587L13.1665 11.4337L9.4165 9.20866V4.83366Z" fill="#575757"/>
</svg>
