<svg width="60" height="60" viewBox="0 0 60 60" fill="none" xmlns="http://www.w3.org/2000/svg">
<path d="M29.9999 0C46.5694 0 60 13.4325 60 30.0001C60 46.5696 46.5694 60 29.9999 60C13.4304 60 0 46.5694 0 30.0001C0 13.4325 13.4306 0 29.9999 0Z" fill="#575757"/>
<path d="M36.0255 15H19.7179C18.2231 15 17 16.2231 17 17.7179V36.7434H19.7179V17.7179H36.0255V15ZM40.1024 20.4359H25.1538C23.6589 20.4359 22.4359 21.6589 22.4359 23.1538V42.1793C22.4359 43.6741 23.6589 44.8972 25.1538 44.8972H40.1024C41.5972 44.8972 42.8203 43.6741 42.8203 42.1793V23.1538C42.8203 21.6589 41.5972 20.4359 40.1024 20.4359ZM40.1024 42.1793H25.1538V23.1538H40.1024V42.1793Z" fill="white"/>
</svg>
