<svg width="16" height="18" viewBox="0 0 16 18" fill="none" xmlns="http://www.w3.org/2000/svg">
<path d="M13.8333 2.49967H13V0.833008L11.3333 0.833008V2.49967L4.66667 2.49967V0.833008L3 0.833008V2.49967H2.16667C1.24167 2.49967 0.5 3.24967 0.5 4.16634L0.5 15.833C0.5 16.7497 1.24167 17.4997 2.16667 17.4997H13.8333C14.75 17.4997 15.5 16.7497 15.5 15.833L15.5 4.16634C15.5 3.24967 14.75 2.49967 13.8333 2.49967ZM13.8333 15.833H2.16667L2.16667 7.49967L13.8333 7.49967L13.8333 15.833ZM13.8333 5.83301L2.16667 5.83301V4.16634L13.8333 4.16634V5.83301ZM3.83333 9.16634H8V13.333H3.83333L3.83333 9.16634Z" fill="#575757"/>
</svg>
