<svg width="44" height="44" viewBox="0 0 44 44" fill="none" xmlns="http://www.w3.org/2000/svg">
<path d="M22 0C9.84951 0 0 9.84951 0 22C0 34.1505 9.84951 44 22 44C34.1505 44 44 34.1505 44 22C44 9.84951 34.1505 0 22 0ZM22 41.25C18.1927 41.25 14.4709 40.121 11.3053 38.0058C8.13963 35.8906 5.67231 32.8841 4.21532 29.3667C2.75833 25.8492 2.37712 21.9786 3.11988 18.2445C3.86265 14.5104 5.69603 11.0804 8.38819 8.38819C11.0804 5.69603 14.5104 3.86265 18.2445 3.11988C21.9786 2.37712 25.8492 2.75833 29.3667 4.21532C32.8841 5.67231 35.8906 8.13963 38.0058 11.3053C40.121 14.4709 41.25 18.1927 41.25 22C41.25 27.1054 39.2219 32.0017 35.6118 35.6118C32.0017 39.2219 27.1054 41.25 22 41.25Z" fill="#0E0E0E"/>
<path d="M17.875 15.125C17.875 15.6689 17.7137 16.2006 17.4115 16.6528C17.1094 17.1051 16.6799 17.4575 16.1774 17.6657C15.6749 17.8738 15.1219 17.9283 14.5885 17.8222C14.0551 17.7161 13.5651 17.4541 13.1805 17.0696C12.7959 16.685 12.534 16.195 12.4278 15.6615C12.3217 15.1281 12.3762 14.5751 12.5843 14.0726C12.7925 13.5701 13.1449 13.1406 13.5972 12.8385C14.0494 12.5363 14.5811 12.375 15.125 12.375C15.8543 12.375 16.5538 12.6647 17.0695 13.1805C17.5853 13.6962 17.875 14.3957 17.875 15.125Z" fill="#0E0E0E"/>
<path d="M31.625 15.125C31.625 15.6689 31.4637 16.2006 31.1615 16.6528C30.8594 17.1051 30.4299 17.4575 29.9274 17.6657C29.4249 17.8738 28.8719 17.9283 28.3385 17.8222C27.8051 17.7161 27.3151 17.4541 26.9305 17.0696C26.5459 16.685 26.284 16.195 26.1778 15.6615C26.0717 15.1281 26.1262 14.5751 26.3343 14.0726C26.5425 13.5701 26.8949 13.1406 27.3472 12.8385C27.7994 12.5363 28.3311 12.375 28.875 12.375C29.2361 12.375 29.5937 12.4461 29.9274 12.5843C30.261 12.7225 30.5642 12.9251 30.8195 13.1805C31.0749 13.4358 31.2775 13.739 31.4157 14.0726C31.5539 14.4063 31.625 14.7639 31.625 15.125Z" fill="#0E0E0E"/>
<path d="M22 20.625C18.718 20.625 15.5703 21.9288 13.2496 24.2496C10.9288 26.5703 9.625 29.7179 9.625 33H12.375C12.375 30.4473 13.3891 27.9991 15.1941 26.1941C16.9991 24.3891 19.4473 23.375 22 23.375C24.5527 23.375 27.0009 24.3891 28.8059 26.1941C30.611 27.9991 31.625 30.4473 31.625 33H34.375C34.375 29.7179 33.0712 26.5703 30.7505 24.2496C28.4297 21.9288 25.2821 20.625 22 20.625Z" fill="#0E0E0E"/>
</svg>
