<svg xmlns="http://www.w3.org/2000/svg" width="57" height="57" viewBox="0 0 57 57">
    <g fill="none" fill-rule="evenodd">
        <g>
            <g>
                <path fill="#FFC500" stroke="#323242" stroke-width="2.3" d="M28.282.792l.405.638c.264.414.694.694 1.177.771l1.707.27c.485.077.979-.058 1.358-.37l.582-.48c.967-.797 2.435-.32 2.748.893l.189.73c.123.476.445.876.882 1.099l1.539.784c.437.222.949.247 1.406.068l.702-.278c1.166-.46 2.414.448 2.338 1.7l-.046.753c-.03.49.151.968.498 1.316l1.221 1.221c.348.348.827.529 1.317.499l.753-.046c1.251-.077 2.158 1.171 1.7 2.338l-.278.702c-.18.457-.155.968.068 1.405l.784 1.54c.223.437.623.758 1.098.881l.731.189c1.213.313 1.69 1.781.893 2.748l-.48.583c-.313.379-.447.873-.37 1.357l.27 1.707c.077.484.357.913.771 1.177l.637.405c1.057.674 1.057 2.217 0 2.89l-.637.405c-.414.264-.694.693-.772 1.178l-.27 1.706c-.076.485.058.98.37 1.358l.48.582c.798.967.321 2.435-.892 2.748l-.731.19c-.475.122-.875.443-1.098.88l-.784 1.54c-.223.438-.248.949-.068 1.405l.277.703c.46 1.166-.448 2.414-1.699 2.338l-.753-.046c-.49-.03-.97.151-1.317.498l-1.221 1.222c-.347.347-.528.826-.498 1.316l.046.754c.076 1.25-1.172 2.157-2.338 1.698l-.702-.277c-.457-.18-.97-.155-1.406.068l-1.54.784c-.436.223-.758.622-.881 1.098l-.189.731c-.313 1.213-1.78 1.69-2.748.893l-.582-.48c-.38-.313-.873-.447-1.358-.37l-1.707.27c-.483.076-.913.357-1.177.771l-.405.637c-.674 1.057-2.216 1.057-2.89 0l-.405-.637c-.264-.414-.693-.695-1.177-.772l-1.707-.27c-.484-.076-.978.058-1.357.37l-.583.48c-.967.798-2.435.321-2.748-.892l-.189-.731c-.122-.476-.444-.875-.88-1.098l-1.54-.784c-.438-.223-.949-.248-1.406-.068l-.702.277c-1.167.46-2.415-.448-2.338-1.698l.046-.754c.03-.49-.152-.97-.499-1.316l-1.221-1.222c-.348-.347-.827-.528-1.316-.498l-.754.046c-1.251.076-2.158-1.172-1.699-2.338l.278-.703c.179-.456.154-.967-.068-1.405l-.785-1.54c-.222-.437-.622-.758-1.097-.88l-.731-.19c-1.213-.313-1.69-1.78-.893-2.748l.48-.582c.312-.379.447-.873.37-1.358l-.27-1.706c-.077-.485-.357-.914-.772-1.178l-.637-.405c-1.056-.673-1.056-2.216 0-2.89l.637-.405c.415-.264.695-.693.772-1.177l.27-1.707c.077-.484-.058-.978-.37-1.357l-.48-.583c-.798-.967-.32-2.435.893-2.748l.731-.189c.475-.123.875-.444 1.097-.88l.785-1.54c.222-.438.247-.949.068-1.406l-.278-.702c-.459-1.167.448-2.415 1.7-2.338l.753.046c.49.03.968-.151 1.316-.499l1.221-1.221c.347-.348.53-.827.5-1.316l-.047-.754c-.077-1.251 1.171-2.158 2.338-1.699l.702.278c.457.179.968.154 1.406-.068l1.54-.784c.436-.223.758-.623.88-1.098l.189-.731c.313-1.213 1.781-1.69 2.748-.893l.583.48c.379.312.873.447 1.357.37l1.707-.27c.484-.077.913-.357 1.177-.771l.405-.638c.674-1.056 2.216-1.056 2.89 0z" transform="translate(-1334 -602) translate(1335.437 603.514)"/>
                <path fill="#323242" d="M24.394 39.894c0-1.124.866-1.729 1.643-1.729.865 0 1.73.605 1.73 1.73 0 1.037-.865 1.642-1.73 1.642-.777 0-1.643-.605-1.643-1.643m.779-7.264v-1.21c0-2.032.864-3.459 3.112-5.663 3.33-3.244 4.108-4.54 4.108-6.702 0-3.286-2.379-5.663-5.578-5.663-2.637 0-4.626 1.686-5.706 4.41-.087.216-.303.389-.563.389-.388 0-.648-.26-.648-.649 0-.172.086-.432.173-.648.994-2.767 3.545-4.756 6.701-4.756 3.934 0 7.004 2.983 7.004 6.874 0 2.508-.994 4.237-4.626 7.609-1.946 1.817-2.55 2.984-2.594 4.8l-.043 1.253c0 .389-.303.649-.692.649-.389 0-.648-.303-.648-.693" transform="translate(-1334 -602) translate(1335.437 603.514)"/>
            </g>
        </g>
    </g>
</svg>
