<svg width="53" height="40" viewBox="0 0 53 40" fill="none" xmlns="http://www.w3.org/2000/svg">
<path d="M22.3577 0.0561868L22.8205 39.6605H27.5236L27.5623 21.7755H33.5105C34.0371 25.0421 34.0913 38.5271 34.0913 39.5772V39.6799H38.6667C38.8429 29.6049 39.6251 10.8887 34.0042 0.0561868H22.3577ZM27.3009 17.174L27.4152 4.55118C27.4152 4.55118 30.0175 4.57637 30.3195 4.57637H30.3815C31.4445 6.80255 32.1473 10.011 32.5753 12.4019C33.0458 14.9904 33.2762 17.174 33.2762 17.174H27.3009ZM14.301 39.6799H19.2869L19.3972 0H13.5324L14.301 39.6799ZM1.13463 39.6276L5.97523 39.6799L5.90552 21.6845H10.2078V16.9628H5.89004V4.79724H11.4451V0.0716872L0 0.00968733L1.13463 39.6276ZM38.0877 0.0561868V4.70618H42.3184L42.1422 39.6896H47.0138L48.1755 4.70618H52.3404V0L38.0877 0.0561868Z" fill="#353535"/>
</svg>
