<svg width="27" height="20" viewBox="0 0 27 20" fill="none" xmlns="http://www.w3.org/2000/svg">
<path d="M11.1789 0.0280934L11.4102 19.8303H13.7618L13.7812 10.8878H16.7552C17.0186 12.5211 17.0457 19.2636 17.0457 19.7886V19.84H19.3333C19.4214 14.8025 19.8125 5.44436 17.0021 0.0280934H11.1789ZM13.6505 8.58698L13.7076 2.27559C13.7076 2.27559 15.0087 2.28818 15.1598 2.28818H15.1907C15.7222 3.40127 16.0737 5.00552 16.2876 6.20096C16.5229 7.4952 16.6381 8.58698 16.6381 8.58698H13.6505ZM7.15052 19.84H9.64343L9.69861 0H6.76618L7.15052 19.84ZM0.567316 19.8138L2.98761 19.84L2.95276 10.8422H5.10392V8.48139H2.94502V2.39862H5.72255V0.0358436L0 0.00484367L0.567316 19.8138ZM19.0439 0.0280934V2.35309H21.1592L21.0711 19.8448H23.5069L24.0878 2.35309H26.1702V0L19.0439 0.0280934Z" fill="#353535"/>
</svg>
