<svg width="60" height="46" viewBox="0 0 60 46" fill="none" xmlns="http://www.w3.org/2000/svg">
<path d="M51.9724 41.9776L30.7225 26.9776C30.2902 26.6722 29.7123 26.6722 29.28 26.9776L8.03004 41.9776C7.69758 42.2118 7.49977 42.5933 7.5 43V44.2501C7.49988 44.9404 8.05957 45.5001 8.74992 45.5001H51.25C51.9403 45.5001 52.5 44.9404 52.5 44.2501V43C52.5007 42.5939 52.3039 42.2124 51.9724 41.9776Z" fill="#CFD8DC"/>
<path d="M30.7224 26.9776L9.4725 11.9776C8.90918 11.5786 8.12895 11.7118 7.72992 12.2751C7.57981 12.487 7.49942 12.7404 7.5 13.0001V43.0001C7.4986 43.6904 8.05723 44.2512 8.74758 44.2526C9.00727 44.253 9.26063 44.1726 9.4725 44.0226L30.7224 29.0226C31.2865 28.6246 31.421 27.8447 31.0229 27.2807C30.9407 27.1641 30.8391 27.0624 30.7224 26.9802V26.9776Z" fill="#FAFAFA"/>
<path d="M51.8248 11.89C51.4093 11.6777 50.9105 11.7113 50.5273 11.9776L29.2774 26.9776C28.7133 27.3757 28.5788 28.1556 28.9769 28.7196C29.0592 28.8362 29.1608 28.9378 29.2774 29.02L50.5273 44.02C51.0907 44.4191 51.8709 44.2858 52.2699 43.7225C52.4196 43.5113 52.4998 43.2589 52.4998 43V13C52.4998 12.5329 52.2396 12.1048 51.8248 11.89Z" fill="#EEEEEE"/>
<path d="M54.9376 1.36004C54.7691 0.846875 54.2901 0.5 53.7501 0.5H6.25004C5.55969 0.5 5 1.05969 5 1.75004C5 2.14344 5.18527 2.51398 5.50004 2.75L29.2501 20.25C29.6909 20.5746 30.2918 20.5746 30.7326 20.25L54.4825 2.75C54.9178 2.43301 55.1011 1.87297 54.9376 1.36004Z" fill="#ECEFF1"/>
<path d="M53.75 0.5C53.4796 0.5 53.2164 0.587774 53 0.749961L30 17.6975L6.99996 0.749961C6.78363 0.587774 6.52043 0.5 6.24996 0.5C2.7982 0.5 0 3.2982 0 6.74996V39.2499C0 42.7018 2.7982 45.5 6.24996 45.5H8.74992C9.44027 45.5 9.99996 44.9403 9.99996 44.25V15.4125L29.2774 29.0225C29.7097 29.3279 30.2876 29.3279 30.7199 29.0225L49.9999 15.4125V44.25C49.9999 44.9403 50.5596 45.5 51.25 45.5H53.7499C57.2018 45.5 60 42.7018 60 39.25V6.74996C60 3.2982 57.2018 0.5 53.75 0.5Z" fill="#F44336"/>
</svg>
