<svg width="75" height="75" viewBox="0 0 75 75" fill="none" xmlns="http://www.w3.org/2000/svg">
<path d="M37.5 0C16.7889 0 0 16.7889 0 37.5C0 58.2111 16.7889 75 37.5 75C58.2111 75 75 58.2111 75 37.5C75 16.7889 58.2111 0 37.5 0ZM37.5 70.3125C31.0103 70.3125 24.6663 68.3881 19.2704 64.7826C13.8744 61.1771 9.6687 56.0525 7.1852 50.0568C4.7017 44.0611 4.05191 37.4636 5.31798 31.0986C6.58406 24.7336 9.70915 18.887 14.2981 14.2981C18.887 9.70915 24.7336 6.58406 31.0986 5.31798C37.4636 4.05191 44.0611 4.7017 50.0568 7.1852C56.0525 9.6687 61.1771 13.8744 64.7826 19.2704C68.3881 24.6663 70.3125 31.0103 70.3125 37.5C70.3125 46.2024 66.8555 54.5484 60.7019 60.7019C54.5484 66.8555 46.2024 70.3125 37.5 70.3125Z" fill="#0E0E0E"/>
<path d="M30.4687 25.7813C30.4687 26.7084 30.1938 27.6146 29.6788 28.3855C29.1637 29.1564 28.4316 29.7572 27.5751 30.1119C26.7185 30.4667 25.776 30.5596 24.8668 30.3787C23.9575 30.1978 23.1222 29.7514 22.4667 29.0958C21.8111 28.4403 21.3647 27.605 21.1838 26.6957C21.003 25.7865 21.0958 24.844 21.4506 23.9874C21.8054 23.1309 22.4062 22.3988 23.177 21.8837C23.9479 21.3687 24.8541 21.0938 25.7812 21.0938C27.0244 21.0938 28.2167 21.5876 29.0958 22.4667C29.9749 23.3458 30.4687 24.5381 30.4687 25.7813Z" fill="#0E0E0E"/>
<path d="M53.9062 25.7813C53.9062 26.7084 53.6313 27.6146 53.1163 28.3855C52.6012 29.1564 51.8691 29.7572 51.0126 30.1119C50.1561 30.4667 49.2136 30.5596 48.3043 30.3787C47.395 30.1978 46.5597 29.7514 45.9042 29.0958C45.2486 28.4403 44.8022 27.605 44.6213 26.6957C44.4405 25.7865 44.5333 24.844 44.8881 23.9874C45.2429 23.1309 45.8437 22.3988 46.6145 21.8837C47.3854 21.3687 48.2916 21.0938 49.2187 21.0938C49.8343 21.0937 50.4439 21.215 51.0126 21.4506C51.5813 21.6861 52.098 22.0314 52.5333 22.4667C52.9686 22.902 53.3139 23.4187 53.5494 23.9874C53.785 24.5561 53.9062 25.1657 53.9062 25.7813Z" fill="#0E0E0E"/>
<path d="M53.9063 37.5C53.9063 41.8512 52.1778 46.0242 49.101 49.101C46.0242 52.1777 41.8512 53.9062 37.5 53.9062C33.1488 53.9062 28.9758 52.1777 25.899 49.101C22.8223 46.0242 21.0938 41.8512 21.0938 37.5H16.4062C16.4062 43.0944 18.6286 48.4597 22.5845 52.4155C26.5403 56.3714 31.9056 58.5937 37.5 58.5937C43.0944 58.5937 48.4597 56.3714 52.4156 52.4155C56.3714 48.4597 58.5938 43.0944 58.5938 37.5H53.9063Z" fill="#0E0E0E"/>
</svg>
