<svg width="17" height="17" viewBox="0 0 17 17" fill="none" xmlns="http://www.w3.org/2000/svg">
<path d="M16.428 4.84313C16.3894 3.96785 16.2479 3.36611 16.0451 2.84468C15.836 2.29121 15.5142 1.79568 15.0925 1.38375C14.6806 0.965408 14.1818 0.640337 13.6347 0.434434C13.1103 0.231673 12.5117 0.0901299 11.6364 0.0515387C10.7546 0.00967921 10.4747 0 8.23814 0C6.00162 0 5.72167 0.00967921 4.84313 0.0482704C3.96785 0.0868616 3.3661 0.22853 2.84481 0.431165C2.29121 0.640337 1.79568 0.96214 1.38375 1.38375C0.965408 1.79568 0.640462 2.29448 0.434433 2.84154C0.231673 3.36611 0.0901298 3.96458 0.0515387 4.83986C0.00967921 5.72168 0 6.00162 0 8.23815C0 10.4747 0.00967921 10.7546 0.0482704 11.6332C0.0868616 12.5084 0.22853 13.1102 0.431291 13.6316C0.640462 14.1851 0.965408 14.6806 1.38375 15.0925C1.79568 15.5109 2.29448 15.836 2.84154 16.0419C3.3661 16.2446 3.96458 16.3862 4.83999 16.4248C5.71841 16.4635 5.99847 16.473 8.235 16.473C10.4715 16.473 10.7515 16.4635 11.63 16.4248C12.5053 16.3862 13.107 16.2446 13.6283 16.0419C14.7354 15.6138 15.6107 14.7386 16.0387 13.6316C16.2413 13.107 16.383 12.5084 16.4216 11.6332C16.4602 10.7546 16.4699 10.4747 16.4699 8.23815C16.4699 6.00162 16.4666 5.72168 16.428 4.84313ZM14.9446 11.5688C14.9091 12.3733 14.774 12.8077 14.6614 13.0974C14.3846 13.815 13.815 14.3846 13.0974 14.6614C12.8077 14.774 12.3702 14.9091 11.5688 14.9445C10.6999 14.9832 10.4393 14.9927 8.24141 14.9927C6.04348 14.9927 5.77962 14.9832 4.9139 14.9445C4.10939 14.9091 3.67496 14.774 3.38534 14.6614C3.02821 14.5294 2.70314 14.3202 2.43929 14.0467C2.16576 13.7796 1.95658 13.4578 1.8246 13.1006C1.71196 12.811 1.57683 12.3733 1.54151 11.5721C1.50279 10.7032 1.49324 10.4425 1.49324 8.24456C1.49324 6.04662 1.50279 5.78277 1.54151 4.91717C1.57683 4.11266 1.71196 3.67823 1.8246 3.38861C1.95658 3.03136 2.16576 2.70641 2.44256 2.44243C2.70955 2.1689 3.03135 1.95973 3.38861 1.82786C3.67823 1.71523 4.11593 1.5801 4.91717 1.54465C5.78603 1.50606 6.04674 1.49638 8.24456 1.49638C10.4458 1.49638 10.7063 1.50606 11.5721 1.54465C12.3766 1.5801 12.811 1.71523 13.1006 1.82786C13.4578 1.95973 13.7828 2.1689 14.0467 2.44243C14.3202 2.70955 14.5294 3.03136 14.6614 3.38861C14.774 3.67823 14.9091 4.11581 14.9446 4.91717C14.9832 5.78604 14.9929 6.04662 14.9929 8.24456C14.9929 10.4425 14.9832 10.6999 14.9446 11.5688Z" fill="black"/>
<path d="M8.23854 4.00623C5.90233 4.00623 4.00684 5.90159 4.00684 8.23793C4.00684 10.5743 5.90233 12.4696 8.23854 12.4696C10.5749 12.4696 12.4702 10.5743 12.4702 8.23793C12.4702 5.90159 10.5749 4.00623 8.23854 4.00623ZM8.23854 10.9829C6.72292 10.9829 5.49354 9.75367 5.49354 8.23793C5.49354 6.72219 6.72292 5.49293 8.23854 5.49293C9.75428 5.49293 10.9835 6.72219 10.9835 8.23793C10.9835 9.75367 9.75428 10.9829 8.23854 10.9829Z" fill="black"/>
<path d="M13.6254 3.83923C13.6254 4.38478 13.183 4.82714 12.6373 4.82714C12.0918 4.82714 11.6494 4.38478 11.6494 3.83923C11.6494 3.29355 12.0918 2.85132 12.6373 2.85132C13.183 2.85132 13.6254 3.29355 13.6254 3.83923Z" fill="black"/>
</svg>
