<svg width="38" height="14" viewBox="0 0 38 14" fill="none" xmlns="http://www.w3.org/2000/svg">
<path fill-rule="evenodd" clip-rule="evenodd" d="M31.7218 2.62997C30.9229 2.64888 30.1566 2.95059 29.559 3.4815V2.92253H27.0032V13.5691H29.5638V10.2753C30.0102 10.6764 31.0519 11.0435 31.8186 11.0435C33.7142 11.0203 35.2022 9.53133 35.2022 7.05812C35.1896 4.241 34.1963 2.62222 31.7218 2.62997ZM32.6086 7.00193C32.6086 8.04237 31.9996 9.18452 31.1312 9.18452C30.2628 9.18452 29.5542 8.6643 29.5542 7.38459V6.49721C29.5542 5.2175 30.2628 4.52387 31.1341 4.52387C32.0054 4.52387 32.6115 5.22525 32.6115 6.50496L32.6086 7.00193Z" fill="#353535"/>
<path fill-rule="evenodd" clip-rule="evenodd" d="M2.67248 6.29686H0.0304847C-0.25995 9.55961 1.54268 11.5417 4.67745 11.5417C7.5605 11.5417 8.98268 10.228 8.98268 7.35958V0H6.36683V7.33439C6.35231 8.4688 5.63106 9.24283 4.45577 9.17501C3.60382 9.12754 2.70539 8.71583 2.67248 7.20845V6.29686Z" fill="#353535"/>
<path fill-rule="evenodd" clip-rule="evenodd" d="M22.1916 2.67108C19.9756 2.67108 18.2737 4.41483 18.2737 7.12732C18.2737 9.91151 19.9882 11.4286 22.2071 11.4286C23.8142 11.4286 25.5568 10.7504 26.0341 8.69282H23.4066C23.2082 9.18494 22.8132 9.42229 22.3775 9.42229C21.6514 9.42229 20.9205 8.79745 20.8672 7.79285H26.1919C26.5559 4.50105 24.7513 2.67108 22.1916 2.67108ZM20.8672 6.11789C20.9408 5.16948 21.481 4.68027 22.2991 4.68027C22.9458 4.68027 23.5112 5.35839 23.5112 6.11789H20.8672Z" fill="#353535"/>
<path fill-rule="evenodd" clip-rule="evenodd" d="M13.7312 2.67108C11.5142 2.67108 9.81226 4.41483 9.81226 7.12732C9.81226 9.91151 11.5268 11.4286 13.7438 11.4286C15.3538 11.4286 17.0964 10.7504 17.5708 8.69282H14.9433C14.7497 9.18494 14.3498 9.42229 13.9142 9.42229C13.191 9.42229 12.462 8.79745 12.4058 7.79285H17.7305C18.0926 4.50105 16.2919 2.67108 13.7312 2.67108ZM12.4058 6.11789C12.4804 5.16948 13.0177 4.68027 13.8358 4.68027C14.4825 4.68027 15.0508 5.35839 15.0508 6.11789H12.4058Z" fill="#353535"/>
<path fill-rule="evenodd" clip-rule="evenodd" d="M36.0309 11.5662C36.2035 11.5662 36.3722 11.6175 36.5156 11.7135C36.659 11.8096 36.7707 11.9461 36.8364 12.1058C36.9022 12.2654 36.9191 12.441 36.885 12.6103C36.8509 12.7796 36.7674 12.9349 36.6449 13.0566C36.5225 13.1783 36.3667 13.2609 36.1973 13.2939C36.0279 13.3269 35.8525 13.3088 35.6934 13.2419C35.5343 13.175 35.3987 13.0623 35.3036 12.9182C35.2086 12.7741 35.1585 12.6049 35.1596 12.4322C35.1597 12.3181 35.1824 12.205 35.2263 12.0996C35.2702 11.9942 35.3345 11.8985 35.4154 11.8181C35.4964 11.7376 35.5925 11.6739 35.6981 11.6307C35.8037 11.5875 35.9168 11.5655 36.0309 11.5662V11.447C35.8354 11.4466 35.6442 11.5043 35.4815 11.6128C35.3188 11.7213 35.1919 11.8756 35.1169 12.0563C35.042 12.237 35.0223 12.4359 35.0605 12.6278C35.0986 12.8197 35.1927 12.9959 35.3311 13.1342C35.4694 13.2725 35.6456 13.3665 35.8374 13.4045C36.0292 13.4424 36.2279 13.4226 36.4084 13.3474C36.5889 13.2722 36.7431 13.1451 36.8513 12.9822C36.9595 12.8193 37.017 12.6279 37.0164 12.4322C37.0159 12.1709 36.9119 11.9205 36.7272 11.7358C36.5424 11.5511 36.292 11.4473 36.0309 11.447V11.5662Z" fill="#353535"/>
<path fill-rule="evenodd" clip-rule="evenodd" d="M35.7986 11.9796H36.1142C36.2507 11.9796 36.4047 12 36.4047 12.1734C36.4047 12.3981 36.1646 12.372 36.0097 12.372H35.8025V12.4786H36.0503L36.3659 12.9871H36.5266L36.1926 12.4786C36.3863 12.4727 36.5421 12.3923 36.5421 12.1753C36.5437 12.1282 36.5331 12.0814 36.5112 12.0397C36.4893 11.9979 36.4569 11.9625 36.4173 11.937C36.3344 11.895 36.2417 11.8762 36.1491 11.8828H35.665V12.9813H35.7996V11.9796H35.7986Z" fill="#353535"/>
</svg>
