<svg width="75" height="28" viewBox="0 0 75 28" fill="none" xmlns="http://www.w3.org/2000/svg">
<path fill-rule="evenodd" clip-rule="evenodd" d="M63.4451 5.25982C61.8473 5.29763 60.3146 5.90106 59.1195 6.96288V5.84494H54.0078V27.138H59.1292V20.5505C60.0218 21.3527 62.1052 22.087 63.6387 22.087C67.4298 22.0405 70.4058 19.0625 70.4058 14.1161C70.3807 8.48188 68.3941 5.24432 63.4451 5.25982ZM65.2186 14.0037C65.2186 16.0846 64.0007 18.3689 62.2639 18.3689C60.5271 18.3689 59.1098 17.3285 59.1098 14.769V12.9943C59.1098 10.4349 60.5271 9.04762 62.2697 9.04762C64.0124 9.04762 65.2244 10.4504 65.2244 13.0098L65.2186 14.0037Z" fill="#353535"/>
<path fill-rule="evenodd" clip-rule="evenodd" d="M5.34496 12.5937H0.0609694C-0.519901 19.1192 3.08537 23.0833 9.35489 23.0833C15.121 23.0833 17.9654 20.4561 17.9654 14.7192V0H12.7337V14.6688C12.7046 16.9376 11.2621 18.4857 8.91153 18.35C7.20765 18.2551 5.41079 17.4317 5.34496 14.4169V12.5937Z" fill="#353535"/>
<path fill-rule="evenodd" clip-rule="evenodd" d="M44.3828 5.3418C39.9508 5.3418 36.5469 8.82929 36.5469 14.2543C36.5469 19.8226 39.9759 22.8568 44.4138 22.8568C47.6279 22.8568 51.1131 21.5005 52.0677 17.3853H46.8128C46.4159 18.3695 45.6259 18.8442 44.7546 18.8442C43.3024 18.8442 41.8405 17.5945 41.734 15.5853H52.3833C53.1113 9.00173 49.5022 5.3418 44.3828 5.3418ZM41.734 12.2354C41.8812 10.3386 42.9616 9.36016 44.5977 9.36016C45.8911 9.36016 47.0219 10.7164 47.0219 12.2354H41.734Z" fill="#353535"/>
<path fill-rule="evenodd" clip-rule="evenodd" d="M27.4629 5.3418C23.0289 5.3418 19.625 8.82929 19.625 14.2543C19.625 19.8226 23.0541 22.8568 27.4881 22.8568C30.708 22.8568 34.1933 21.5005 35.142 17.3853H29.887C29.4998 18.3695 28.7002 18.8442 27.8289 18.8442C26.3825 18.8442 24.9245 17.5945 24.8122 15.5853H35.4615C36.1856 9.00173 32.5842 5.3418 27.4629 5.3418ZM24.8122 12.2354C24.9613 10.3386 26.0359 9.36016 27.672 9.36016C28.9654 9.36016 30.102 10.7164 30.102 12.2354H24.8122Z" fill="#353535"/>
<path fill-rule="evenodd" clip-rule="evenodd" d="M72.0648 23.1328C72.4099 23.1329 72.7473 23.2354 73.0341 23.4275C73.3209 23.6197 73.5443 23.8927 73.6758 24.212C73.8073 24.5313 73.8412 24.8825 73.773 25.2211C73.7048 25.5596 73.5377 25.8703 73.2928 26.1137C73.0479 26.3571 72.7363 26.5223 72.3975 26.5882C72.0587 26.6542 71.708 26.618 71.3898 26.4842C71.0716 26.3505 70.8002 26.1252 70.6102 25.8369C70.4201 25.5486 70.3198 25.2103 70.3221 24.865C70.3224 24.6366 70.3677 24.4105 70.4555 24.1997C70.5434 23.9889 70.6719 23.7976 70.8338 23.6366C70.9957 23.4757 71.1878 23.3483 71.3991 23.2619C71.6103 23.1754 71.8365 23.1316 72.0648 23.1328V22.8945C71.6737 22.8938 71.2913 23.0092 70.9659 23.2261C70.6405 23.4431 70.3867 23.7518 70.2368 24.1132C70.0869 24.4745 70.0476 24.8723 70.1238 25.2561C70.2001 25.6399 70.3884 25.9923 70.6651 26.2689C70.9417 26.5454 71.2942 26.7336 71.6777 26.8095C72.0613 26.8854 72.4588 26.8456 72.8198 26.6953C73.1808 26.5449 73.4891 26.2907 73.7055 25.9649C73.922 25.6391 74.037 25.2562 74.0358 24.865C74.0348 24.3424 73.8267 23.8415 73.4573 23.4721C73.0878 23.1027 72.587 22.895 72.0648 22.8945V23.1328Z" fill="#353535"/>
<path fill-rule="evenodd" clip-rule="evenodd" d="M71.5953 23.96H72.2265C72.4995 23.96 72.8074 24.0007 72.8074 24.3475C72.8074 24.797 72.3272 24.7447 72.0174 24.7447H71.603V24.9578H72.0987L72.7299 25.975H73.0513L72.3833 24.9578C72.7706 24.9462 73.0823 24.7853 73.0823 24.3513C73.0855 24.257 73.0642 24.1635 73.0204 24.08C72.9766 23.9964 72.9119 23.9257 72.8325 23.8747C72.6669 23.7906 72.4815 23.7531 72.2962 23.7662H71.3281V25.9633H71.5973V23.96H71.5953Z" fill="#353535"/>
</svg>
