<svg width="60" height="60" viewBox="0 0 60 60" fill="none" xmlns="http://www.w3.org/2000/svg">
<path d="M30 59.999C46.5685 59.999 60 46.5676 60 29.999C60 13.4305 46.5685 -0.000976562 30 -0.000976562C13.4315 -0.000976562 0 13.4305 0 29.999C0 46.5676 13.4315 59.999 30 59.999Z" fill="#007AB9"/>
<path d="M47.9239 32.4135V44.7818H40.7531V33.2424C40.7531 30.3449 39.7178 28.3663 37.1214 28.3663C35.1401 28.3663 33.963 29.6984 33.4432 30.9883C33.2544 31.4493 33.2058 32.0894 33.2058 32.7359V44.7813H26.0344C26.0344 44.7813 26.1306 25.2373 26.0344 23.2142H33.2063V26.2705C33.1919 26.2945 33.1715 26.3181 33.1587 26.3411H33.2063V26.2705C34.1593 24.8041 35.8588 22.7078 39.6691 22.7078C44.3869 22.7078 47.9239 25.7902 47.9239 32.4135ZM18.5325 12.8181C16.0795 12.8181 14.4746 14.4283 14.4746 16.5439C14.4746 18.6146 16.033 20.2713 18.4384 20.2713H18.4849C20.9861 20.2713 22.5412 18.6146 22.5412 16.5439C22.4936 14.4283 20.9861 12.8181 18.5325 12.8181ZM14.9008 44.7818H22.0695V23.2142H14.9008V44.7818Z" fill="#F1F2F2"/>
</svg>
