<svg width="18" height="18" viewBox="0 0 18 18" fill="none" xmlns="http://www.w3.org/2000/svg">
<path d="M17.9959 17.9999V17.9992H18.0004V11.3977C18.0004 8.16817 17.3052 5.68042 13.5297 5.68042C11.7147 5.68042 10.4967 6.67642 9.99944 7.62067H9.94694V5.98192H6.36719V17.9992H10.0947V12.0487C10.0947 10.4819 10.3917 8.96692 12.3319 8.96692C14.2437 8.96692 14.2722 10.7549 14.2722 12.1492V17.9999H17.9959Z" fill="black"/>
<path d="M0.296875 5.98273H4.02888V18H0.296875V5.98273Z" fill="black"/>
<path d="M2.1615 0C0.96825 0 0 0.96825 0 2.1615C0 3.35475 0.96825 4.34325 2.1615 4.34325C3.35475 4.34325 4.323 3.35475 4.323 2.1615C4.32225 0.96825 3.354 0 2.1615 0V0Z" fill="black"/>
</svg>
