<svg width="16" height="17" viewBox="0 0 16 17" fill="none" xmlns="http://www.w3.org/2000/svg">
<path d="M10.3333 9.83333H9.80667L9.62 9.65333C10.2733 8.89333 10.6667 7.90667 10.6667 6.83333C10.6667 4.44 8.72667 2.5 6.33333 2.5C3.94 2.5 2 4.44 2 6.83333C2 9.22667 3.94 11.1667 6.33333 11.1667C7.40667 11.1667 8.39333 10.7733 9.15333 10.12L9.33333 10.3067V10.8333L12.6667 14.16L13.66 13.1667L10.3333 9.83333ZM6.33333 9.83333C4.67333 9.83333 3.33333 8.49333 3.33333 6.83333C3.33333 5.17333 4.67333 3.83333 6.33333 3.83333C7.99333 3.83333 9.33333 5.17333 9.33333 6.83333C9.33333 8.49333 7.99333 9.83333 6.33333 9.83333Z" fill="#575757"/>
</svg>
