<svg width="65" height="54" viewBox="0 0 65 54" fill="none" xmlns="http://www.w3.org/2000/svg">
<path d="M37.587 29.1533C37.4723 29.1655 37.3569 29.1701 37.2416 29.167H30.6401V30.7026H37.3574C37.4084 30.7026 37.8048 30.7026 37.8814 30.6908C39.2551 30.5612 39.8791 29.4223 39.8791 28.4228C39.8791 27.4233 39.2256 26.2981 37.9854 26.1822C37.8067 26.1642 37.6272 26.1557 37.4477 26.1567H33.0578C32.8947 26.1619 32.7315 26.1494 32.5711 26.1194C32.4298 26.0803 32.306 25.9943 32.22 25.8754C32.134 25.7566 32.0911 25.612 32.0982 25.4655C32.0967 25.3198 32.1438 25.1779 32.2319 25.062C32.32 24.9461 32.4442 24.8628 32.5848 24.8253C32.7356 24.7927 32.8899 24.7795 33.044 24.786H39.3787V23.276H32.9459C32.732 23.2725 32.5182 23.2849 32.3062 23.3133C31.7829 23.3783 31.3023 23.6351 30.9572 24.034C30.6121 24.433 30.4271 24.9458 30.4379 25.4733C30.4379 26.3963 31.0149 27.4724 32.2807 27.651C32.5122 27.6766 32.8321 27.6766 32.9714 27.6766H37.2456C37.3485 27.6733 37.4514 27.6779 37.5536 27.6903C37.738 27.7034 37.9097 27.7887 38.0317 27.9276C38.1536 28.0666 38.216 28.248 38.2052 28.4326C38.2082 28.6076 38.1469 28.7777 38.033 28.9105C37.919 29.0433 37.7604 29.1297 37.587 29.1533Z" fill="#353535"/>
<path d="M25.0694 29.1533C24.9587 29.1653 24.8472 29.1699 24.7358 29.167H18.1205V30.7026H24.8398C24.8908 30.7026 25.2873 30.7026 25.3638 30.6909C26.7375 30.5613 27.3596 29.4223 27.3596 28.4228C27.3596 27.4233 26.708 26.2981 25.4658 26.1822C25.2872 26.1642 25.1077 26.1557 24.9281 26.1567H20.5382C20.3758 26.1619 20.2133 26.1494 20.0535 26.1194C19.912 26.0804 19.788 25.9944 19.7017 25.8756C19.6154 25.7568 19.572 25.6122 19.5786 25.4655C19.5775 25.3199 19.6247 25.1781 19.7128 25.0623C19.8009 24.9465 19.9248 24.8631 20.0653 24.8253C20.2167 24.7927 20.3717 24.7795 20.5265 24.7861H26.8591V23.276H20.4224C20.2086 23.2724 19.9947 23.2849 19.7827 23.3133C19.2594 23.3783 18.7788 23.6351 18.4338 24.0341C18.0887 24.433 17.9037 24.9458 17.9145 25.4733C17.9145 26.3963 18.4895 27.4724 19.7572 27.6511C19.9868 27.6766 20.3067 27.6766 20.448 27.6766H24.7221C24.8243 27.6734 24.9267 27.678 25.0282 27.6903C25.2053 27.7094 25.3695 27.7921 25.4903 27.9231C25.6111 28.0541 25.6804 28.2245 25.6851 28.4027C25.6899 28.5809 25.63 28.7548 25.5164 28.8921C25.4028 29.0294 25.2433 29.1208 25.0675 29.1494L25.0694 29.1533Z" fill="#353535"/>
<path d="M14.6798 23.2285H13.0156V30.7455H14.6798V23.2285Z" fill="#353535"/>
<path d="M9.34302 30.7455V23.2285H7.6789V28.8368L2.13706 23.2285H0V30.7455H1.66412V25.1097L7.24325 30.7455H9.34302Z" fill="#353535"/>
<path d="M62.843 23.2285V28.8368L57.3011 23.2285H55.1641V30.7455H56.8282V25.1097L62.3955 30.7455H64.4933V23.2285H62.843Z" fill="#353535"/>
<path d="M46.5046 23.2285L41.8203 30.7455H43.8416L44.6737 29.4004H50.1389L50.969 30.7455H52.9785L48.2962 23.2285H46.5046ZM49.2814 27.9747H45.5312L47.4132 24.9526L49.2814 27.9747Z" fill="#353535"/>
<path d="M9.24965 18.9633C10.8996 14.1737 14.0047 10.02 18.1304 7.08348C22.2561 4.14697 27.196 2.57453 32.2589 2.58617C42.6753 2.58617 51.9261 9.16844 55.2661 18.9633L55.2936 19.0399H62.6251V18.1562L59.5795 17.7988C57.6975 17.5809 57.3011 16.7483 56.789 15.6977L56.6614 15.4424C52.2597 6.06974 42.6753 0 32.2589 0C21.8424 0 12.2561 6.06974 7.85438 15.4679L7.72682 15.7232C7.21463 16.7738 6.81823 17.6064 4.93628 17.8243L1.89062 18.1837V19.0654H9.21039L9.24965 18.9633Z" fill="#353535"/>
<path d="M55.2955 34.9473L55.268 35.0239C53.6176 39.8118 50.5123 43.9634 46.3868 46.8976C42.2613 49.8317 37.3222 51.4016 32.2608 51.3873C21.8443 51.3873 12.5916 44.807 9.25155 35.0102L9.22604 34.9336H1.90625V35.8173L4.95191 36.1766C6.8319 36.3926 7.23026 37.2252 7.74048 38.2758L7.87001 38.5311C12.2717 47.9312 21.8561 54.001 32.2725 54.001C42.689 54.001 52.2754 47.9312 56.677 38.5448L56.8046 38.2876C57.3168 37.239 57.7132 36.4064 59.5951 36.1884L62.6408 35.829V34.9473H55.2955Z" fill="#353535"/>
</svg>
