<svg width="33" height="27" viewBox="0 0 33 27" fill="none" xmlns="http://www.w3.org/2000/svg">
<path d="M18.7918 14.5765C18.7344 14.5827 18.6768 14.585 18.6191 14.5834H15.3183V15.3512H18.677C18.7025 15.3512 18.9007 15.3512 18.939 15.3453C19.6258 15.2805 19.9378 14.7111 19.9378 14.2113C19.9378 13.7115 19.6111 13.1489 18.991 13.091C18.9017 13.082 18.8119 13.0777 18.7221 13.0783H16.5272C16.4456 13.0809 16.364 13.0746 16.2838 13.0596C16.2132 13.0401 16.1513 12.997 16.1083 12.9376C16.0653 12.8782 16.0438 12.8059 16.0474 12.7326C16.0467 12.6598 16.0702 12.5888 16.1142 12.5309C16.1583 12.4729 16.2204 12.4313 16.2907 12.4126C16.3661 12.3963 16.4432 12.3897 16.5203 12.3929H19.6876V11.6379H16.4712C16.3643 11.6361 16.2574 11.6424 16.1514 11.6565C15.8897 11.689 15.6494 11.8174 15.4769 12.0169C15.3044 12.2164 15.2119 12.4728 15.2173 12.7366C15.2173 13.198 15.5057 13.7361 16.1386 13.8254C16.2544 13.8382 16.4143 13.8382 16.484 13.8382H18.6211C18.6725 13.8366 18.724 13.8389 18.7751 13.8451C18.8673 13.8516 18.9531 13.8943 19.0141 13.9637C19.0751 14.0332 19.1063 14.1239 19.1009 14.2162C19.1024 14.3037 19.0718 14.3887 19.0148 14.4552C18.9578 14.5216 18.8785 14.5648 18.7918 14.5765Z" fill="#353535"/>
<path d="M12.535 14.5766C12.4796 14.5825 12.4239 14.5848 12.3682 14.5834H9.06052V15.3512H12.4202C12.4457 15.3512 12.6439 15.3512 12.6821 15.3453C13.369 15.2805 13.68 14.7111 13.68 14.2113C13.68 13.7116 13.3543 13.149 12.7332 13.091C12.6438 13.082 12.5541 13.0777 12.4643 13.0783H10.2694C10.1881 13.0808 10.1069 13.0746 10.027 13.0596C9.95625 13.0401 9.89423 12.9971 9.85109 12.9377C9.80794 12.8783 9.78625 12.806 9.78956 12.7327C9.78902 12.6599 9.81261 12.589 9.85664 12.5311C9.90068 12.4731 9.96266 12.4315 10.0329 12.4126C10.1086 12.3962 10.1861 12.3896 10.2635 12.3929H13.4298V11.6379H10.2115C10.1045 11.6361 9.9976 11.6424 9.89159 11.6566C9.62996 11.6891 9.38966 11.8175 9.21713 12.0169C9.04459 12.2164 8.95209 12.4728 8.9575 12.7366C8.9575 13.198 9.24499 13.7361 9.87885 13.8254C9.99365 13.8382 10.1536 13.8382 10.2242 13.8382H12.3613C12.4124 13.8366 12.4636 13.8389 12.5144 13.8451C12.6029 13.8546 12.685 13.896 12.7454 13.9615C12.8058 14.027 12.8404 14.1122 12.8428 14.2013C12.8452 14.2903 12.8152 14.3773 12.7584 14.4459C12.7016 14.5146 12.6219 14.5603 12.534 14.5746L12.535 14.5766Z" fill="#353535"/>
<path d="M7.33916 11.6143H6.50708V15.3728H7.33916V11.6143Z" fill="#353535"/>
<path d="M4.67151 15.3728V11.6143H3.83945V14.4185L1.06853 11.6143H0V15.3728H0.832059V12.555L3.62163 15.3728H4.67151Z" fill="#353535"/>
<path d="M31.4232 11.6143V14.4185L28.6523 11.6143H27.5837V15.3728H28.4158V12.555L31.1995 15.3728H32.2484V11.6143H31.4232Z" fill="#353535"/>
<path d="M23.2528 11.6143L20.9106 15.3728H21.9213L22.3373 14.7003H25.07L25.485 15.3728H26.4898L24.1486 11.6143H23.2528ZM24.6412 13.9875H22.7661L23.7071 12.4764L24.6412 13.9875Z" fill="#353535"/>
<path d="M4.62629 9.48164C5.45128 7.08683 7.00381 5.01 9.06665 3.54174C11.1295 2.07348 13.5994 1.28726 16.1309 1.29309C21.3391 1.29309 25.9645 4.58422 27.6345 9.48164L27.6483 9.51993H31.314V9.07811L29.7912 8.89941C28.8502 8.79043 28.652 8.37413 28.3959 7.84884L28.3322 7.7212C26.1313 3.03487 21.3391 0 16.1309 0C10.9227 0 6.12949 3.03487 3.92866 7.73396L3.86488 7.8616C3.60878 8.38689 3.41058 8.80319 2.46961 8.91217L0.946777 9.09185V9.5327H4.60666L4.62629 9.48164Z" fill="#353535"/>
<path d="M27.6482 17.4732L27.6345 17.5115C26.8093 19.9054 25.2566 21.9812 23.1939 23.4483C21.1311 24.9154 18.6616 25.7003 16.1309 25.6932C10.9226 25.6932 6.29627 22.403 4.62626 17.5046L4.61351 17.4663H0.953613V17.9081L2.47644 18.0878C3.41644 18.1958 3.61562 18.6121 3.87073 19.1374L3.93549 19.265C6.13633 23.9651 10.9285 27 16.1368 27C21.345 27 26.1382 23.9651 28.339 19.2719L28.4028 19.1433C28.6589 18.619 28.8571 18.2027 29.7981 18.0937L31.3209 17.914V17.4732H27.6482Z" fill="#353535"/>
</svg>
