<svg width="52" height="57" viewBox="0 0 52 57" fill="none" xmlns="http://www.w3.org/2000/svg">
<path d="M25.1382 56.3268C17.7805 52.9052 11.3909 47.3 7.15633 40.542C2.92177 33.7841 0.683492 25.9295 0.1336 15.8138C-0.0445335 12.5414 -0.0445335 8.4513 0.1336 3.30918L0.170389 2.22612L1.24112 2.04787C17.4314 -0.682625 33.9641 -0.682625 50.1544 2.04787L51.2231 2.22612L51.2619 3.30918C51.4381 8.4513 51.4381 12.5414 51.2619 15.8138C50.712 25.9295 48.4795 33.7879 44.2372 40.542C39.9949 47.2962 33.6092 52.9052 26.2573 56.3268L25.6977 56.5864L25.1382 56.3268Z" fill="#353535"/>
<path d="M14.3275 34.2263C14.2999 34.2372 14.2701 34.2416 14.2404 34.2391C14.2108 34.2366 14.1821 34.2273 14.1567 34.212C14.1312 34.1966 14.1096 34.1756 14.0936 34.1505C14.0775 34.1255 14.0675 34.097 14.0642 34.0675C14.0022 33.7807 13.8396 32.7965 13.7893 32.5078C13.7786 32.4778 13.7746 32.4459 13.7773 32.4142C13.78 32.3825 13.7895 32.3518 13.8051 32.3241C13.8207 32.2964 13.842 32.2723 13.8677 32.2535C13.8933 32.2347 13.9227 32.2217 13.9538 32.2152C14.6548 31.9885 15.8339 31.5894 16.7846 31.2465C16.8844 31.2143 16.9764 31.1619 17.055 31.0926C17.1337 31.0232 17.1972 30.9384 17.2416 30.8435C17.6288 30.2099 18.6144 28.4855 19.0752 27.5923C19.1074 27.5299 19.1231 27.4603 19.1207 27.39C19.1183 27.3198 19.098 27.2514 19.0617 27.1913L18.8525 26.8425C18.7597 26.7065 18.623 26.6067 18.4653 26.5597C17.4972 26.3136 16.2231 25.9997 15.6209 25.8544C15.4865 25.8226 15.346 25.828 15.2143 25.8699L15.104 25.9048C16.0295 26.2206 16.8175 26.5035 17.8147 26.8735C17.8623 26.8945 17.9052 26.9249 17.9408 26.9629C17.9764 27.0008 18.0039 27.0456 18.0219 27.0944L18.1129 27.3947C18.1497 27.5171 18.1379 27.649 18.08 27.7628C17.5848 28.6969 17.0013 29.5812 16.3374 30.4037C16.2494 30.5099 16.1353 30.5914 16.0063 30.64C15.4389 30.8532 14.4069 31.1942 13.9577 31.3104C13.9226 31.3224 13.885 31.325 13.8487 31.3178C13.8123 31.3107 13.7784 31.2941 13.7505 31.2697C13.4233 31.0411 12.7476 30.4075 12.7476 30.4075C12.7476 30.4075 12.6914 31.0973 12.6875 31.4053C12.687 31.4393 12.6936 31.4729 12.7069 31.5042C12.8231 31.7754 13.0264 32.2908 13.1096 32.5523C13.1329 32.6201 13.1503 32.6802 13.1677 32.7461C13.28 33.1995 13.5937 34.5325 13.5937 34.5325C13.6402 34.7262 13.7525 34.8037 13.9306 34.765C14.161 34.7146 14.8987 34.5092 15.195 34.4085C15.2408 34.3935 15.283 34.369 15.3189 34.3368L15.8378 33.8582C15.8378 33.8582 14.7361 34.1488 14.3275 34.2263Z" fill="white"/>
<path d="M15.9864 30.1354C16.4559 29.5441 16.8854 28.922 17.2721 28.2734L14.2031 30.8058C14.7065 30.6508 15.3881 30.4183 15.7986 30.2671C15.8715 30.2401 15.9362 30.1947 15.9864 30.1354Z" fill="white"/>
<path d="M16.0568 19.9343L15.5089 19.9808C15.4874 19.9822 15.4673 19.9915 15.4523 20.0069C15.4373 20.0222 15.4285 20.0426 15.4276 20.0641L15.3753 20.7151C15.3744 20.7231 15.3755 20.7313 15.3785 20.7388C15.3814 20.7463 15.3861 20.753 15.3922 20.7583C15.3983 20.7636 15.4055 20.7674 15.4134 20.7693C15.4212 20.7713 15.4294 20.7713 15.4372 20.7694L15.991 20.6454C16.0283 20.6359 16.0632 20.6186 16.0933 20.5945C16.1233 20.5705 16.1479 20.5402 16.1653 20.5059C16.2018 20.4283 16.222 20.3442 16.2247 20.2585C16.2273 20.1728 16.2124 20.0876 16.1808 20.0079C16.1708 19.9839 16.1534 19.9637 16.1311 19.9504C16.1087 19.9372 16.0827 19.9315 16.0568 19.9343Z" fill="white"/>
<path d="M10.7109 28.0939L11.5435 29.0723L11.7875 27.3828C11.5659 27.4119 11.3538 27.491 11.1673 27.6142C10.9808 27.7374 10.8247 27.9014 10.7109 28.0939Z" fill="white"/>
<path d="M37.8887 27.9151C37.5479 27.3106 35.8557 25.0205 33.7394 22.8098C33.6627 22.7279 33.5706 22.6621 33.4683 22.6161L33.1314 22.4766C33.1314 22.4766 33.7471 25.1697 34.024 26.6441C34.0598 26.8312 34.1509 27.0033 34.2854 27.1382C35.0629 27.8791 35.7641 28.6963 36.3785 29.5775C36.6054 29.9137 36.739 30.3042 36.7657 30.709C36.909 32.8402 36.8412 35.7891 36.6031 37.4282C36.5975 37.552 36.5633 37.6727 36.5032 37.781C36.443 37.8892 36.3586 37.982 36.2565 38.0521C34.2079 39.7106 30.8195 42.6285 29.3654 44.0583C29.2502 44.1662 29.1487 44.2879 29.0633 44.4206C28.9209 44.6521 28.7916 44.8915 28.6761 45.1375C28.4997 44.6016 28.3587 44.0547 28.254 43.5003C28.2172 43.2953 28.2172 43.0854 28.254 42.8803C28.4302 41.6442 29.2938 38.7903 29.4351 38.364C29.4483 38.3274 29.4548 38.2887 29.4545 38.2497V37.9765C29.1408 38.6314 27.5337 42.2507 27.1929 43.4965C27.1232 43.6766 27.1232 43.8763 27.1929 44.0564C27.402 44.657 28.01 46.1431 28.2888 46.7515C28.2888 46.7515 28.9491 45.5115 29.3325 44.8876C29.4392 44.7135 29.5695 44.5551 29.7197 44.4168C30.8621 43.3589 34.9747 39.9237 36.8954 38.4783C37.0001 38.4108 37.0901 38.3227 37.16 38.2195C37.2298 38.1163 37.2782 38.0001 37.3021 37.8777C38.1261 34.7465 38.3708 31.4909 38.0243 28.2716C38.0029 28.145 37.9568 28.0239 37.8887 27.9151Z" fill="white"/>
<path d="M29.4647 19.2274C29.5431 19.0908 29.5719 18.9313 29.5461 18.7759C29.4822 18.4039 29.3853 17.9641 29.306 17.6328C29.2991 17.602 29.2851 17.5733 29.2653 17.5487C29.2455 17.5242 29.2203 17.5046 29.1917 17.4914L28.6109 17.2143C28.5351 17.1777 28.4499 17.1655 28.3669 17.1794C26.9689 17.4274 25.4974 17.718 24.384 17.9719C24.339 17.9816 24.2966 18.0008 24.2595 18.0282C24.2225 18.0556 24.1917 18.0905 24.1691 18.1307L23.8225 18.7294C23.8165 18.7402 23.8131 18.7523 23.8126 18.7647C23.812 18.7771 23.8144 18.7894 23.8195 18.8007C23.8246 18.812 23.8322 18.8219 23.8418 18.8297C23.8514 18.8376 23.8627 18.843 23.8748 18.8457C24.1672 18.8999 24.7616 19.0065 24.9649 19.0394C25.0559 19.0611 25.1516 19.0508 25.236 19.0104C25.9408 18.7178 27.0928 18.2702 27.9467 17.9602C28.0143 17.936 28.0883 17.936 28.1558 17.9602L28.5431 18.0862C28.6009 18.1039 28.6495 18.1435 28.6786 18.1966C28.7871 18.3904 28.8994 18.5841 28.9652 18.7314C28.9864 18.7894 28.9921 18.8519 28.9815 18.9128C28.971 18.9737 28.9447 19.0307 28.9052 19.0782C28.6147 19.4986 28.1171 20.1632 27.7744 20.5778C27.7375 20.6228 27.7123 20.6762 27.7008 20.7333C27.6893 20.7904 27.692 20.8494 27.7086 20.9052C27.9022 21.5989 28.3437 23.0248 28.5779 23.7068C28.6034 23.787 28.6502 23.8587 28.7135 23.9142L29.0407 24.2125C29.0407 24.2125 28.5199 21.8004 28.3959 21.1125C28.3835 21.0604 28.3816 21.0063 28.3902 20.9535C28.3989 20.9006 28.4179 20.8499 28.4463 20.8045C28.7328 20.3937 29.2246 19.6439 29.4647 19.2274Z" fill="white"/>
<path d="M41.9543 21.2104C41.9412 21.1338 41.912 21.0608 41.8687 20.9964C41.8253 20.9319 41.7687 20.8774 41.7026 20.8365C40.1381 19.674 37.3229 18.0174 35.648 17.3141C35.4328 17.2239 35.1914 17.2184 34.9723 17.2986C34.1726 17.5912 32.8966 18.1298 31.5703 18.7537C31.5703 18.7537 32.1512 18.7963 32.4339 18.8292C32.5459 18.8481 32.6609 18.8394 32.7689 18.8041C33.1755 18.6936 33.8996 18.5154 34.4688 18.3856C34.6058 18.3551 34.7477 18.3544 34.885 18.3835C35.0223 18.4126 35.1518 18.4707 35.2647 18.5541C36.0391 19.1354 37.2977 20.1467 38.1012 20.821C38.2408 20.9383 38.3984 21.0325 38.5678 21.1C39.7896 21.5921 40.3279 21.8362 40.6009 21.9777C40.6964 22.0259 40.7804 22.0941 40.8472 22.1777C40.914 22.2612 40.9621 22.3582 40.9881 22.462C41.3057 23.6904 41.5187 25.562 41.629 26.928C41.6494 27.1794 41.6164 27.4323 41.5322 27.67C41.0674 28.8367 40.5059 29.9624 39.8535 31.0355C39.8073 31.1093 39.7491 31.1748 39.6812 31.2292C39.5127 31.3745 39.2126 31.6167 38.9957 31.7853C38.9744 31.8013 38.957 31.8221 38.9449 31.8459C38.9328 31.8698 38.9263 31.8961 38.926 31.9228C38.926 32.4498 38.8196 33.4728 38.8196 33.4728C39.9949 32.0003 41.1101 30.09 42.1015 28.0614C42.1721 27.9326 42.2162 27.791 42.2312 27.6448C42.4616 25.4652 42.3222 22.8805 41.9543 21.2104Z" fill="white"/>
<path d="M26.3674 47.5509C26.0905 46.9289 24.6539 43.5267 24.2647 42.2247C24.1343 41.8719 24.0989 41.4911 24.1621 41.1203C24.4893 37.9196 25.6394 32.8278 25.8195 32.1303C25.8525 32.0197 25.8525 31.9019 25.8195 31.7913C25.773 31.5278 25.6258 30.6133 25.6258 30.6133C25.105 31.8184 23.2559 36.7939 22.5724 39.7195C22.4446 40.2717 22.4659 40.4189 22.5724 40.7193C23.556 43.2671 26.0576 47.8706 26.5184 48.5661L26.4158 47.764C26.4092 47.6911 26.393 47.6194 26.3674 47.5509Z" fill="white"/>
<path d="M24.1358 47.7501C24.1358 47.7501 23.5898 47.3975 23.4233 47.2851C23.3103 47.2157 23.2046 47.1352 23.1076 47.0449C21.9691 46.0141 17.9747 41.1026 16.7781 38.9694C16.5979 38.7096 16.513 38.3953 16.538 38.0801C16.5612 37.6693 16.6406 36.8749 16.7219 36.408C16.7476 36.1347 16.8781 35.8819 17.0859 35.7028C17.7636 35.0866 18.8595 33.9842 19.4327 33.401C19.638 33.2077 19.81 32.9819 19.9419 32.7326C20.4685 31.7483 22.0718 28.2589 22.612 26.8232C22.6967 26.6418 22.7192 26.4375 22.6759 26.242C22.5732 25.4902 21.9749 23.5508 21.9749 23.5508L21.9227 24.1998C21.9169 24.2442 21.9169 24.2892 21.9227 24.3335C22.0411 24.9827 22.1161 25.639 22.1473 26.2981C22.1568 26.4659 22.1156 26.6327 22.0292 26.7767C21.2237 28.3635 18.0773 32.5892 16.0869 34.8871C15.9008 35.0867 15.7794 35.3379 15.7383 35.6078C15.6357 36.0903 15.5195 37.1946 15.444 38.0723C15.4034 38.5451 15.4343 38.7059 15.7345 39.2038C16.9349 41.1994 21.0185 45.985 22.3486 47.0855C22.4362 47.1593 22.5309 47.2242 22.6313 47.2793C23.0999 47.5312 24.3739 48.1667 24.3739 48.1667L24.1803 47.8179C24.1698 47.7928 24.1547 47.7698 24.1358 47.7501Z" fill="white"/>
<path d="M18.2094 19.2782L20.7459 18.4838C20.8955 18.4385 21.0213 18.3362 21.0963 18.199L22.4517 15.874C22.4588 15.8613 22.4625 15.8469 22.4623 15.8322C22.4621 15.8176 22.4581 15.8033 22.4506 15.7908C22.4432 15.7782 22.4326 15.7678 22.4198 15.7607C22.4071 15.7535 22.3927 15.7498 22.3781 15.75L21.2164 15.7674C21.1073 15.7694 20.999 15.787 20.895 15.8198C19.7822 16.212 18.6974 16.6793 17.6479 17.2186C17.5542 17.27 17.4719 17.3399 17.4059 17.424L16.1861 18.9275C16.1459 18.9775 16.0941 19.0168 16.035 19.0418L15.247 19.3751C15.2095 19.3917 15.1792 19.4212 15.1618 19.4584L15.125 19.5378C15.125 19.5378 16.796 19.4855 17.3594 19.4429C17.6481 19.4209 17.9334 19.3656 18.2094 19.2782Z" fill="white"/>
<path d="M22.8554 13.7827C26.0502 13.5424 29.7213 13.6102 30.612 13.6315C30.7438 13.634 30.8745 13.6568 30.9993 13.6993L31.6518 13.9163C30.0486 14.0016 26.1761 14.3465 24.6077 14.6158L25.1596 14.703C25.1989 14.7068 25.2384 14.7068 25.2777 14.703C26.4394 14.6313 28.7087 14.5577 29.7039 14.5441C29.9157 14.5335 30.1271 14.572 30.3216 14.6565C30.9025 14.8793 32.0642 15.4063 32.5483 15.6504C32.758 15.7655 32.9926 15.828 33.2318 15.8325C33.7526 15.8538 34.5503 15.9081 35.1389 15.972C35.2991 15.9877 35.4548 16.0338 35.5978 16.1077C36.854 16.7522 38.0726 17.4676 39.2476 18.2505C39.3062 18.2896 39.3721 18.3167 39.4413 18.33L39.9311 18.4268C39.9311 18.4268 38.357 16.8245 37.7393 16.2743C37.6498 16.1964 37.5532 16.127 37.4508 16.067C35.1118 14.7282 32.9975 13.6373 31.8222 13.1394C31.6327 13.0584 31.4312 13.0093 31.2258 12.9941C27.8279 12.7449 24.4158 12.7578 21.0199 13.0328C20.9302 13.0385 20.8428 13.0641 20.7641 13.1077C20.6854 13.1512 20.6174 13.2117 20.5649 13.2847C20.4564 13.4455 20.2783 13.7303 20.1137 13.9958C20.0353 14.1251 19.9374 14.2414 19.8233 14.3407C19.3179 14.7843 18.4679 15.5032 17.9335 15.9023C17.8871 15.9372 17.8638 15.9565 17.827 15.9817C17.6044 16.1348 16.8589 16.625 16.7253 16.7122C16.6861 16.7356 16.6519 16.7665 16.6246 16.8032L16.3594 17.1462C18.588 15.8926 21.4265 14.3193 22.3985 13.8912C22.5435 13.8291 22.698 13.7924 22.8554 13.7827Z" fill="white"/>
<path d="M12.4524 20.8563C12.4244 20.8927 12.3911 20.9247 12.3537 20.9512C10.371 22.3675 9.2557 23.2762 8.81811 23.6385C8.63998 23.8148 8.4696 23.9853 8.31276 24.1481C8.15593 24.3108 8.14044 24.3418 8.13076 24.4619C8.12108 24.5821 8.1172 24.6906 8.1172 24.7642C8.11673 24.8035 8.1282 24.842 8.15011 24.8746C8.17916 24.9172 8.34374 25.0955 8.37279 25.1323C8.3813 25.1399 8.39233 25.1442 8.40376 25.1442C8.41519 25.1442 8.42623 25.1399 8.43475 25.1323C8.72905 24.9269 9.14146 24.6208 9.51515 24.336C9.55485 24.3026 9.59001 24.2642 9.61972 24.2217C9.68361 24.1132 9.76687 23.9563 9.81334 23.8574C9.8383 23.7984 9.88365 23.7502 9.94112 23.7218L10.2412 23.5281C10.167 23.8459 10.07 24.158 9.9508 24.4619C9.92192 24.5246 9.8841 24.5826 9.83851 24.6344C9.54614 24.9405 9.01754 25.5314 8.75228 25.8569C8.71572 25.9088 8.69724 25.9712 8.69969 26.0346C8.70214 26.098 8.72538 26.1588 8.76583 26.2076C9.08953 26.6666 9.44267 27.1041 9.82302 27.5174C9.88627 27.5943 9.96223 27.6599 10.0476 27.7111C10.1166 27.7515 10.1892 27.7852 10.2645 27.8119C10.2645 27.8119 10.5181 26.5951 10.6246 26.2173C10.6406 26.1506 10.675 26.0897 10.724 26.0418C10.773 25.9938 10.8345 25.9606 10.9015 25.9461C12.2026 25.6244 15.0121 25.1575 15.0121 25.1575C14.7159 24.8029 13.7284 23.7858 13.4302 23.53C13.3494 23.4562 13.2468 23.4106 13.1378 23.4002C12.7758 23.3576 11.5889 23.2723 11.5889 23.2723L11.7689 23.0786C11.8249 23.016 11.8974 22.9703 11.978 22.9468C13.436 22.4411 15.38 21.7049 16.5166 21.2302C16.7332 21.1501 16.9263 21.0169 17.0781 20.8427C17.1632 20.7536 17.3375 20.5598 17.4363 20.4416C17.4552 20.4218 17.468 20.3969 17.473 20.3699C17.473 20.3331 17.4866 20.2692 17.4866 20.2692C17.4866 20.2692 17.0025 20.6334 16.8109 20.7671C16.6625 20.8794 16.4924 20.9592 16.3113 21.0016C15.9105 21.1062 15.1496 21.2844 14.712 21.3891C14.6168 21.4194 14.514 21.4153 14.4216 21.3774C14.3499 21.3523 14.2124 21.298 14.1311 21.2593C14.0977 21.24 14.0607 21.2278 14.0224 21.2235C13.9841 21.2191 13.9453 21.2227 13.9084 21.2341C13.5115 21.3232 12.4272 21.5906 12.4272 21.5906C12.4272 21.5906 12.9268 21.1449 12.9636 21.1159C13.0084 21.0811 13.0588 21.0543 13.1127 21.0364C13.4883 20.8853 13.951 20.7187 14.3422 20.5598C14.3801 20.5505 14.4139 20.5289 14.4384 20.4985C14.4629 20.468 14.4767 20.4303 14.4777 20.3913C14.5029 20.0909 14.5881 19.5484 14.6403 19.2617C14.6442 19.2266 14.6555 19.1926 14.6736 19.1622C14.6916 19.1318 14.7159 19.1056 14.7449 19.0854C14.9734 18.9052 15.8156 18.2581 16.0151 18.1166L16.0538 18.0798L16.2842 17.8066C15.6859 18.1554 14.6152 18.7909 14.0634 19.1396C13.8604 19.2642 13.6663 19.4028 13.4825 19.5543C13.4564 19.5744 13.4329 19.5979 13.4128 19.624C13.254 19.8061 12.6615 20.5734 12.4524 20.8563Z" fill="white"/>
<path d="M11.5625 9.78227V6.36066C13.0147 6.23149 14.4688 6.12299 15.9248 6.03516V6.59509C14.6573 6.67259 13.3897 6.76495 12.1221 6.87215V7.72271C13.2425 7.62842 14.3642 7.54447 15.4872 7.47084V8.03078C14.3642 8.10182 13.2425 8.18578 12.1221 8.28265V9.17584C13.3884 9.06734 14.656 8.97434 15.9248 8.89684V9.45677C14.4714 9.5459 13.0173 9.6544 11.5625 9.78227Z" fill="white"/>
<path d="M5.625 10.4235V7.00186C6.77513 6.85719 7.92591 6.72415 9.07733 6.60273C9.24314 6.5801 9.41167 6.58732 9.57494 6.62404C9.70683 6.65501 9.82751 6.7221 9.92346 6.81779C10.0095 6.90834 10.0703 7.01992 10.0997 7.14136C10.1259 7.25573 10.1389 7.37275 10.1384 7.49011V7.88923C10.139 8.00798 10.1254 8.12637 10.0977 8.24185C10.0673 8.37214 10.007 8.49355 9.92152 8.59642C9.82513 8.70569 9.70533 8.79178 9.57107 8.84829C9.414 8.91429 9.24723 8.95421 9.07733 8.96648C8.11308 9.05948 7.14818 9.17056 6.18264 9.29973V10.3634L5.625 10.4235ZM6.18264 8.7301C7.20627 8.60094 8.23054 8.48533 9.25546 8.38329C9.34212 8.37263 9.42207 8.33115 9.48072 8.26642C9.53936 8.20168 9.57281 8.11802 9.57494 8.03067V7.43198C9.57581 7.39113 9.56787 7.35057 9.55168 7.31306C9.5355 7.27555 9.51144 7.24196 9.48113 7.21457C9.45083 7.18719 9.41499 7.16665 9.37605 7.15435C9.33711 7.14205 9.29598 7.13828 9.25546 7.14329C8.23054 7.2505 7.20627 7.36675 6.18264 7.49204V8.7301Z" fill="white"/>
<path d="M36.5754 9.53026C36.3952 9.52108 36.2163 9.49514 36.041 9.45276C35.8945 9.41763 35.7571 9.35157 35.6382 9.25901C35.5257 9.16642 35.4434 9.04226 35.402 8.90251C35.3676 8.77624 35.3507 8.64587 35.3517 8.51501V6.9747C35.3501 6.8438 35.367 6.71334 35.402 6.5872C35.4443 6.45269 35.531 6.33655 35.6479 6.25782C35.7683 6.1776 35.9067 6.12835 36.0506 6.11445C36.2284 6.09727 36.4073 6.09727 36.5851 6.11445C37.3428 6.16612 38.0998 6.22359 38.8563 6.28689C39.0368 6.29856 39.2158 6.32776 39.3907 6.37407C39.5384 6.41215 39.6759 6.48226 39.7934 6.57945C39.9057 6.67433 39.9872 6.80043 40.0277 6.94176C40.0646 7.07152 40.0822 7.206 40.08 7.34088V8.86569C40.0823 8.99676 40.0646 9.12742 40.0277 9.25319C39.9886 9.3835 39.9059 9.49638 39.7934 9.57288C39.6723 9.65044 39.534 9.69701 39.3907 9.70851C39.213 9.72586 39.034 9.72586 38.8563 9.70851C38.0921 9.64134 37.3318 9.58192 36.5754 9.53026ZM36.2288 6.64726C36.1878 6.64403 36.1466 6.64937 36.1078 6.66294C36.069 6.67651 36.0334 6.69801 36.0034 6.72607C35.9734 6.75413 35.9495 6.78815 35.9333 6.82595C35.9171 6.86375 35.9089 6.90451 35.9093 6.94563V8.60801C35.9105 8.69427 35.944 8.77693 36.0032 8.8397C36.0623 8.90247 36.1428 8.94078 36.2288 8.94707L36.5095 8.96644H36.5735C37.3273 9.01682 38.0805 9.07301 38.833 9.13501H38.8776L39.1796 9.16019C39.2203 9.16463 39.2614 9.16031 39.3002 9.14753C39.3391 9.13475 39.3747 9.1138 39.4048 9.08609C39.4349 9.05837 39.4587 9.02454 39.4746 8.98686C39.4906 8.94918 39.4983 8.90853 39.4972 8.86763V7.21688C39.4962 7.13011 39.4632 7.04675 39.4046 6.98276C39.3461 6.91877 39.2659 6.87865 39.1796 6.87007C38.2012 6.78741 37.2176 6.71314 36.2288 6.64726Z" fill="white"/>
<path d="M43.1974 10.1211V7.25944C42.5313 7.18581 41.864 7.11606 41.1953 7.05019V6.49219C42.7172 6.63944 44.2365 6.80929 45.7532 7.00175V7.55587C45.0891 7.47062 44.4211 7.39119 43.755 7.31562V10.1831L43.1974 10.1211Z" fill="white"/>
<path d="M29.5234 9.20677V5.78516C30.9795 5.82003 32.4355 5.87428 33.8916 5.94791C33.8916 6.14166 33.8916 6.32184 33.8916 6.50784C32.6227 6.44326 31.3532 6.39353 30.083 6.35865V7.20728C31.2073 7.23828 32.331 7.28155 33.454 7.33709V7.89509C32.331 7.84084 31.2073 7.79821 30.083 7.76721V8.6604C31.3532 8.69527 32.6227 8.74565 33.8916 8.81152C33.8916 8.99752 33.8916 9.18352 33.8916 9.36952C32.4381 9.2959 30.9821 9.24165 29.5234 9.20677Z" fill="white"/>
<path d="M24.6836 9.16206C24.5041 9.16696 24.3245 9.15464 24.1473 9.12525C24.0018 9.10222 23.8638 9.04513 23.7446 8.95863C23.6315 8.87469 23.5487 8.75643 23.5083 8.6215C23.4721 8.49559 23.4544 8.36503 23.4561 8.234V6.71307C23.4457 6.5801 23.4629 6.44641 23.5065 6.32039C23.5502 6.19437 23.6193 6.07872 23.7097 5.9807C23.8782 5.82182 24.1531 5.74432 24.5752 5.74238C25.6543 5.73463 26.7335 5.73786 27.8126 5.75207V6.31201C26.6509 6.29651 25.4943 6.29651 24.3429 6.31201C24.2596 6.31299 24.18 6.34625 24.1208 6.4048C24.0615 6.46334 24.0273 6.5426 24.0253 6.62588V8.28825C24.0253 8.33014 24.0336 8.37162 24.0497 8.4103C24.0658 8.44898 24.0893 8.48409 24.119 8.51362C24.1487 8.54316 24.1839 8.56652 24.2227 8.58237C24.2614 8.59823 24.3029 8.60626 24.3448 8.606H24.6914C25.6285 8.606 26.5657 8.606 27.5028 8.606V7.71669C26.8948 7.71669 26.2875 7.71669 25.6808 7.71669C25.6808 7.52294 25.6808 7.34469 25.6808 7.15676C26.4734 7.15676 27.2659 7.16257 28.0585 7.17419V9.17756C26.9355 9.16077 25.8105 9.15561 24.6836 9.16206Z" fill="white"/>
<path d="M18.6048 9.31332C18.4258 9.32382 18.2462 9.31733 18.0685 9.29395C17.9244 9.27643 17.7865 9.22533 17.6657 9.14476C17.5585 9.06135 17.4805 8.94601 17.4431 8.81538C17.4064 8.68955 17.3888 8.55894 17.3908 8.42789V5.95758L17.9503 5.92852V8.4647C17.95 8.50606 17.9582 8.54706 17.9743 8.58514C17.9905 8.62323 18.0142 8.65759 18.0442 8.6861C18.0741 8.71462 18.1096 8.73668 18.1484 8.75092C18.1872 8.76516 18.2286 8.77127 18.2698 8.76888C19.2225 8.72497 20.1744 8.68945 21.1258 8.66232C21.2111 8.65885 21.2918 8.62274 21.3512 8.56145C21.4107 8.50016 21.4443 8.41836 21.4453 8.33295V5.79677L22.0068 5.7832V8.24964C22.0081 8.38065 21.9905 8.51117 21.9545 8.63714C21.9139 8.77514 21.8313 8.89704 21.7183 8.98588C21.5988 9.07467 21.4613 9.13617 21.3155 9.16607C21.1388 9.20102 20.9593 9.22046 20.7792 9.2242C20.0492 9.25326 19.327 9.28038 18.6048 9.31332Z" fill="white"/>
<path d="M50.138 3.29352C33.9635 0.477682 17.4245 0.477682 1.2499 3.29352C1.12598 6.63182 0.984635 11.7894 1.22279 16.1682C1.75332 25.9273 3.90255 33.503 7.98802 39.9994C12.0735 46.4958 18.3701 52.0642 25.6949 55.3773C33.0197 52.0642 39.328 46.4861 43.3999 39.9994C47.4718 33.5126 49.6365 25.9177 50.1768 16.1682C50.4033 11.7797 50.2619 6.62213 50.138 3.29352ZM49.228 16.1159C48.7071 25.7103 46.6024 33.1445 42.6041 39.5092C38.4977 45.9693 32.6307 51.1196 25.6949 54.3523C18.7586 51.1197 12.8909 45.9695 8.78382 39.5092C4.78742 33.1445 2.68272 25.7103 2.16188 16.1159C1.99149 12.9829 1.99149 9.044 2.16188 4.09176C17.7401 1.46453 33.6479 1.46453 49.2261 4.09176C49.3926 9.03432 49.3926 12.981 49.228 16.1062V16.1159Z" fill="white"/>
</svg>
