<svg width="26" height="28" viewBox="0 0 26 28" fill="#000" xmlns="http://www.w3.org/2000/svg">
<path d="M7.16426 17.1132C7.15042 17.1186 7.13552 17.1208 7.1207 17.1196C7.10588 17.1183 7.09155 17.1137 7.07882 17.106C7.06608 17.0983 7.05529 17.0878 7.04728 17.0753C7.03926 17.0627 7.03424 17.0485 7.03259 17.0337C7.00161 16.8904 6.92029 16.3982 6.89511 16.2539C6.88981 16.2389 6.88777 16.2229 6.88913 16.2071C6.8905 16.1913 6.89524 16.1759 6.90304 16.162C6.91083 16.1482 6.92151 16.1361 6.93433 16.1268C6.94716 16.1174 6.96185 16.1108 6.97741 16.1076C7.32787 15.9943 7.91745 15.7947 8.3928 15.6232C8.44267 15.6072 8.4887 15.581 8.52801 15.5463C8.56732 15.5116 8.59907 15.4692 8.62128 15.4217C8.8149 15.105 9.30767 14.2428 9.53809 13.7962C9.55419 13.765 9.56203 13.7301 9.56084 13.695C9.55965 13.6599 9.54949 13.6257 9.53131 13.5956L9.42675 13.4213C9.38036 13.3533 9.31199 13.3033 9.23313 13.2798C8.74907 13.1568 8.11205 12.9999 7.81096 12.9272C7.74374 12.9113 7.67347 12.914 7.60765 12.935L7.55247 12.9524C8.01523 13.1103 8.40926 13.2517 8.90784 13.4368C8.93164 13.4473 8.95307 13.4625 8.97087 13.4814C8.98867 13.5004 9.00246 13.5228 9.01143 13.5472L9.05693 13.6974C9.07535 13.7585 9.06945 13.8245 9.04048 13.8814C8.79291 14.3484 8.50113 14.7906 8.16917 15.2018C8.12521 15.255 8.06814 15.2957 8.00362 15.32C7.71996 15.4266 7.20394 15.5971 6.97934 15.6552C6.96181 15.6612 6.94301 15.6625 6.92482 15.6589C6.90664 15.6554 6.88971 15.6471 6.87575 15.6349C6.71214 15.5205 6.37426 15.2038 6.37426 15.2038C6.37426 15.2038 6.34619 15.5486 6.34425 15.7027C6.34399 15.7196 6.34729 15.7365 6.35394 15.7521C6.41203 15.8877 6.51367 16.1454 6.5553 16.2762C6.56692 16.3101 6.57564 16.3401 6.58435 16.373C6.6405 16.5997 6.79733 17.2662 6.79733 17.2662C6.82057 17.3631 6.87672 17.4019 6.96579 17.3825C7.081 17.3573 7.44985 17.2546 7.59797 17.2042C7.62089 17.1967 7.642 17.1845 7.65993 17.1684L7.91939 16.9291C7.91939 16.9291 7.36853 17.0744 7.16426 17.1132Z" fill="black"/>
<path d="M7.99564 15.0682C8.23039 14.7725 8.44515 14.4615 8.63847 14.1372L7.104 15.4034C7.35571 15.3259 7.69649 15.2096 7.90173 15.1341C7.93818 15.1206 7.97053 15.0979 7.99564 15.0682Z" fill="black"/>
<path d="M8.03135 9.96666L7.75737 9.98991C7.74665 9.99062 7.73657 9.99526 7.72907 10.0029C7.72156 10.0106 7.71716 10.0208 7.71671 10.0316L7.69057 10.3571C7.69015 10.3611 7.69069 10.3651 7.69216 10.3689C7.69363 10.3727 7.69599 10.376 7.69903 10.3787C7.70206 10.3813 7.70569 10.3832 7.70961 10.3842C7.71353 10.3851 7.71763 10.3851 7.72155 10.3842L7.99843 10.3222C8.0171 10.3175 8.03453 10.3088 8.04956 10.2968C8.06459 10.2847 8.07687 10.2696 8.08556 10.2524C8.10382 10.2137 8.11393 10.1716 8.11526 10.1288C8.11659 10.0859 8.10912 10.0433 8.09331 10.0035C8.08835 9.99145 8.07963 9.98136 8.06846 9.97473C8.05729 9.96809 8.04426 9.96526 8.03135 9.96666Z" fill="black"/>
<path d="M5.3584 14.0469L5.77469 14.5362L5.89668 13.6914C5.78589 13.7059 5.67985 13.7455 5.58659 13.8071C5.49334 13.8687 5.4153 13.9507 5.3584 14.0469Z" fill="black"/>
<path d="M18.9444 13.9571C18.774 13.6548 17.9278 12.5098 16.8697 11.4044C16.8314 11.3635 16.7853 11.3306 16.7341 11.3075L16.5657 11.2378C16.5657 11.2378 16.8736 12.5844 17.012 13.3216C17.0299 13.4151 17.0754 13.5012 17.1427 13.5686C17.5315 13.9391 17.8821 14.3477 18.1892 14.7883C18.3027 14.9564 18.3695 15.1516 18.3829 15.354C18.4545 16.4196 18.4206 17.8941 18.3015 18.7136C18.2988 18.7755 18.2816 18.8359 18.2516 18.89C18.2215 18.9441 18.1793 18.9905 18.1282 19.0256C17.104 19.8548 15.4098 21.3137 14.6827 22.0287C14.6251 22.0826 14.5744 22.1435 14.5317 22.2098C14.4605 22.3256 14.3958 22.4452 14.338 22.5683C14.2499 22.3003 14.1794 22.0269 14.127 21.7497C14.1086 21.6472 14.1086 21.5422 14.127 21.4397C14.2151 20.8216 14.6469 19.3947 14.7176 19.1815C14.7241 19.1632 14.7274 19.1438 14.7272 19.1244V18.9878C14.5704 19.3152 13.7669 21.1248 13.5965 21.7477C13.5616 21.8378 13.5616 21.9376 13.5965 22.0277C13.701 22.328 14.005 23.0711 14.1444 23.3752C14.1444 23.3752 14.4746 22.7552 14.6662 22.4433C14.7196 22.3563 14.7848 22.277 14.8599 22.2079C15.4311 21.679 17.4873 19.9614 18.4477 19.2387C18.5001 19.2049 18.545 19.1609 18.58 19.1093C18.6149 19.0577 18.6391 18.9995 18.651 18.9384C19.063 17.3728 19.1854 15.745 19.0121 14.1353C19.0014 14.072 18.9784 14.0115 18.9444 13.9571Z" fill="black"/>
<path d="M14.7329 9.61368C14.772 9.54539 14.7864 9.46564 14.7735 9.38796C14.7416 9.20196 14.6932 8.98205 14.6535 8.8164C14.65 8.80101 14.6431 8.78663 14.6332 8.77437C14.6232 8.7621 14.6107 8.75229 14.5964 8.74568L14.3059 8.60715C14.268 8.58885 14.2254 8.58276 14.1839 8.58971C13.485 8.71371 12.7492 8.85902 12.1925 8.98593C12.17 8.9908 12.1488 9.0004 12.1303 9.0141C12.1117 9.02779 12.0963 9.04527 12.085 9.06537L11.9118 9.36471C11.9087 9.37012 11.907 9.37616 11.9068 9.38235C11.9065 9.38853 11.9077 9.3947 11.9102 9.40034C11.9128 9.40599 11.9166 9.41097 11.9214 9.41487C11.9262 9.41878 11.9319 9.4215 11.9379 9.42283C12.0841 9.44996 12.3813 9.50324 12.4829 9.51971C12.5285 9.53054 12.5763 9.52541 12.6185 9.50518C12.9709 9.3589 13.5469 9.13512 13.9738 8.98012C14.0076 8.96799 14.0446 8.96799 14.0784 8.98012L14.272 9.04308C14.3009 9.05196 14.3253 9.07177 14.3398 9.0983C14.394 9.19518 14.4502 9.29205 14.4831 9.36568C14.4937 9.39468 14.4965 9.42596 14.4912 9.4564C14.486 9.48683 14.4728 9.51534 14.4531 9.53908C14.3079 9.7493 14.059 10.0816 13.8877 10.2889C13.8693 10.3114 13.8566 10.3381 13.8509 10.3667C13.8451 10.3952 13.8465 10.4247 13.8548 10.4526C13.9516 10.7994 14.1723 11.5124 14.2895 11.8534C14.3022 11.8935 14.3256 11.9294 14.3572 11.9571L14.5208 12.1063C14.5208 12.1063 14.2604 10.9002 14.1985 10.5563C14.1923 10.5302 14.1913 10.5032 14.1956 10.4767C14.1999 10.4503 14.2095 10.425 14.2236 10.4022C14.3669 10.1969 14.6128 9.82196 14.7329 9.61368Z" fill="black"/>
<path d="M20.9801 10.6052C20.9735 10.5669 20.959 10.5304 20.9373 10.4982C20.9156 10.4659 20.8873 10.4387 20.8542 10.4182C20.072 9.83699 18.6644 9.00871 17.8269 8.65706C17.7193 8.61194 17.5986 8.60918 17.4891 8.64931C17.0892 8.79559 16.4512 9.0649 15.7881 9.37684C15.7881 9.37684 16.0785 9.39815 16.2199 9.41462C16.2759 9.42403 16.3334 9.41971 16.3874 9.40203C16.5907 9.34681 16.9527 9.25768 17.2374 9.19278C17.3058 9.17755 17.3768 9.1772 17.4454 9.19174C17.5141 9.20628 17.5788 9.23537 17.6353 9.27706C18.0225 9.56768 18.6518 10.0734 19.0535 10.4105C19.1234 10.4692 19.2021 10.5163 19.2869 10.55C19.8977 10.7961 20.1669 10.9181 20.3034 10.9888C20.3511 11.0129 20.3931 11.047 20.4265 11.0888C20.4599 11.1306 20.484 11.1791 20.497 11.231C20.6558 11.8452 20.7623 12.781 20.8174 13.464C20.8276 13.5897 20.8111 13.7161 20.769 13.835C20.5366 14.4184 20.2559 14.9812 19.9297 15.5177C19.9066 15.5546 19.8775 15.5874 19.8435 15.6146C19.7593 15.6873 19.6092 15.8084 19.5008 15.8926C19.4901 15.9007 19.4814 15.911 19.4754 15.923C19.4693 15.9349 19.4661 15.948 19.466 15.9614C19.466 16.2249 19.4127 16.7364 19.4127 16.7364C20.0004 16.0002 20.558 15.045 21.0537 14.0307C21.089 13.9663 21.111 13.8955 21.1185 13.8224C21.2337 12.7326 21.164 11.4403 20.9801 10.6052Z" fill="black"/>
<path d="M13.1857 23.7759C13.0472 23.465 12.3289 21.7638 12.1343 21.1128C12.0691 20.9365 12.0514 20.746 12.083 20.5606C12.2466 18.9603 12.8217 16.4144 12.9117 16.0657C12.9282 16.0104 12.9282 15.9514 12.9117 15.8961C12.8885 15.7644 12.8149 15.3071 12.8149 15.3071C12.5545 15.9097 11.6299 18.3974 11.2882 19.8602C11.2243 20.1363 11.2349 20.21 11.2882 20.3601C11.78 21.634 13.0308 23.9358 13.2612 24.2835L13.2099 23.8825C13.2066 23.846 13.1984 23.8102 13.1857 23.7759Z" fill="black"/>
<path d="M12.0703 23.8751C12.0703 23.8751 11.7973 23.6987 11.7141 23.6426C11.6576 23.6079 11.6047 23.5676 11.5563 23.5224C10.987 23.0071 8.98978 20.5513 8.39149 19.4847C8.30137 19.3548 8.25896 19.1977 8.27144 19.04C8.28306 18.8347 8.32275 18.4375 8.36341 18.204C8.37624 18.0673 8.44147 17.941 8.54541 17.8514C8.88426 17.5433 9.43222 16.9921 9.71878 16.7005C9.82144 16.6039 9.90746 16.4909 9.97339 16.3663C10.2367 15.8742 11.0383 14.1294 11.3084 13.4116C11.3508 13.3209 11.362 13.2187 11.3404 13.121C11.2891 12.7451 10.9899 11.7754 10.9899 11.7754L10.9638 12.0999C10.9609 12.1221 10.9609 12.1446 10.9638 12.1668C11.023 12.4913 11.0605 12.8195 11.0761 13.1491C11.0808 13.233 11.0603 13.3163 11.017 13.3884C10.6143 14.1818 9.04109 16.2946 8.04587 17.4435C7.95286 17.5434 7.89213 17.669 7.87161 17.8039C7.8203 18.0451 7.76221 18.5973 7.72445 19.0362C7.70412 19.2725 7.71961 19.3529 7.86967 19.6019C8.4699 20.5997 10.5117 22.9925 11.1768 23.5428C11.2206 23.5797 11.2679 23.6121 11.3181 23.6396C11.5524 23.7656 12.1894 24.0833 12.1894 24.0833L12.0926 23.909C12.0873 23.8964 12.0798 23.8849 12.0703 23.8751Z" fill="black"/>
<path d="M9.10519 9.63909L10.3734 9.24191C10.4482 9.21925 10.5111 9.16811 10.5487 9.0995L11.2263 7.937C11.2299 7.93063 11.2317 7.92343 11.2316 7.91612C11.2315 7.90882 11.2295 7.90167 11.2258 7.89539C11.2221 7.88911 11.2168 7.88392 11.2104 7.88034C11.204 7.87676 11.1968 7.87492 11.1895 7.875L10.6087 7.88372C10.5541 7.88469 10.5 7.8935 10.448 7.90988C9.89159 8.10598 9.34917 8.33966 8.82444 8.60931C8.77759 8.63502 8.73643 8.66995 8.70342 8.712L8.09351 9.46375C8.07346 9.48876 8.04751 9.5084 8.018 9.5209L7.62398 9.68753C7.60523 9.69583 7.59011 9.71062 7.58138 9.72919L7.56299 9.7689C7.56299 9.7689 8.39847 9.74275 8.68019 9.72144C8.82455 9.71044 8.96716 9.68281 9.10519 9.63909Z" fill="black"/>
<path d="M11.4287 6.89133C13.0261 6.7712 14.8616 6.80511 15.307 6.81577C15.3729 6.81698 15.4382 6.82841 15.5006 6.84967L15.8269 6.95817C15.0253 7.0008 13.089 7.17323 12.3048 7.30789L12.5808 7.35148C12.6004 7.35339 12.6202 7.35339 12.6398 7.35148C13.2207 7.31564 14.3553 7.27883 14.8529 7.27205C14.9588 7.26676 15.0645 7.28599 15.1618 7.32823C15.4522 7.43964 16.0331 7.70314 16.2751 7.8252C16.38 7.88276 16.4973 7.91401 16.6169 7.91626C16.8773 7.92692 17.2761 7.95405 17.5704 7.98601C17.6505 7.99387 17.7284 8.01688 17.7999 8.05383C18.428 8.3761 19.0373 8.73382 19.6248 9.12526C19.6541 9.14482 19.687 9.15833 19.7216 9.16498L19.9665 9.21342C19.9665 9.21342 19.1795 8.41226 18.8706 8.13714C18.8259 8.09818 18.7776 8.06348 18.7264 8.03348C17.5569 7.36408 16.4997 6.81867 15.9121 6.5697C15.8173 6.52922 15.7166 6.50467 15.6139 6.49705C13.9149 6.37244 12.2089 6.37892 10.5109 6.51642C10.4661 6.51927 10.4224 6.53205 10.383 6.55383C10.3437 6.5756 10.3097 6.60584 10.2834 6.64236C10.2292 6.72277 10.1401 6.86517 10.0578 6.99789C10.0186 7.06254 9.96965 7.12071 9.91263 7.17033C9.65995 7.39217 9.23495 7.75158 8.96775 7.95114C8.94451 7.96858 8.93289 7.97826 8.91449 7.99086C8.80316 8.06739 8.43044 8.31248 8.36364 8.35608C8.34402 8.36779 8.32691 8.38326 8.3133 8.40161L8.18066 8.57308C9.29497 7.9463 10.7142 7.15967 11.2002 6.94558C11.2727 6.91453 11.35 6.89618 11.4287 6.89133Z" fill="black"/>
<path d="M6.22718 10.4281C6.21319 10.4463 6.19655 10.4623 6.17781 10.4756C5.18646 11.1838 4.62883 11.6381 4.41003 11.8193C4.32097 11.9074 4.23577 11.9927 4.15736 12.074C4.07894 12.1554 4.0712 12.1709 4.06635 12.231C4.06151 12.291 4.05958 12.3453 4.05958 12.3821C4.05934 12.4017 4.06508 12.421 4.07603 12.4373C4.09056 12.4586 4.17285 12.5477 4.18737 12.5662C4.19163 12.57 4.19714 12.5721 4.20286 12.5721C4.20857 12.5721 4.21409 12.57 4.21835 12.5662C4.3655 12.4635 4.57171 12.3104 4.75855 12.168C4.7784 12.1513 4.79598 12.1321 4.81083 12.1108C4.84278 12.0566 4.88441 11.9781 4.90765 11.9287C4.92013 11.8992 4.9428 11.8751 4.97154 11.8609L5.12159 11.764C5.08448 11.923 5.03595 12.079 4.97638 12.231C4.96194 12.2623 4.94303 12.2913 4.92023 12.3172C4.77405 12.4702 4.50975 12.7657 4.37712 12.9285C4.35884 12.9544 4.3496 12.9856 4.35082 13.0173C4.35205 13.049 4.36367 13.0794 4.38389 13.1038C4.54574 13.3333 4.72231 13.5521 4.91248 13.7587C4.94411 13.7972 4.98209 13.8299 5.02478 13.8556C5.05926 13.8757 5.09556 13.8926 5.13321 13.9059C5.13321 13.9059 5.26004 13.2976 5.31329 13.1087C5.32126 13.0753 5.33848 13.0449 5.36297 13.0209C5.38746 12.9969 5.41823 12.9803 5.45172 12.973C6.1023 12.8122 7.50703 12.5787 7.50703 12.5787C7.35891 12.4015 6.86517 11.8929 6.71608 11.765C6.67566 11.7281 6.62436 11.7053 6.56989 11.7001C6.38886 11.6788 5.7954 11.6362 5.7954 11.6362L5.88544 11.5393C5.91345 11.508 5.94967 11.4852 5.99 11.4734C6.71898 11.2206 7.69097 10.8524 8.25925 10.6151C8.36758 10.5751 8.46411 10.5084 8.54 10.4213C8.5826 10.3768 8.66973 10.2799 8.71911 10.2208C8.72858 10.2109 8.73497 10.1985 8.7375 10.185C8.7375 10.1666 8.74428 10.1346 8.74428 10.1346C8.74428 10.1346 8.50224 10.3167 8.4064 10.3836C8.33225 10.4397 8.24716 10.4796 8.15663 10.5008C7.95623 10.5531 7.57576 10.6422 7.35697 10.6945C7.30938 10.7097 7.25798 10.7076 7.21175 10.6887C7.17593 10.6761 7.1072 10.649 7.06654 10.6296C7.04984 10.62 7.03134 10.6139 7.01218 10.6117C6.99303 10.6096 6.97363 10.6114 6.9552 10.617C6.75674 10.6616 6.2146 10.7953 6.2146 10.7953C6.2146 10.7953 6.46437 10.5725 6.48276 10.5579C6.50518 10.5406 6.53039 10.5271 6.55731 10.5182C6.74512 10.4427 6.9765 10.3593 7.17206 10.2799C7.19103 10.2752 7.20794 10.2645 7.22019 10.2492C7.23243 10.234 7.23933 10.2152 7.23983 10.1956C7.25241 10.0455 7.29501 9.77422 7.32115 9.63085C7.32308 9.61328 7.32874 9.59632 7.33776 9.58111C7.34678 9.56591 7.35894 9.55281 7.37343 9.54269C7.48766 9.4526 7.90879 9.12904 8.00851 9.05832L8.02787 9.03991L8.14308 8.90332C7.84393 9.07769 7.30857 9.39544 7.03266 9.56982C6.93117 9.63212 6.83413 9.70139 6.74222 9.77713C6.72917 9.78722 6.71745 9.79894 6.70736 9.81201C6.62798 9.90307 6.33174 10.2867 6.22718 10.4281Z" fill="black"/>
<path d="M5.78174 4.89162V3.18082C6.50783 3.11623 7.23488 3.06198 7.96291 3.01807V3.29803C7.32911 3.33678 6.69532 3.38296 6.06153 3.43657V3.86185C6.62174 3.8147 7.1826 3.77272 7.74411 3.73591V4.01588C7.1826 4.0514 6.62174 4.09338 6.06153 4.14181V4.58841C6.69467 4.53416 7.32847 4.48766 7.96291 4.44891V4.72888C7.23617 4.77344 6.50912 4.82769 5.78174 4.89162Z" fill="black"/>
<path d="M2.8125 5.21223V3.50142C3.38756 3.42908 3.96295 3.36256 4.53866 3.30185C4.62157 3.29054 4.70583 3.29415 4.78747 3.31251C4.85342 3.328 4.91375 3.36154 4.96173 3.40939C5.00476 3.45466 5.03514 3.51045 5.04983 3.57117C5.06296 3.62835 5.06946 3.68686 5.06919 3.74554V3.9451C5.06952 4.00448 5.06269 4.06368 5.04886 4.12142C5.03367 4.18656 5.00351 4.24726 4.96076 4.2987C4.91256 4.35333 4.85267 4.39638 4.78553 4.42463C4.707 4.45763 4.62362 4.47759 4.53866 4.48373C4.05654 4.53023 3.57409 4.58577 3.09132 4.65035V5.18219L2.8125 5.21223ZM3.09132 4.36554C3.60313 4.30096 4.11527 4.24315 4.62773 4.19213C4.67106 4.1868 4.71104 4.16606 4.74036 4.1337C4.76968 4.10133 4.7864 4.0595 4.78747 4.01582V3.71648C4.7879 3.69605 4.78393 3.67577 4.77584 3.65702C4.76775 3.63826 4.75572 3.62147 4.74057 3.60778C4.72541 3.59408 4.70749 3.58381 4.68802 3.57766C4.66855 3.57151 4.64799 3.56963 4.62773 3.57214C4.11527 3.62574 3.60313 3.68386 3.09132 3.74651V4.36554Z" fill="black"/>
<path d="M18.2877 4.76513C18.1976 4.76054 18.1082 4.74757 18.0205 4.72638C17.9472 4.70881 17.8786 4.67578 17.8191 4.6295C17.7628 4.58321 17.7217 4.52113 17.701 4.45125C17.6838 4.38812 17.6753 4.32293 17.6758 4.2575V3.48735C17.675 3.4219 17.6835 3.35667 17.701 3.2936C17.7221 3.22634 17.7655 3.16827 17.824 3.12891C17.8842 3.0888 17.9533 3.06418 18.0253 3.05722C18.1142 3.04863 18.2037 3.04863 18.2925 3.05722C18.6714 3.08306 19.0499 3.1118 19.4281 3.14344C19.5184 3.14928 19.6079 3.16388 19.6953 3.18704C19.7692 3.20608 19.8379 3.24113 19.8967 3.28972C19.9528 3.33716 19.9936 3.40022 20.0139 3.47088C20.0323 3.53576 20.0411 3.603 20.04 3.67044V4.43285C20.0411 4.49838 20.0323 4.56371 20.0139 4.6266C19.9943 4.69175 19.9529 4.74819 19.8967 4.78644C19.8362 4.82522 19.767 4.84851 19.6953 4.85425C19.6065 4.86293 19.517 4.86293 19.4281 4.85425C19.046 4.82067 18.6659 4.79096 18.2877 4.76513ZM18.1144 3.32363C18.0939 3.32202 18.0733 3.32469 18.0539 3.33147C18.0345 3.33825 18.0167 3.349 18.0017 3.36304C17.9867 3.37707 17.9747 3.39407 17.9666 3.41297C17.9585 3.43187 17.9545 3.45225 17.9547 3.47282V4.304C17.9553 4.34713 17.972 4.38847 18.0016 4.41985C18.0312 4.45123 18.0714 4.47039 18.1144 4.47353L18.2548 4.48322H18.2867C18.6636 4.50841 19.0402 4.5365 19.4165 4.5675H19.4388L19.5898 4.5801C19.6101 4.58232 19.6307 4.58016 19.6501 4.57377C19.6695 4.56737 19.6874 4.5569 19.7024 4.54304C19.7174 4.52919 19.7294 4.51227 19.7373 4.49343C19.7453 4.47459 19.7491 4.45426 19.7486 4.43382V3.60844C19.7481 3.56505 19.7316 3.52337 19.7023 3.49138C19.673 3.45939 19.633 3.43932 19.5898 3.43504C19.1006 3.3937 18.6088 3.35657 18.1144 3.32363Z" fill="black"/>
<path d="M21.5997 5.06056V3.62972C21.2666 3.59291 20.933 3.55803 20.5986 3.52509V3.24609C21.3596 3.31972 22.1192 3.40465 22.8776 3.50087V3.77794C22.5455 3.73531 22.2115 3.69559 21.8785 3.65781V5.09156L21.5997 5.06056Z" fill="black"/>
<path d="M14.7637 4.60339V2.89258C15.4917 2.91002 16.2197 2.93714 16.9477 2.97395C16.9477 3.07083 16.9477 3.16092 16.9477 3.25392C16.3133 3.22163 15.6785 3.19676 15.0435 3.17933V3.60364C15.6056 3.61914 16.1674 3.64077 16.7289 3.66854V3.94754C16.1674 3.92042 15.6056 3.89911 15.0435 3.88361V4.3302C15.6785 4.34764 16.3133 4.37282 16.9477 4.40576C16.9477 4.49876 16.9477 4.59176 16.9477 4.68476C16.221 4.64795 15.493 4.62082 14.7637 4.60339Z" fill="black"/>
<path d="M12.3443 4.58152C12.2545 4.58397 12.1647 4.57781 12.0761 4.56311C12.0034 4.5516 11.9344 4.52305 11.8747 4.4798C11.8182 4.43783 11.7768 4.3787 11.7566 4.31124C11.7385 4.24828 11.7297 4.18301 11.7305 4.11749V3.35702C11.7253 3.29054 11.7339 3.2237 11.7557 3.16068C11.7775 3.09767 11.8121 3.03985 11.8573 2.99084C11.9415 2.9114 12.079 2.87265 12.29 2.87168C12.8296 2.86781 13.3692 2.86942 13.9087 2.87652V3.15649C13.3279 3.14874 12.7496 3.14874 12.1739 3.15649C12.1323 3.15698 12.0924 3.17361 12.0628 3.20289C12.0332 3.23216 12.0161 3.27179 12.0151 3.31343V4.14461C12.0151 4.16556 12.0192 4.1863 12.0273 4.20564C12.0353 4.22498 12.0471 4.24253 12.0619 4.2573C12.0768 4.27207 12.0944 4.28375 12.1138 4.29168C12.1332 4.2996 12.1539 4.30362 12.1748 4.30349H12.3481C12.8167 4.30349 13.2853 4.30349 13.7538 4.30349V3.85883C13.4498 3.85883 13.1462 3.85883 12.8428 3.85883C12.8428 3.76196 12.8428 3.67283 12.8428 3.57887C13.2391 3.57887 13.6354 3.58177 14.0317 3.58758V4.58927C13.4702 4.58087 12.9077 4.57829 12.3443 4.58152Z" fill="black"/>
<path d="M9.30484 4.65666C9.21535 4.66191 9.12555 4.65866 9.03667 4.64697C8.96464 4.63822 8.89567 4.61267 8.8353 4.57238C8.78169 4.53067 8.7427 4.47301 8.72397 4.40769C8.70566 4.34477 8.69685 4.27947 8.69783 4.21394V2.97879L8.97762 2.96426V4.23235C8.97745 4.25303 8.98153 4.27353 8.9896 4.29257C8.99767 4.31161 9.00956 4.32879 9.02453 4.34305C9.03951 4.35731 9.05725 4.36834 9.07666 4.37546C9.09606 4.38258 9.11672 4.38564 9.13736 4.38444C9.61367 4.36248 10.0897 4.34472 10.5653 4.33116C10.608 4.32943 10.6483 4.31137 10.6781 4.28072C10.7078 4.25008 10.7246 4.20918 10.7251 4.16647V2.89838L11.0058 2.8916V4.12482C11.0065 4.19033 10.9977 4.25559 10.9797 4.31857C10.9594 4.38757 10.9181 4.44852 10.8616 4.49294C10.8018 4.53733 10.7331 4.56809 10.6602 4.58304C10.5718 4.60051 10.4821 4.61023 10.392 4.6121C10.0271 4.62663 9.66595 4.64019 9.30484 4.65666Z" fill="black"/>
<path d="M25.0705 1.64676C16.9832 0.238841 8.7137 0.238841 0.626416 1.64676C0.564457 3.31591 0.493782 5.89472 0.612861 8.08409C0.878126 12.9637 1.95274 16.7515 3.99547 19.9997C6.03821 23.2479 9.18653 26.0321 12.8489 27.6886C16.5113 26.0321 19.6655 23.2431 21.7014 19.9997C23.7374 16.7563 24.8197 12.9588 25.0898 8.08409C25.2031 5.88987 25.1324 3.31107 25.0705 1.64676ZM24.6155 8.05793C24.355 12.8552 23.3027 16.5723 21.3035 19.7546C19.2503 22.9847 16.3168 25.5598 12.8489 27.1762C9.38077 25.5599 6.44689 22.9847 4.39337 19.7546C2.39517 16.5723 1.34283 12.8552 1.0824 8.05793C0.997208 6.49147 0.997208 4.522 1.0824 2.04588C8.87151 0.732265 16.8254 0.732265 24.6145 2.04588C24.6978 4.51716 24.6978 6.4905 24.6155 8.05309V8.05793Z" fill="black"/>
</svg>
