<svg width="9" height="9" viewBox="0 0 9 9" fill="none" xmlns="http://www.w3.org/2000/svg">
<path d="M1.77 1C1.8 1.445 1.875 1.88 1.995 2.295L1.395 2.895C1.19 2.295 1.06 1.66 1.015 1H1.77ZM6.7 7.01C7.125 7.13 7.56 7.205 8 7.235V7.98C7.34 7.935 6.705 7.805 6.1 7.605L6.7 7.01ZM2.25 0H0.5C0.225 0 0 0.225 0 0.5C0 5.195 3.805 9 8.5 9C8.775 9 9 8.775 9 8.5V6.755C9 6.48 8.775 6.255 8.5 6.255C7.88 6.255 7.275 6.155 6.715 5.97C6.665 5.95 6.61 5.945 6.56 5.945C6.43 5.945 6.305 5.995 6.205 6.09L5.105 7.19C3.69 6.465 2.53 5.31 1.81 3.895L2.91 2.795C3.05 2.655 3.09 2.46 3.035 2.285C2.85 1.725 2.75 1.125 2.75 0.5C2.75 0.225 2.525 0 2.25 0Z" fill="white"/>
</svg>
