<svg width="16" height="17" viewBox="0 0 16 17" fill="none" xmlns="http://www.w3.org/2000/svg">
<path d="M3.14667 2.00312C3.2 2.79369 3.33333 3.56649 3.54667 4.30376L2.48 5.3697C2.11556 4.30376 1.88444 3.17565 1.80444 2.00312H3.14667ZM11.9111 12.6802C12.6667 12.8934 13.44 13.0267 14.2222 13.08V14.4035C13.0489 14.3235 11.92 14.0926 10.8444 13.7373L11.9111 12.6802ZM4 0.226562H0.888889C0.4 0.226562 0 0.626288 0 1.11484C0 9.45578 6.76444 16.2156 15.1111 16.2156C15.6 16.2156 16 15.8159 16 15.3273V12.2272C16 11.7387 15.6 11.3389 15.1111 11.3389C14.0089 11.3389 12.9333 11.1613 11.9378 10.8326C11.8489 10.7971 11.7511 10.7882 11.6622 10.7882C11.4311 10.7882 11.2089 10.877 11.0311 11.0458L9.07556 13C6.56 11.712 4.49778 9.66008 3.21778 7.14625L5.17333 5.19204C5.42222 4.94332 5.49333 4.59689 5.39556 4.286C5.06667 3.29112 4.88889 2.22519 4.88889 1.11484C4.88889 0.626288 4.48889 0.226562 4 0.226562Z" fill="#0E0E0E"/>
</svg>
