<svg width="26" height="26" viewBox="0 0 26 26" fill="none" xmlns="http://www.w3.org/2000/svg">
<path d="M13.0002 6.50004V9.75004L17.3335 5.41671L13.0002 1.08337V4.33337C8.21183 4.33337 4.3335 8.21171 4.3335 13C4.3335 14.7009 4.83183 16.2825 5.67683 17.615L7.2585 16.0334C6.771 15.1342 6.50016 14.0942 6.50016 13C6.50016 9.41421 9.41433 6.50004 13.0002 6.50004ZM20.3235 8.38504L18.7418 9.96671C19.2185 10.8767 19.5002 11.9059 19.5002 13C19.5002 16.5859 16.586 19.5 13.0002 19.5V16.25L8.66683 20.5834L13.0002 24.9167V21.6667C17.7885 21.6667 21.6668 17.7884 21.6668 13C21.6668 11.2992 21.1685 9.71754 20.3235 8.38504Z" fill="#8F8F8F"/>
</svg>
