<svg width="39" height="50" viewBox="0 0 39 50" fill="none" xmlns="http://www.w3.org/2000/svg">
<path fill-rule="evenodd" clip-rule="evenodd" d="M16.1641 41.0423C16.5663 40.2954 17.0204 39.4789 17.4167 38.6991C18.1864 37.18 18.1864 37.8189 17.4167 36.3094C16.6317 34.7518 15.7793 33.2076 14.9307 31.6634C13.8801 29.7467 12.868 27.6987 11.7963 25.7801C11.3345 24.9501 11.3653 25.0659 11.6039 24.6026C12.0137 23.8035 12.4236 23.0488 12.8334 22.2864C14.4882 19.225 16.168 15.9166 17.8362 12.9306C18.2345 12.2164 22.5234 3.98205 22.814 3.64619L24.3937 6.54153C24.8767 7.52401 25.4443 8.45631 25.933 9.43686C26.4217 10.4174 26.947 11.3671 27.4723 12.3322C29.0117 15.1117 30.5644 18.285 32.0903 21.0182C32.6348 21.9833 33.0966 22.9484 33.6296 23.9135C34.2069 24.952 34.2704 24.8787 34.0144 25.3516C33.7585 25.8245 33.5007 26.3418 33.2448 26.8031C32.1846 28.7044 31.1802 30.6635 30.1661 32.5938C29.6466 33.5743 29.1117 34.524 28.6268 35.4891C27.7129 37.2919 26.416 39.5059 25.5366 41.2798L22.458 47.0704C22.2059 47.5356 21.9404 48.0471 21.6883 48.5278C21.4363 49.0084 21.1111 49.4929 20.9187 49.9947L24.7343 49.9812C25.5039 48.3193 27.0933 45.5957 28.0573 43.735C29.3772 41.1929 38.0013 25.1894 38.0013 24.9964C38.0013 24.8034 29.3772 8.80568 28.0573 6.25779C27.1067 4.42407 25.4885 1.62525 24.7343 0L20.886 0.0115814C20.251 1.37625 18.9099 3.71954 18.1421 5.173C17.2359 6.88125 16.3142 8.54703 15.4156 10.2842C14.517 12.0214 13.53 13.7297 12.6718 15.4514C12.2388 16.32 11.7636 17.1751 11.2941 18.0225C10.8246 18.8699 10.3994 19.7346 9.94719 20.5665C9.47769 21.4351 9.04668 22.2555 8.56372 23.1337C8.32898 23.5642 8.08846 24.0332 7.87103 24.4559C7.47466 25.228 7.57086 24.9366 7.96339 25.726C8.39632 26.5946 8.87159 27.4497 9.343 28.299C10.7015 30.7504 12.0368 33.4508 13.4126 35.9523C13.7724 36.6067 15.9909 40.8686 16.1718 41.0346L16.1641 41.0423Z" fill="#353535"/>
<path fill-rule="evenodd" clip-rule="evenodd" d="M13.6134 43.4629C12.7975 41.8068 11.4448 39.4095 10.5347 37.6723C10.021 36.7072 9.53223 35.742 8.9954 34.7769C7.45608 32.0322 5.91676 28.8608 4.37744 26.0909C4.23698 25.8381 4.11383 25.6161 3.99261 25.369C3.7848 24.9695 3.7848 25.0525 3.99261 24.651C4.24082 24.1704 4.50636 23.6627 4.76227 23.2014C5.8244 21.3001 6.82688 19.3409 7.84091 17.4107C8.87418 15.4129 16.7959 0.727786 17.0826 0.0078125L13.2766 0.021324C12.786 1.05013 12.1664 2.13106 11.6084 3.14443L0 25.0042C0 25.1972 8.62596 41.2007 9.944 43.7428C10.4943 44.8044 11.0427 45.8371 11.6084 46.8659C12.1741 47.8947 12.786 48.9583 13.2766 50.0006L17.1249 49.9871C17.7618 48.6186 19.0991 46.2849 19.8707 44.8276C20.775 43.1174 21.6948 41.4536 22.5953 39.7164C23.4958 37.9792 24.4809 36.2709 25.3391 34.5492L28.0618 29.4341C28.5313 28.5635 28.9642 27.7451 29.4453 26.8669C30.6613 24.6471 30.4708 25.1297 30.0456 24.2746C29.6203 23.4195 29.1316 22.5528 28.6698 21.7035C28.0137 20.5184 22.0777 9.1841 21.841 8.96405C21.4369 9.70912 20.9848 10.5275 20.5884 11.3073C19.8187 12.8264 19.8187 12.1856 20.5884 13.697C21.3696 15.2566 22.2239 16.8008 23.0705 18.3449C23.9172 19.8891 24.7099 21.5124 25.5719 23.0566L26.5167 24.8247C26.6341 25.0872 26.5167 25.1644 26.3936 25.4038C25.9837 26.2029 25.5739 26.9479 25.164 27.72L21.4004 34.7769C20.7346 35.993 15.4836 46.0205 15.1892 46.3583L13.6095 43.4629H13.6134Z" fill="#353535"/>
</svg>
