<svg width="19" height="25" viewBox="0 0 19 25" fill="none" xmlns="http://www.w3.org/2000/svg">
<path fill-rule="evenodd" clip-rule="evenodd" d="M8.08157 20.5212C8.28264 20.1477 8.50969 19.7394 8.70788 19.3495C9.09271 18.59 9.09271 18.9094 8.70788 18.1547C8.31535 17.3759 7.88915 16.6038 7.46488 15.8317C6.93958 14.8733 6.43353 13.8494 5.89766 12.89C5.66676 12.475 5.68215 12.5329 5.80145 12.3013C6.00637 11.9018 6.2113 11.5244 6.41622 11.1432C7.2436 9.61251 8.08349 7.95831 8.91761 6.46528C9.11676 6.10819 11.2612 1.99103 11.4065 1.8231L12.1964 3.27076C12.4378 3.76201 12.7217 4.22816 12.966 4.71843C13.2104 5.20871 13.473 5.68354 13.7357 6.1661C14.5053 7.55586 15.2817 9.14251 16.0447 10.5091C16.3169 10.9917 16.5478 11.4742 16.8143 11.9568C17.1029 12.476 17.1347 12.4393 17.0067 12.6758C16.8788 12.9122 16.7499 13.1709 16.6219 13.4015C16.0918 14.3522 15.5896 15.3318 15.0826 16.2969C14.8228 16.7872 14.5554 17.262 14.3129 17.7445C13.8559 18.646 13.2075 19.7529 12.7678 20.6399L11.2285 23.5352C11.1025 23.7678 10.9697 24.0236 10.8437 24.2639C10.7177 24.5042 10.5551 24.7464 10.4589 24.9974L12.3666 24.9906C12.7515 24.1596 13.5461 22.7979 14.0281 21.8675C14.6881 20.5965 19.0002 12.5947 19.0002 12.4982C19.0002 12.4017 14.6881 4.40284 14.0281 3.12889C13.5529 2.21204 12.7438 0.812624 12.3666 0L10.4425 0.00579071C10.125 0.688125 9.45445 1.85977 9.07058 2.5865C8.61744 3.44062 8.15661 4.27352 7.70732 5.14212C7.25803 6.01072 6.76449 6.86484 6.3354 7.72572C6.11894 8.16002 5.8813 8.58757 5.64656 9.01125C5.41181 9.43493 5.19919 9.8673 4.9731 10.2833C4.73836 10.7176 4.52285 11.1277 4.28137 11.5669C4.164 11.7821 4.04374 12.0166 3.93503 12.228C3.73684 12.614 3.78494 12.4683 3.98121 12.863C4.19767 13.2973 4.43531 13.7249 4.67101 14.1495C5.35024 15.3752 6.01792 16.7254 6.7058 17.9762C6.88571 18.3033 7.99498 20.4343 8.08542 20.5173L8.08157 20.5212Z" fill="#353535"/>
<path fill-rule="evenodd" clip-rule="evenodd" d="M6.80668 21.7312C6.39876 20.9031 5.72242 19.7044 5.26736 18.8358C5.01048 18.3533 4.76612 17.8707 4.4977 17.3882C3.72804 16.0158 2.95838 14.4301 2.18872 13.0452C2.11849 12.9187 2.05692 12.8078 1.9963 12.6842C1.8924 12.4844 1.8924 12.5259 1.9963 12.3252C2.12041 12.0849 2.25318 11.8311 2.38113 11.6004C2.9122 10.6498 3.41344 9.67018 3.92045 8.70506C4.43709 7.70617 8.39795 0.363603 8.5413 0.00361633L6.63831 0.0103721C6.39299 0.524777 6.0832 1.06524 5.8042 1.57192L0 12.5018C0 12.5983 4.31298 20.6001 4.972 21.8711C5.24715 22.4019 5.52135 22.9183 5.8042 23.4327C6.08705 23.9471 6.39299 24.4789 6.63831 25L8.56246 24.9933C8.88091 24.309 9.54955 23.1422 9.93534 22.4135C10.3875 21.5584 10.8474 20.7265 11.2976 19.8579C11.7479 18.9893 12.2405 18.1352 12.6696 17.2743L14.0309 14.7167C14.2656 14.2815 14.4821 13.8723 14.7226 13.4331C15.3307 12.3233 15.2354 12.5645 15.0228 12.137C14.8102 11.7095 14.5658 11.2761 14.3349 10.8515C14.0068 10.2589 11.0388 4.59176 10.9205 4.48174C10.7185 4.85427 10.4924 5.26348 10.2942 5.65338C9.90937 6.41292 9.90937 6.09251 10.2942 6.84819C10.6848 7.628 11.112 8.40009 11.5353 9.17218C11.9586 9.94427 12.355 10.7559 12.786 11.528L13.2583 12.4121C13.317 12.5433 13.2583 12.5819 13.1968 12.7016C12.9919 13.1011 12.7869 13.4737 12.582 13.8597L10.7002 17.3882C10.3673 17.9962 7.74181 23.01 7.59462 23.1788L6.80475 21.7312H6.80668Z" fill="#353535"/>
</svg>
