<svg width="27" height="27" viewBox="0 0 27 27" fill="none" xmlns="http://www.w3.org/2000/svg">
<path fill-rule="evenodd" clip-rule="evenodd" d="M13.4979 27C16.1681 27.0004 18.7784 26.209 20.9987 24.7258C23.219 23.2427 24.9497 21.1344 25.9718 18.6676C26.9939 16.2009 27.2615 13.4864 26.7409 10.8675C26.2202 8.24867 24.9346 5.84301 23.0467 3.95479C21.1588 2.06658 18.7533 0.780625 16.1345 0.259557C13.5157 -0.261512 10.8012 0.0057113 8.33429 1.02743C5.86737 2.04915 3.75884 3.77948 2.27535 5.99958C0.791859 8.21969 4.66736e-05 10.8299 4.66418e-05 13.5C-0.00462249 15.274 0.341309 17.0314 1.01796 18.6712C1.69462 20.3111 2.68865 21.8011 3.94295 23.0556C5.19725 24.3101 6.68708 25.3043 8.32684 25.9812C9.9666 26.6582 11.724 27.0044 13.4979 27ZM9.58756 19.6019C9.50219 19.6019 9.48345 19.5248 9.42515 19.4405L3.21601 6.91293C4.32008 5.19685 5.83016 3.77939 7.61259 2.786L12.0893 12.7441C12.1116 12.8111 12.1555 12.8687 12.2141 12.9079C12.2727 12.9471 12.3428 12.9657 12.4131 12.9607H14.5755C14.7369 12.9607 14.8451 12.9367 14.9305 12.7441L19.4072 2.786C21.1873 3.78495 22.6982 5.20116 23.8101 6.91293L17.5468 19.4405C17.5239 19.5248 17.4697 19.6019 17.3844 19.6019C17.299 19.6019 17.2803 19.5248 17.223 19.4405L14.8784 14.0945C14.8536 14.0228 14.8046 13.962 14.7398 13.9225C14.675 13.8829 14.5985 13.8672 14.5234 13.8779H12.3642C12.2018 13.8779 12.0935 13.9091 12.0165 14.0945L9.74893 19.4405C9.71874 19.5248 9.6646 19.6019 9.58756 19.6019ZM13.4979 10.7244C13.4209 10.7244 13.3938 10.6401 13.3355 10.562L9.50219 1.92084C12.0835 0.985268 14.9113 0.985268 17.4927 1.92084L13.6593 10.562C13.6062 10.6692 13.5823 10.7244 13.4979 10.7244ZM13.4979 25.759C6.77971 25.759 1.27227 20.2276 1.27227 13.501C1.26932 12.0361 1.53357 10.5829 2.05206 9.21272L9.20964 23.5976C9.28668 23.7902 9.42515 23.9527 9.6417 23.9527C9.85825 23.9527 9.98838 23.7902 10.0727 23.5976L13.3668 16.2308C13.3897 16.1465 13.4438 16.0694 13.5281 16.0694C13.6125 16.0694 13.6322 16.1465 13.6905 16.2308L16.9836 23.5976C17.0606 23.7902 17.2001 23.9527 17.4156 23.9527C17.6311 23.9527 17.7623 23.7902 17.8477 23.5976L24.998 9.21168C25.522 10.5805 25.7884 12.0343 25.784 13.5C25.7299 20.2265 20.2235 25.7579 13.4979 25.7579V25.759Z" fill="#353535"/>
</svg>
