<svg width="70" height="70" viewBox="0 0 70 70" fill="none" xmlns="http://www.w3.org/2000/svg">
<path d="M35 0C15.6697 0 0 15.6697 0 35C0 54.3303 15.6697 70 35 70C54.3303 70 70 54.3303 70 35C70 15.6697 54.3303 0 35 0ZM35 65.625C28.9429 65.625 23.0219 63.8289 17.9857 60.4638C12.9494 57.0986 9.02412 52.3157 6.70619 46.7197C4.38826 41.1237 3.78178 34.966 4.96345 29.0254C6.14512 23.0847 9.06187 17.6278 13.3449 13.3449C17.6278 9.06187 23.0847 6.14512 29.0254 4.96345C34.966 3.78178 41.1237 4.38826 46.7197 6.70619C52.3157 9.02412 57.0986 12.9494 60.4638 17.9857C63.8289 23.0219 65.625 28.9429 65.625 35C65.625 43.1223 62.3984 50.9118 56.6551 56.6551C50.9118 62.3984 43.1223 65.625 35 65.625Z" fill="#0E0E0E"/>
<path d="M28.4375 24.0625C28.4375 24.9278 28.1809 25.7737 27.7002 26.4931C27.2194 27.2126 26.5362 27.7734 25.7367 28.1045C24.9373 28.4356 24.0576 28.5223 23.209 28.3534C22.3603 28.1846 21.5808 27.768 20.9689 27.1561C20.3571 26.5442 19.9404 25.7647 19.7716 24.916C19.6028 24.0674 19.6894 23.1877 20.0205 22.3883C20.3517 21.5888 20.9124 20.9056 21.6319 20.4248C22.3513 19.9441 23.1972 19.6875 24.0625 19.6875C25.2228 19.6875 26.3356 20.1484 27.1561 20.9689C27.9766 21.7894 28.4375 22.9022 28.4375 24.0625Z" fill="#0E0E0E"/>
<path d="M50.3125 24.0625C50.3125 24.9278 50.0559 25.7737 49.5752 26.4931C49.0944 27.2126 48.4112 27.7734 47.6117 28.1045C46.8123 28.4356 45.9326 28.5223 45.084 28.3534C44.2353 28.1846 43.4558 27.768 42.8439 27.1561C42.2321 26.5442 41.8154 25.7647 41.6466 24.916C41.4778 24.0674 41.5644 23.1877 41.8955 22.3883C42.2267 21.5888 42.7874 20.9056 43.5069 20.4248C44.2263 19.9441 45.0722 19.6875 45.9375 19.6875C46.512 19.6875 47.0809 19.8007 47.6117 20.0205C48.1425 20.2404 48.6248 20.5627 49.0311 20.9689C49.4373 21.3752 49.7596 21.8575 49.9795 22.3883C50.1993 22.9191 50.3125 23.488 50.3125 24.0625Z" fill="#0E0E0E"/>
<path d="M35 32.8125C29.7786 32.8125 24.771 34.8867 21.0788 38.5788C17.3867 42.271 15.3125 47.2786 15.3125 52.5H19.6875C19.6875 48.4389 21.3008 44.5441 24.1724 41.6724C27.0441 38.8008 30.9389 37.1875 35 37.1875C39.0611 37.1875 42.9559 38.8008 45.8276 41.6724C48.6992 44.5441 50.3125 48.4389 50.3125 52.5H54.6875C54.6875 47.2786 52.6133 42.271 48.9212 38.5788C45.2291 34.8867 40.2215 32.8125 35 32.8125Z" fill="#0E0E0E"/>
</svg>
