<svg width="84" height="84" viewBox="0 0 84 84" fill="none" xmlns="http://www.w3.org/2000/svg">
<g clip-path="url(#clip0_2341:31269)">
<path d="M58.437 61.0909H60.8042C61.4288 61.0859 62.026 60.8343 62.4658 60.3909C62.9057 59.9475 63.1524 59.3482 63.1524 58.7237V39.8237L58.2461 25.5818C58.0063 24.8824 57.553 24.2759 56.9502 23.8478C56.3474 23.4196 55.6254 23.1915 54.8861 23.1955H28.9033C28.1679 23.1983 27.4515 23.4294 26.853 23.8569C26.2546 24.2843 25.8036 24.8871 25.5624 25.5818L20.637 39.7282V58.6282C20.6268 58.9464 20.6803 59.2633 20.7945 59.5605C20.9086 59.8576 21.0811 60.1289 21.3017 60.3584C21.5223 60.5879 21.7865 60.7709 22.0789 60.8967C22.3713 61.0225 22.6859 61.0886 23.0042 61.0909H25.3715C25.996 61.0859 26.5933 60.8343 27.0331 60.3909C27.4729 59.9475 27.7197 59.3482 27.7197 58.7237V56.2609H56.0697V58.6282C56.0595 58.9464 56.1131 59.2633 56.2272 59.5605C56.3414 59.8576 56.5138 60.1289 56.7344 60.3584C56.955 60.5879 57.2193 60.7709 57.5117 60.8967C57.8041 61.0225 58.1187 61.0886 58.437 61.0909ZM29.8006 28.0064H54.0461L56.6042 35.3564H27.1851L29.8006 28.0064ZM25.3715 51.5455V39.7282H58.437V51.5455H25.3715Z" fill="#CACACA"/>
<path d="M31.2706 42.0955C30.5675 42.0955 29.8802 42.3042 29.2958 42.6952C28.7115 43.0863 28.2564 43.642 27.9882 44.2919C27.72 44.9419 27.6508 45.6568 27.7894 46.3462C27.9279 47.0355 28.268 47.6682 28.7665 48.164C29.2651 48.6598 29.8995 48.9965 30.5896 49.1314C31.2797 49.2662 31.9942 49.1932 32.6427 48.9215C33.2912 48.6498 33.8445 48.1917 34.2324 47.6052C34.6202 47.0188 34.8253 46.3304 34.8215 45.6273C34.8164 44.6888 34.4401 43.7905 33.7747 43.1287C33.1094 42.4669 32.209 42.0954 31.2706 42.0955Z" fill="#CACACA"/>
<path d="M52.5382 42.0954C51.8343 42.0916 51.1451 42.2971 50.5583 42.6859C49.9714 43.0746 49.5133 43.629 49.2422 44.2786C48.9711 44.9282 48.8992 45.6437 49.0356 46.3343C49.172 47.0249 49.5106 47.6594 50.0083 48.1571C50.5061 48.6549 51.1405 48.9935 51.8311 49.1299C52.5217 49.2663 53.2372 49.1943 53.8868 48.9232C54.5365 48.6521 55.0908 48.194 55.4796 47.6071C55.8683 47.0203 56.0738 46.3311 56.07 45.6272C56.07 44.6905 55.6979 43.7922 55.0356 43.1298C54.3732 42.4675 53.4749 42.0954 52.5382 42.0954Z" fill="#CACACA"/>
<path d="M69.8729 28.2546C72.667 28.2546 75.3984 27.426 77.7216 25.8737C80.0448 24.3214 81.8555 22.115 82.9248 19.5336C83.994 16.9521 84.2738 14.1116 83.7287 11.3712C83.1836 8.63076 81.8381 6.11352 79.8624 4.13779C77.8866 2.16205 75.3694 0.816562 72.629 0.271458C69.8885 -0.273646 67.048 0.00612114 64.4666 1.07538C61.8852 2.14464 59.6788 3.95537 58.1265 6.27859C56.5742 8.6018 55.7456 11.3332 55.7456 14.1273C55.7507 17.8725 57.2407 21.4629 59.889 24.1112C62.5372 26.7595 66.1276 28.2495 69.8729 28.2546ZM69.8729 4.16182C71.843 4.1656 73.7679 4.75327 75.4042 5.85058C77.0405 6.94789 78.3148 8.5056 79.0661 10.3269C79.8175 12.1482 80.0121 14.1513 79.6254 16.0831C79.2388 18.015 78.2881 19.7889 76.8937 21.1806C75.4992 22.5724 73.7235 23.5196 71.7909 23.9026C69.8584 24.2856 67.8556 24.0871 66.0358 23.3323C64.2159 22.5775 62.6607 21.3002 61.5665 19.6618C60.4723 18.0234 59.8883 16.0974 59.8883 14.1273C59.8883 12.817 60.1467 11.5196 60.6487 10.3092C61.1507 9.09894 61.8865 7.99951 62.8139 7.07388C63.7413 6.14825 64.8421 5.4146 66.0534 4.91491C67.2647 4.41523 68.5626 4.15931 69.8729 4.16182Z" fill="#CACACA"/>
<path d="M81.0027 27.1091L79.9718 27.8727C78.9893 28.6243 77.9264 29.2646 76.8027 29.7818L76.0199 30.1445L76.2872 30.9463C78.6429 38.2183 78.6346 46.0496 76.2636 53.3167C73.8926 60.5837 69.2807 66.9129 63.0895 71.3963C56.8983 75.8797 49.4462 78.2869 41.8021 78.2724C34.1581 78.2579 26.7151 75.8226 20.541 71.3157C14.3669 66.8089 9.77895 60.4622 7.43547 53.1863C5.092 45.9103 5.11341 38.079 7.49663 30.816C9.87985 23.553 14.5024 17.2315 20.7011 12.7585C26.8997 8.28547 34.356 5.89085 41.9999 5.91816C45.7648 5.90117 49.5085 6.48109 53.0918 7.63634L53.9127 7.90361L54.2563 7.12088C54.7729 5.99687 55.4133 4.93394 56.1654 3.95179L56.929 2.90179L55.7072 2.48179C46.7264 -0.660482 36.9447 -0.660267 27.964 2.48241C18.9833 5.62508 11.3358 11.724 6.27379 19.7803C1.21177 27.8367 -0.964759 37.3731 0.100608 46.828C1.16597 56.2829 5.4101 65.0958 12.138 71.8237C18.8659 78.5516 27.6789 82.7957 37.1337 83.8611C46.5886 84.9265 56.125 82.7499 64.1814 77.6879C72.2378 72.6259 78.3367 64.9784 81.4793 55.9977C84.622 47.017 84.6222 37.2354 81.4799 28.2545L81.0027 27.1091Z" fill="#CACACA"/>
<path d="M67.7916 21.8782H71.9343V16.2082H77.6234V12.0463H71.9343V6.37634H67.7916V12.0463H62.1216V16.2082H67.7916V21.8782Z" fill="#CACACA"/>
</g>
<defs>
<clipPath id="clip0_2341:31269">
<rect width="84" height="84" fill="white"/>
</clipPath>
</defs>
</svg>
