<svg width="60" height="60" viewBox="0 0 60 60" fill="none" xmlns="http://www.w3.org/2000/svg">
<path d="M29.9999 0C46.5694 0 60 13.4325 60 30.0001C60 46.5696 46.5694 60 29.9999 60C13.4304 60 0 46.5694 0 30.0001C0 13.4325 13.4306 0 29.9999 0Z" fill="#26A6D1"/>
<path d="M48.7554 20.2104C47.4449 20.7766 46.0347 21.1572 44.5555 21.3298C46.0668 20.4503 47.2256 19.0609 47.7712 17.4017C46.3574 18.2173 44.7936 18.808 43.1268 19.1248C41.7936 17.7467 39.8942 16.886 37.7905 16.886C33.7556 16.886 30.4819 20.0604 30.4819 23.979C30.4819 24.536 30.5457 25.0778 30.6711 25.5973C24.5961 25.3011 19.2074 22.4753 15.6037 18.1835C14.9737 19.2317 14.6137 20.4485 14.6137 21.7497C14.6137 24.2097 15.9036 26.3846 17.865 27.6542C16.665 27.6167 15.5399 27.2997 14.5519 26.7655V26.8555C14.5519 30.2942 17.0718 33.1611 20.4168 33.8136C19.8037 33.9749 19.1586 34.063 18.4911 34.063C18.0205 34.063 17.563 34.02 17.1167 33.9355C18.0466 36.7555 20.7468 38.8067 23.9474 38.8631C21.4443 40.7681 18.2923 41.9006 14.8668 41.9006C14.2761 41.9006 13.6949 41.8669 13.1211 41.8014C16.3592 43.815 20.1993 44.9906 24.3298 44.9906C37.7774 44.9906 45.1312 34.1757 45.1312 24.8006L45.1106 23.8818C46.5354 22.8842 47.7749 21.6354 48.7554 20.2104Z" fill="white"/>
</svg>
