<svg width="54" height="54" viewBox="0 0 54 54" fill="none" xmlns="http://www.w3.org/2000/svg">
<path fill-rule="evenodd" clip-rule="evenodd" d="M26.9959 53.9999C32.3361 54.0007 37.5567 52.4179 41.9974 49.4516C46.4381 46.4853 49.8993 42.2688 51.9436 37.3353C53.9878 32.4018 54.523 26.9728 53.4817 21.7351C52.4404 16.4973 49.8692 11.686 46.0934 7.90959C42.3175 4.13316 37.5066 1.56125 32.269 0.519113C27.0314 -0.523023 21.6024 0.0114226 16.6686 2.05486C11.7347 4.0983 7.51767 7.55895 4.55069 11.9992C1.58372 16.4394 9.33472e-05 21.6597 9.32836e-05 27C-0.00924497 30.5479 0.682617 34.0627 2.03592 37.3425C3.38923 40.6222 5.3773 43.6022 7.8859 46.1112C10.3945 48.6201 13.3742 50.6087 16.6537 51.9625C19.9332 53.3163 23.4479 54.0087 26.9959 53.9999ZM19.1751 39.2038C19.0044 39.2038 18.9669 39.0497 18.8503 38.881L6.43202 13.8259C8.64017 10.3937 11.6603 7.55878 15.2252 5.57199L24.1787 25.4883C24.2232 25.6221 24.311 25.7374 24.4282 25.8158C24.5455 25.8942 24.6855 25.9314 24.8262 25.9214H29.151C29.4737 25.9214 29.6903 25.8735 29.861 25.4883L38.8145 5.57199C42.3746 7.5699 45.3963 10.4023 47.6201 13.8259L35.0936 38.881C35.0478 39.0497 34.9395 39.2038 34.7687 39.2038C34.598 39.2038 34.5605 39.0497 34.446 38.881L29.7569 28.1889C29.7072 28.0455 29.6092 27.9239 29.4796 27.8449C29.3501 27.7659 29.1971 27.7344 29.0469 27.7558H24.7284C24.4035 27.7558 24.187 27.8183 24.0329 28.1889L19.4979 38.881C19.4375 39.0497 19.3292 39.2038 19.1751 39.2038ZM26.9959 21.4488C26.8418 21.4488 26.7877 21.2801 26.6711 21.124L19.0044 3.84168C24.167 1.97054 29.8226 1.97054 34.9853 3.84168L27.3186 21.124C27.2124 21.3384 27.1645 21.4488 26.9959 21.4488ZM26.9959 51.5179C13.5594 51.5179 2.54455 40.4552 2.54455 27.002C2.53864 24.0721 3.06714 21.1657 4.10412 18.4254L18.4193 47.1953C18.5734 47.5805 18.8503 47.9053 19.2834 47.9053C19.7165 47.9053 19.9768 47.5805 20.1454 47.1953L26.7335 32.4616C26.7793 32.2929 26.8876 32.1388 27.0563 32.1388C27.2249 32.1388 27.2645 32.2929 27.3811 32.4616L33.9671 47.1953C34.1212 47.5805 34.4002 47.9053 34.8312 47.9053C35.2622 47.9053 35.5246 47.5805 35.6953 47.1953L49.9959 18.4234C51.0439 21.1609 51.5769 24.0687 51.568 27C51.4597 40.4531 40.4469 51.5158 26.9959 51.5158V51.5179Z" fill="#353535"/>
</svg>
