<svg width="10" height="10" viewBox="0 0 10 10" fill="none" xmlns="http://www.w3.org/2000/svg">
<path d="M4.995 0C2.235 0 0 2.24 0 5C0 7.76 2.235 10 4.995 10C7.76 10 10 7.76 10 5C10 2.24 7.76 0 4.995 0ZM8.46 3H6.985C6.825 2.375 6.595 1.775 6.295 1.22C7.215 1.535 7.98 2.175 8.46 3ZM5 1.02C5.415 1.62 5.74 2.285 5.955 3H4.045C4.26 2.285 4.585 1.62 5 1.02ZM1.13 6C1.05 5.68 1 5.345 1 5C1 4.655 1.05 4.32 1.13 4H2.82C2.78 4.33 2.75 4.66 2.75 5C2.75 5.34 2.78 5.67 2.82 6H1.13ZM1.54 7H3.015C3.175 7.625 3.405 8.225 3.705 8.78C2.785 8.465 2.02 7.83 1.54 7ZM3.015 3H1.54C2.02 2.17 2.785 1.535 3.705 1.22C3.405 1.775 3.175 2.375 3.015 3ZM5 8.98C4.585 8.38 4.26 7.715 4.045 7H5.955C5.74 7.715 5.415 8.38 5 8.98ZM6.17 6H3.83C3.785 5.67 3.75 5.34 3.75 5C3.75 4.66 3.785 4.325 3.83 4H6.17C6.215 4.325 6.25 4.66 6.25 5C6.25 5.34 6.215 5.67 6.17 6ZM6.295 8.78C6.595 8.225 6.825 7.625 6.985 7H8.46C7.98 7.825 7.215 8.465 6.295 8.78ZM7.18 6C7.22 5.67 7.25 5.34 7.25 5C7.25 4.66 7.22 4.33 7.18 4H8.87C8.95 4.32 9 4.655 9 5C9 5.345 8.95 5.68 8.87 6H7.18Z" fill="white"/>
</svg>
