<svg width="60" height="60" viewBox="0 0 60 60" fill="none" xmlns="http://www.w3.org/2000/svg">
<path d="M30.0075 0H29.9925C13.4513 0 0 13.455 0 30C0 36.5625 2.115 42.645 5.71125 47.5838L1.9725 58.7288L13.5037 55.0425C18.2475 58.185 23.9062 60 30.0075 60C46.5487 60 60 46.5412 60 30C60 13.4588 46.5487 0 30.0075 0Z" fill="#4CAF50"/>
<path d="M47.4641 42.3637C46.7403 44.4074 43.8678 46.1024 41.5766 46.5974C40.0091 46.9312 37.9616 47.1974 31.0691 44.3399C22.2528 40.6874 16.5753 31.7287 16.1328 31.1474C15.7091 30.5662 12.5703 26.4037 12.5703 22.0987C12.5703 17.7937 14.7566 15.6974 15.6378 14.7974C16.3616 14.0587 17.5578 13.7212 18.7053 13.7212C19.0766 13.7212 19.4103 13.7399 19.7103 13.7549C20.5916 13.7924 21.0341 13.8449 21.6153 15.2362C22.3391 16.9799 24.1016 21.2849 24.3116 21.7274C24.5253 22.1699 24.7391 22.7699 24.4391 23.3512C24.1578 23.9512 23.9103 24.2174 23.4678 24.7274C23.0253 25.2374 22.6053 25.6274 22.1628 26.1749C21.7578 26.6512 21.3003 27.1612 21.8103 28.0424C22.3203 28.9049 24.0828 31.7812 26.6778 34.0912C30.0266 37.0724 32.7416 38.0249 33.7128 38.4299C34.4366 38.7299 35.2991 38.6587 35.8278 38.0962C36.4991 37.3724 37.3278 36.1724 38.1716 34.9912C38.7716 34.1437 39.5291 34.0387 40.3241 34.3387C41.1341 34.6199 45.4203 36.7387 46.3016 37.1774C47.1828 37.6199 47.7641 37.8299 47.9778 38.2012C48.1878 38.5724 48.1878 40.3162 47.4641 42.3637Z" fill="#FAFAFA"/>
</svg>
