<svg xmlns="http://www.w3.org/2000/svg" width="27" height="27" viewBox="0 0 27 27">
    <g fill="none" fill-rule="evenodd">
        <g fill="#323242" fill-rule="nonzero">
            <g>
                <path stroke="#323242" stroke-width=".5" d="M12.48 0C5.598 0 0 5.598 0 12.48c0 2.348.652 4.627 1.89 6.606C1.397 20.813.506 24.08.497 24.114c-.046.169.003.35.13.47.126.122.308.165.474.114l4.947-1.521c1.938 1.167 4.157 1.783 6.432 1.783 6.882 0 12.48-5.598 12.48-12.48C24.96 5.598 19.362 0 12.48 0zm0 24c-2.17 0-4.282-.606-6.11-1.752-.078-.049-.167-.073-.256-.073-.047 0-.095.007-.14.02l-4.32 1.33c.317-1.158.887-3.23 1.218-4.382.038-.134.017-.278-.059-.394C1.601 16.883.96 14.715.96 12.48.96 6.128 6.128.96 12.48.96 18.832.96 24 6.128 24 12.48 24 18.832 18.832 24 12.48 24z" transform="translate(-202 -701) translate(203 702)"/>
                <path d="M9.121 6.951h-.549c-.191 0-.502.072-.764.358-.263.286-1.004.977-1.004 2.382 0 1.406 1.028 2.764 1.17 2.955.144.19 1.984 3.168 4.897 4.313 2.422.951 2.915.762 3.44.714.526-.047 1.696-.69 1.935-1.358.24-.667.24-1.239.167-1.358-.071-.119-.263-.19-.55-.333-.286-.143-1.69-.846-1.954-.942-.262-.095-.453-.142-.645.144-.19.285-.754.946-.921 1.137-.167.19-.334.215-.621.072-.287-.144-1.2-.45-2.296-1.424-.852-.757-1.443-1.723-1.61-2.01-.168-.285-.018-.44.125-.582.13-.128.303-.303.446-.47.144-.167.184-.286.28-.476.096-.19.048-.358-.024-.5-.072-.144-.622-1.556-.877-2.121-.214-.476-.44-.492-.645-.5z" transform="translate(-202 -701) translate(203 702)"/>
            </g>
        </g>
    </g>
</svg>
