<svg width="19" height="13" viewBox="0 0 19 13" fill="none" xmlns="http://www.w3.org/2000/svg">
<path d="M18.6085 2.03419C18.3896 1.23876 17.7478 0.61173 16.934 0.397545C15.4472 0 9.49979 0 9.49979 0C9.49979 0 3.55265 0 2.06584 0.382473C1.26764 0.596431 0.610218 1.23887 0.391273 2.03419C0 3.48702 0 6.5 0 6.5C0 6.5 0 9.52817 0.391273 10.9658C0.61045 11.7611 1.25198 12.3882 2.06595 12.6023C3.56831 13 9.50002 13 9.50002 13C9.50002 13 15.4472 13 16.934 12.6175C17.7479 12.4035 18.3896 11.7764 18.6088 10.9811C18.9999 9.52817 18.9999 6.5153 18.9999 6.5153C18.9999 6.5153 19.0156 3.48702 18.6085 2.03419ZM7.60628 9.2835V3.7165L12.5518 6.5L7.60628 9.2835Z" fill="black"/>
</svg>
