<?xml version="1.0" encoding="utf-8"?><svg xmlns="http://www.w3.org/2000/svg" xmlns:xlink="http://www.w3.org/1999/xlink"><symbol fill="none" viewBox="0 0 18 18" id="arrow-down" xmlns="http://www.w3.org/2000/svg"><path d="M12.443 6.221L9 9.656 5.558 6.221 4.5 7.28l4.5 4.5 4.5-4.5-1.057-1.058z" fill="#fff"/></symbol><symbol fill="none" viewBox="0 0 18 19" id="arrow-up" xmlns="http://www.w3.org/2000/svg"><path d="M5.558 12.278L9 8.843l3.443 3.435 1.057-1.057L9 6.72l-4.5 4.5 1.058 1.057z" fill="#fff"/></symbol><symbol viewBox="0 0 24 29" id="arrow-upward" xmlns="http://www.w3.org/2000/svg"><defs><filter id="ca"><feColorMatrix in="SourceGraphic" values="0 0 0 0 1.000000 0 0 0 0 0.415686 0 0 0 0 0.000000 0 0 0 1.000000 0"/></filter></defs><g filter="url(#ca)" transform="translate(-906 -194)" fill="none" fill-rule="evenodd"><path d="M918.011 204.003c.233 0 .46.092.639.262l5.99 5.712c.424.403.482 1.125.13 1.61-.354.486-.984.553-1.408.149l-5.351-5.118-5.35 4.935a.92.92 0 01-.736.25.974.974 0 01-.672-.421 1.25 1.25 0 01-.248-.869c.026-.317.167-.606.388-.799l5.99-5.517a.902.902 0 01.628-.194z" fill="#000" fill-rule="nonzero"/></g></symbol><symbol fill="none" viewBox="0 0 35 13" id="autocity-usados" xmlns="http://www.w3.org/2000/svg"><path d="M17.23 3.814a.284.284 0 00.055.032c.04.014.084.02.126.017a.31.31 0 00.31-.309.341.341 0 00-.182-.283l-.01-.006c-1.565-1.09-2.762-1.157-3.913-1.222-1.08-.061-2.101-.118-3.447-1.017C9.143.345 7.81 0 6.201 0c-1.29.013-2.572.204-3.81.567l-.067.021a.31.31 0 00.086.61c.04 0 .078-.008.114-.024l.052-.017A13.343 13.343 0 016.202.618c1.48 0 2.697.31 3.615.923 1.487.993 2.642 1.058 3.757 1.12 1.07.061 2.175.127 3.598 1.113l.058.04zM15.768 4.78a2.113 2.113 0 100 4.225 2.113 2.113 0 000-4.225zm1.497 2.111a1.497 1.497 0 11-2.994.003 1.497 1.497 0 012.994-.003zM8.76 4.771a.31.31 0 00-.311.31v1.81a1.497 1.497 0 01-2.993 0V5.08a.31.31 0 00-.62 0v1.81a2.117 2.117 0 104.232 0V5.1v-.014a.314.314 0 00-.309-.316zM13.047 4.78H9.823a.308.308 0 00-.207.531.312.312 0 00.221.09h1.29V8.71a.31.31 0 10.62 0V5.4h1.303a.31.31 0 100-.62h-.003zM29.303 4.78h-3.224a.31.31 0 00.014.62h1.295V8.71a.31.31 0 10.621 0V5.4h1.298a.31.31 0 100-.62h-.004zM34.176 4.772a.308.308 0 00-.252.126l-1.389 1.767-1.613-1.77a.31.31 0 00-.526.019.31.31 0 00.03.353l.017.02 1.767 1.961v1.46a.313.313 0 00.31.315.31.31 0 00.32-.332V7.286l1.59-2.02a.304.304 0 00.058-.18.311.311 0 00-.312-.314zM20.88 5.4h1.436a.31.31 0 100-.62H20.88a2.118 2.118 0 100 4.234h1.435a.309.309 0 100-.618H20.88a1.498 1.498 0 110-2.996zM24.286 4.776a.305.305 0 00-.218.09.326.326 0 00-.092.23V8.71a.308.308 0 00.299.319.31.31 0 00.32-.32V5.071a.31.31 0 00-.309-.296zM4.311 8.557L2.433 5.003a.367.367 0 00-.677.024L.032 8.582A.317.317 0 000 8.708a.31.31 0 00.59.143l1.514-3.135 1.64 3.107a.316.316 0 00.607-.114.303.303 0 00-.03-.127.066.066 0 00-.01-.025zM11.896 12.956a1.54 1.54 0 01-.712 0 .682.682 0 01-.234-.106.42.42 0 01-.132-.163.646.646 0 01-.062-.192 1.308 1.308 0 01-.014-.212v-1.155h.3v1.114a.529.529 0 00.104.359.52.52 0 00.396.117c.197 0 .331-.038.403-.116a.521.521 0 00.106-.36v-1.114h.293v1.153c0 .072-.005.143-.015.214a.69.69 0 01-.065.192.455.455 0 01-.134.163.668.668 0 01-.234.106zM13.747 12.99a1.396 1.396 0 01-.815-.225l.151-.23c.195.128.424.195.657.192.13.01.26-.013.378-.066a.236.236 0 00.108-.219.189.189 0 00-.112-.188 1.575 1.575 0 00-.378-.094 3.13 3.13 0 01-.246-.045 1.203 1.203 0 01-.19-.061.373.373 0 01-.235-.23.544.544 0 01-.033-.197.461.461 0 01.174-.407.955.955 0 01.54-.126c.243-.012.484.049.692.175l-.16.244a.864.864 0 00-.24-.1 1.108 1.108 0 00-.295-.041.638.638 0 00-.32.058.2.2 0 00-.094.186.194.194 0 00.079.161.35.35 0 00.103.046 2.247 2.247 0 00.297.063c.1.016.18.031.24.043.065.014.128.034.19.059.058.02.111.05.157.09.039.04.07.088.09.14a.54.54 0 01.037.205.496.496 0 01-.183.424.99.99 0 01-.592.143zM14.963 12.966l.737-1.85h.306l.74 1.85h-.31l-.137-.352h-.9l-.137.352h-.3zm.54-.631h.69l-.346-.86-.344.86zM17.34 12.966v-1.838h.632c.153-.003.305.011.455.042a.71.71 0 01.303.148.57.57 0 01.174.281c.039.146.056.296.052.447 0 .346-.076.586-.228.72-.153.133-.411.2-.775.2h-.612zm.301-.278h.322c.266 0 .448-.048.544-.141.096-.093.144-.261.144-.505.002-.1-.008-.201-.028-.3a.398.398 0 00-.102-.192.424.424 0 00-.207-.11 1.54 1.54 0 00-.341-.03h-.332v1.278zM20.438 13c-.631 0-.947-.316-.947-.95 0-.632.316-.948.947-.947.633 0 .95.316.95.948 0 .632-.317.948-.95.949zm0-.28a.632.632 0 00.492-.168.866.866 0 000-.99.63.63 0 00-.492-.169c-.43 0-.645.221-.645.663a.708.708 0 00.155.496.638.638 0 00.49.163v.005zM22.69 12.99a1.399 1.399 0 01-.816-.225l.152-.23c.194.128.424.195.657.192.13.01.26-.013.379-.066a.237.237 0 00.108-.219.189.189 0 00-.112-.188 1.575 1.575 0 00-.379-.094 4.074 4.074 0 01-.252-.045 1.235 1.235 0 01-.19-.062.45.45 0 01-.15-.093.387.387 0 01-.085-.136.548.548 0 01-.032-.197.465.465 0 01.173-.407.959.959 0 01.541-.126c.243-.012.484.049.692.175l-.153.248a1.097 1.097 0 00-.533-.141.64.64 0 00-.321.058.202.202 0 00-.094.185.195.195 0 00.079.162c.032.02.066.036.103.045a1.632 1.632 0 00.298.063c.101.017.18.032.239.043.065.015.13.035.191.06.058.02.11.05.156.09.038.04.07.088.09.14.027.065.04.135.038.205a.498.498 0 01-.184.424.987.987 0 01-.596.139z" fill="#353535"/></symbol><symbol fill="none" viewBox="0 0 24 24" id="close" xmlns="http://www.w3.org/2000/svg"><path fill-rule="evenodd" clip-rule="evenodd" d="M20.4 5.28L18.72 3.6 12 10.32 5.28 3.6 3.6 5.28 10.32 12 3.6 18.72l1.68 1.68L12 13.68l6.72 6.72 1.68-1.68L13.68 12l6.72-6.72z" fill="#fff"/></symbol><symbol fill="none" viewBox="0 0 11 11" id="contact" xmlns="http://www.w3.org/2000/svg"><path d="M7.944 0H1.222C.55 0 0 .55 0 1.222v8.556C0 10.45.55 11 1.222 11h8.556C10.45 11 11 10.45 11 9.778V3.056L7.944 0zm-5.5 2.444H5.5v1.223H2.444V2.444zm6.112 6.112H2.444V7.333h6.112v1.223zm0-2.445H2.444V4.89h6.112V6.11zM7.333 3.667V1.222l2.445 2.445H7.333z" fill="#fff"/></symbol><symbol viewBox="0 0 57 57" id="faq" xmlns="http://www.w3.org/2000/svg"><g fill="none" fill-rule="evenodd"><path fill="#FFC500" stroke="#323242" stroke-width="2.3" d="M29.719 2.306l.405.638c.264.414.694.694 1.177.771l1.707.27c.485.077.979-.058 1.358-.37l.582-.48a1.713 1.713 0 012.748.893l.189.73c.123.476.445.876.882 1.099l1.539.784a1.72 1.72 0 001.406.068l.702-.278a1.714 1.714 0 012.338 1.7l-.046.753c-.03.49.151.968.498 1.316l1.221 1.221c.348.348.827.529 1.317.499l.753-.046a1.714 1.714 0 011.7 2.338l-.278.702a1.71 1.71 0 00.068 1.405l.784 1.54c.223.437.623.758 1.098.881l.731.189a1.713 1.713 0 01.893 2.748l-.48.583a1.708 1.708 0 00-.37 1.357l.27 1.707c.077.484.357.913.771 1.177l.637.405a1.713 1.713 0 010 2.89l-.637.405a1.72 1.72 0 00-.772 1.178l-.27 1.706c-.076.485.058.98.37 1.358l.48.582a1.712 1.712 0 01-.892 2.748l-.731.19a1.712 1.712 0 00-1.098.88l-.784 1.54a1.71 1.71 0 00-.068 1.405l.277.703a1.713 1.713 0 01-1.699 2.338l-.753-.046c-.49-.03-.97.151-1.317.498l-1.221 1.222a1.712 1.712 0 00-.498 1.316l.046.754a1.714 1.714 0 01-2.338 1.698l-.702-.277a1.712 1.712 0 00-1.406.068l-1.54.784a1.717 1.717 0 00-.881 1.098l-.189.731a1.713 1.713 0 01-2.748.893l-.582-.48a1.71 1.71 0 00-1.358-.37l-1.707.27a1.714 1.714 0 00-1.177.771l-.405.637a1.713 1.713 0 01-2.89 0l-.405-.637a1.716 1.716 0 00-1.177-.772l-1.707-.27a1.716 1.716 0 00-1.357.37l-.583.48a1.712 1.712 0 01-2.748-.892l-.189-.731a1.712 1.712 0 00-.88-1.098l-1.54-.784a1.713 1.713 0 00-1.406-.068l-.702.277a1.713 1.713 0 01-2.338-1.698l.046-.754c.03-.49-.152-.97-.499-1.316l-1.221-1.222a1.715 1.715 0 00-1.316-.498l-.754.046a1.714 1.714 0 01-1.699-2.338l.278-.703a1.718 1.718 0 00-.068-1.405l-.785-1.54a1.708 1.708 0 00-1.097-.88l-.731-.19a1.713 1.713 0 01-.893-2.748l.48-.582c.312-.379.447-.873.37-1.358l-.27-1.706a1.713 1.713 0 00-.772-1.178l-.637-.405a1.714 1.714 0 010-2.89l.637-.405c.415-.264.695-.693.772-1.177l.27-1.707a1.712 1.712 0 00-.37-1.357l-.48-.583a1.713 1.713 0 01.893-2.748l.731-.189a1.714 1.714 0 001.097-.88l.785-1.54a1.72 1.72 0 00.068-1.406l-.278-.702a1.713 1.713 0 011.7-2.338l.753.046c.49.03.968-.151 1.316-.499l1.221-1.221c.347-.348.53-.827.5-1.316l-.047-.754a1.713 1.713 0 012.338-1.699l.702.278a1.72 1.72 0 001.406-.068l1.54-.784c.436-.223.758-.623.88-1.098l.189-.731a1.713 1.713 0 012.748-.893l.583.48c.379.312.873.447 1.357.37l1.707-.27a1.715 1.715 0 001.177-.771l.405-.638a1.714 1.714 0 012.89 0z"/><path fill="#323242" d="M25.831 41.408c0-1.124.866-1.729 1.643-1.729.865 0 1.73.605 1.73 1.73 0 1.037-.865 1.642-1.73 1.642-.777 0-1.643-.605-1.643-1.643m.779-7.264v-1.21c0-2.032.864-3.459 3.112-5.663 3.33-3.244 4.108-4.54 4.108-6.702 0-3.286-2.379-5.663-5.578-5.663-2.637 0-4.626 1.686-5.706 4.41a.617.617 0 01-.563.389c-.388 0-.648-.26-.648-.649 0-.172.086-.432.173-.648.994-2.767 3.545-4.756 6.701-4.756 3.934 0 7.004 2.983 7.004 6.874 0 2.508-.994 4.237-4.626 7.609-1.946 1.817-2.55 2.984-2.594 4.8l-.043 1.253c0 .389-.303.649-.692.649-.389 0-.648-.303-.648-.693"/></g></symbol><symbol viewBox="0 0 15 28" id="fb" xmlns="http://www.w3.org/2000/svg"><path fill="none" stroke="#344251" stroke-width="2" d="M3.788 26.702h5.36v-12.96h3.74l.398-4.34H9.148v-2.47c0-1.024.213-1.43 1.238-1.43h2.9V1H9.575C5.587 1 3.788 2.697 3.788 5.943v3.459H1v4.394h2.788v12.906z"/></symbol><symbol fill="none" viewBox="0 0 27 20" id="fiat" xmlns="http://www.w3.org/2000/svg"><path d="M11.179.028l.231 19.802h2.352l.02-8.942h2.973c.264 1.633.29 8.376.29 8.9v.052h2.288c.088-5.037.48-14.396-2.33-19.812h-5.824zm2.471 8.559l.058-6.311s1.3.012 1.452.012h.03c.532 1.113.884 2.718 1.098 3.913.235 1.294.35 2.386.35 2.386H13.65zM7.15 19.84h2.493L9.7 0H6.766l.385 19.84zm-6.583-.026l2.42.026-.034-8.998h2.15v-2.36H2.946V2.398h2.778V.036L0 .005l.567 19.809zM19.044.028v2.325h2.115l-.088 17.492h2.436l.58-17.492h2.083V0l-7.126.028z" fill="#353535"/></symbol><symbol fill="none" viewBox="0 0 33 33" id="form-button" xmlns="http://www.w3.org/2000/svg"><path d="M23.833 0H3.667A3.677 3.677 0 000 3.667v25.666A3.677 3.677 0 003.667 33h25.666A3.677 3.677 0 0033 29.333V9.167L23.833 0zm-16.5 7.333H16.5V11H7.333V7.333zm18.334 18.334H7.333V22h18.334v3.667zm0-7.334H7.333v-3.666h18.334v3.666zM22 11V3.667L29.333 11H22z" fill="#353535"/></symbol><symbol fill="none" viewBox="0 0 75 75" id="form-success" xmlns="http://www.w3.org/2000/svg"><path d="M37.5 0C58.21 0 75 16.79 75 37.5S58.21 75 37.5 75 0 58.21 0 37.5C-.059 16.848 16.635.06 37.287 0h.213z" fill="#3BB54A"/><path d="M57.895 28.389L31.748 55.263 17.105 40.321l5.962-6.02 8.68 8.815L51.935 22.37l5.96 6.02z" fill="#fff"/></symbol><symbol viewBox="0 0 26 26" id="ig" xmlns="http://www.w3.org/2000/svg"><g fill="none" fill-rule="evenodd"><path stroke="#323242" stroke-width="1.534" d="M24.69 18.419a6.446 6.446 0 01-6.438 6.438H7.215a6.446 6.446 0 01-6.439-6.438V7.382A6.445 6.445 0 017.215.944h11.037a6.445 6.445 0 016.438 6.438v11.037z"/><path stroke="#323242" stroke-width="1.534" d="M12.733 18.544a5.65 5.65 0 01-5.642-5.643 5.649 5.649 0 015.642-5.644c3.11 0 5.642 2.53 5.642 5.644a5.65 5.65 0 01-5.642 5.642z"/><path fill="#323242" d="M19.586 4.991a1.208 1.208 0 11-.001 2.418 1.21 1.21 0 110-2.418"/></g></symbol><symbol fill="none" viewBox="0 0 38 14" id="jeep" xmlns="http://www.w3.org/2000/svg"><path fill-rule="evenodd" clip-rule="evenodd" d="M31.722 2.63a3.377 3.377 0 00-2.163.852v-.56h-2.556V13.57h2.56v-3.294c.447.401 1.489.768 2.256.768 1.895-.023 3.383-1.512 3.383-3.985-.012-2.817-1.006-4.436-3.48-4.428zm.887 4.372c0 1.04-.61 2.183-1.478 2.183s-1.577-.52-1.577-1.8v-.888c0-1.28.709-1.973 1.58-1.973.871 0 1.477.701 1.477 1.981l-.002.497zM2.672 6.297H.03c-.29 3.263 1.513 5.245 4.647 5.245 2.884 0 4.306-1.314 4.306-4.182V0H6.367v7.334C6.352 8.47 5.63 9.243 4.456 9.175c-.852-.047-1.75-.46-1.784-1.967v-.911zM22.192 2.671c-2.216 0-3.918 1.744-3.918 4.456 0 2.785 1.714 4.302 3.933 4.302 1.607 0 3.35-.679 3.827-2.736h-2.627c-.199.492-.594.73-1.03.73-.726 0-1.456-.626-1.51-1.63h5.325c.364-3.292-1.44-5.122-4-5.122zm-1.325 3.447c.074-.949.614-1.438 1.432-1.438.647 0 1.212.678 1.212 1.438h-2.644zM13.731 2.671c-2.217 0-3.919 1.744-3.919 4.456 0 2.785 1.715 4.302 3.932 4.302 1.61 0 3.352-.679 3.827-2.736h-2.628c-.193.492-.593.73-1.029.73-.723 0-1.452-.626-1.508-1.63h5.324c.363-3.292-1.438-5.122-3.999-5.122zm-1.325 3.447c.074-.949.612-1.438 1.43-1.438.646 0 1.215.678 1.215 1.438h-2.645zM36.03 11.566a.871.871 0 110 1.743.871.871 0 010-1.743v-.119a.987.987 0 00-.699 1.687.987.987 0 10.7-1.687v.12z" fill="#353535"/><path fill-rule="evenodd" clip-rule="evenodd" d="M35.799 11.98h.315c.137 0 .29.02.29.193 0 .225-.24.199-.394.199h-.207v.107h.247l.316.508h.16l-.333-.508c.193-.006.35-.087.35-.304a.272.272 0 00-.126-.238.513.513 0 00-.268-.054h-.484v1.098h.135V11.98h-.001z" fill="#353535"/></symbol><symbol fill="none" viewBox="0 0 33 27" id="nissan" xmlns="http://www.w3.org/2000/svg"><path d="M18.792 14.576a1.277 1.277 0 01-.173.007h-3.3v.768h3.358c.026 0 .224 0 .262-.006.687-.065.999-.634.999-1.134 0-.5-.327-1.062-.947-1.12a2.515 2.515 0 00-.269-.013h-2.195a1.128 1.128 0 01-.243-.018.323.323 0 01-.237-.327.328.328 0 01.244-.32.908.908 0 01.23-.02h3.167v-.755H16.47a2.15 2.15 0 00-.32.018 1.065 1.065 0 00-.934 1.08c0 .462.289 1 .922 1.09.115.012.275.012.345.012h2.137c.052-.001.103 0 .154.007a.351.351 0 01.326.371.358.358 0 01-.31.36zM12.535 14.577a1.273 1.273 0 01-.167.006H9.061v.768h3.36c.025 0 .223 0 .261-.006.687-.065.998-.634.998-1.134 0-.5-.326-1.062-.947-1.12a2.516 2.516 0 00-.269-.013H10.27a1.126 1.126 0 01-.242-.018.324.324 0 01-.237-.327.329.329 0 01.243-.32.907.907 0 01.23-.02h3.167v-.755H10.21a2.138 2.138 0 00-.32.019 1.066 1.066 0 00-.934 1.08c0 .461.288 1 .922 1.088.115.013.275.013.345.013h2.137c.051-.001.103 0 .153.007a.368.368 0 01.02.73l.001.002zM7.34 11.614h-.833v3.759h.832v-3.759zM4.672 15.373v-3.759h-.833v2.804l-2.77-2.804H0v3.759h.832v-2.818l2.79 2.818h1.05zM31.423 11.614v2.804l-2.77-2.804h-1.07v3.759h.833v-2.818l2.784 2.818h1.048v-3.759h-.825zM23.253 11.614l-2.342 3.759h1.01l.416-.673h2.733l.415.673h1.005l-2.341-3.759h-.896zm1.388 2.373h-1.875l.941-1.51.934 1.51zM4.626 9.482a12.134 12.134 0 0111.505-8.189c5.208 0 9.834 3.291 11.503 8.189l.014.038h3.666v-.442L29.791 8.9c-.94-.109-1.139-.525-1.395-1.05l-.064-.128C26.132 3.035 21.34 0 16.131 0S6.129 3.035 3.929 7.734l-.064.128c-.256.525-.454.941-1.395 1.05l-1.523.18v.44h3.66l.02-.05zM27.648 17.473l-.014.039a12.127 12.127 0 01-11.504 8.182c-5.207 0-9.834-3.291-11.504-8.19l-.012-.038H.954v.442l1.522.18c.94.108 1.14.524 1.395 1.05l.064.127C6.136 23.965 10.93 27 16.137 27s10.001-3.035 12.202-7.728l.064-.129c.256-.524.454-.94 1.395-1.05l1.523-.179v-.44h-3.673z" fill="#353535"/></symbol><symbol fill="none" viewBox="0 0 26 28" id="peugeot" xmlns="http://www.w3.org/2000/svg"><path d="M7.164 17.113a.098.098 0 01-.085-.007.097.097 0 01-.046-.072c-.031-.144-.113-.636-.138-.78a.112.112 0 01.082-.146c.35-.114.94-.313 1.416-.485a.38.38 0 00.228-.201c.194-.317.687-1.18.917-1.626a.206.206 0 00-.007-.2l-.104-.175a.358.358 0 00-.194-.141c-.484-.123-1.121-.28-1.422-.353a.38.38 0 00-.203.008l-.056.017c.463.158.857.3 1.356.485a.194.194 0 01.103.11l.046.15a.248.248 0 01-.017.184c-.247.467-.539.91-.87 1.32a.396.396 0 01-.166.119c-.284.107-.8.277-1.025.335a.105.105 0 01-.103-.02 6.957 6.957 0 01-.502-.431s-.028.345-.03.499c0 .017.003.034.01.05.058.135.16.392.201.523.012.034.02.064.03.097.056.227.212.893.212.893.024.097.08.136.169.117.115-.026.484-.128.632-.179a.174.174 0 00.062-.036l.26-.239s-.551.145-.756.184z" fill="#fff"/><path d="M7.996 15.068c.234-.295.45-.607.642-.93l-1.534 1.265c.252-.077.592-.193.798-.269a.226.226 0 00.094-.066zM8.031 9.967l-.274.023a.044.044 0 00-.04.042l-.026.325a.025.025 0 00.03.027l.277-.062a.135.135 0 00.088-.07.312.312 0 00.007-.248.06.06 0 00-.062-.037zM5.358 14.047l.417.49.122-.846a.736.736 0 00-.539.356zM18.944 13.957c-.17-.302-1.016-1.447-2.074-2.553a.425.425 0 00-.136-.097l-.168-.07s.308 1.347.446 2.085c.018.093.063.18.13.247.39.37.74.779 1.047 1.22.114.167.18.363.194.565.072 1.066.038 2.54-.081 3.36a.4.4 0 01-.174.312c-1.024.829-2.718 2.288-3.445 3.003a.96.96 0 00-.151.18 3.63 3.63 0 00-.194.36 6.468 6.468 0 01-.211-.82.877.877 0 010-.31c.088-.617.52-2.044.59-2.258a.166.166 0 00.01-.057v-.136c-.157.327-.96 2.137-1.13 2.76a.387.387 0 000 .28c.104.3.408 1.043.547 1.347 0 0 .33-.62.522-.932.054-.087.119-.166.194-.235.571-.529 2.627-2.247 3.588-2.97a.463.463 0 00.203-.3c.412-1.565.534-3.193.361-4.803a.49.49 0 00-.068-.178zM14.733 9.614a.342.342 0 00.04-.226 9.62 9.62 0 00-.12-.572.103.103 0 00-.057-.07l-.29-.139a.203.203 0 00-.122-.017c-.699.124-1.435.269-1.991.396a.162.162 0 00-.108.08l-.173.299a.04.04 0 00.026.058c.146.027.443.08.545.097.045.01.093.005.135-.015.353-.146.929-.37 1.356-.525a.155.155 0 01.104 0l.194.063a.116.116 0 01.068.055c.054.097.11.194.143.268a.176.176 0 01-.03.173c-.145.21-.394.543-.565.75a.178.178 0 00-.033.164c.097.346.317 1.06.434 1.4a.23.23 0 00.068.104l.164.15s-.26-1.207-.323-1.55a.203.203 0 01.026-.155c.143-.205.389-.58.509-.788z" fill="#fff"/><path d="M20.98 10.605a.275.275 0 00-.126-.187c-.782-.581-2.19-1.41-3.027-1.76a.462.462 0 00-.338-.009c-.4.147-1.038.416-1.7.728 0 0 .29.021.43.038.057.009.114.005.168-.013.204-.055.566-.144.85-.21a.49.49 0 01.398.085c.387.29 1.017.796 1.418 1.134.07.058.15.105.234.139.61.246.88.368 1.016.439a.373.373 0 01.194.242c.159.614.265 1.55.32 2.233a.895.895 0 01-.048.371 11.259 11.259 0 01-.84 1.683.387.387 0 01-.085.097 10.26 10.26 0 01-.343.278.087.087 0 00-.035.068c0 .264-.053.775-.053.775.587-.736 1.145-1.691 1.64-2.705a.55.55 0 00.066-.209c.115-1.09.045-2.382-.139-3.217zM13.186 23.776c-.139-.311-.857-2.012-1.052-2.663a1.073 1.073 0 01-.051-.552c.164-1.6.739-4.147.829-4.495a.297.297 0 000-.17c-.024-.132-.097-.589-.097-.589-.26.603-1.185 3.09-1.527 4.553-.064.276-.053.35 0 .5.492 1.274 1.743 3.576 1.973 3.924l-.051-.401a.414.414 0 00-.024-.107z" fill="#fff"/><path d="M12.07 23.875s-.273-.176-.356-.232a.992.992 0 01-.158-.12c-.569-.516-2.566-2.972-3.165-4.038a.685.685 0 01-.12-.445c.012-.205.052-.602.092-.836a.53.53 0 01.182-.353c.34-.308.887-.859 1.174-1.15.102-.097.188-.21.254-.335.264-.492 1.065-2.237 1.335-2.954a.455.455 0 00.032-.291c-.05-.376-.35-1.346-.35-1.346l-.026.325a.258.258 0 000 .067c.059.324.096.652.112.982a.419.419 0 01-.059.24c-.403.793-1.976 2.906-2.971 4.055a.679.679 0 00-.174.36c-.052.241-.11.793-.148 1.232-.02.236-.004.317.146.566.6.998 2.642 3.39 3.307 3.94.044.038.09.07.141.098.234.126.871.443.871.443l-.096-.174a.11.11 0 00-.023-.034zM9.105 9.64l1.268-.398a.299.299 0 00.176-.143l.677-1.162a.041.041 0 000-.042.041.041 0 00-.037-.02l-.58.009a.568.568 0 00-.161.026c-.556.196-1.099.43-1.624.7a.396.396 0 00-.12.102l-.61.752a.194.194 0 01-.076.057l-.394.167a.085.085 0 00-.043.041l-.018.04s.835-.026 1.117-.048a1.88 1.88 0 00.425-.082z" fill="#fff"/><path d="M11.429 6.891c1.597-.12 3.433-.086 3.878-.075a.636.636 0 01.194.034l.326.108c-.802.043-2.738.215-3.522.35l.276.043c.02.002.04.002.059 0 .58-.035 1.715-.072 2.213-.079a.69.69 0 01.309.056c.29.112.871.375 1.113.497a.74.74 0 00.342.091c.26.01.66.038.953.07.08.008.158.03.23.068.628.322 1.237.68 1.825 1.071.03.02.062.033.097.04l.244.048s-.787-.8-1.095-1.076a.952.952 0 00-.145-.104c-1.17-.669-2.226-1.214-2.814-1.463a.935.935 0 00-.298-.073 33.166 33.166 0 00-5.103.02.304.304 0 00-.228.125c-.054.08-.143.223-.225.356a.73.73 0 01-.145.172c-.253.222-.678.582-.945.781l-.054.04a51.09 51.09 0 01-.55.365.173.173 0 00-.05.046l-.133.171c1.114-.627 2.533-1.413 3.02-1.627a.688.688 0 01.228-.055zM6.227 10.428a.23.23 0 01-.05.048 30.88 30.88 0 00-1.767 1.343c-.089.088-.174.174-.253.255-.078.081-.086.097-.09.157-.005.06-.007.114-.007.151 0 .02.005.039.016.055.015.022.097.11.111.13a.023.023 0 00.031 0c.147-.104.354-.257.54-.399a.296.296 0 00.053-.057c.032-.054.073-.133.097-.182a.134.134 0 01.064-.068l.15-.097a3.393 3.393 0 01-.146.467.356.356 0 01-.056.086c-.146.153-.41.449-.543.611a.144.144 0 00.007.176c.162.23.338.448.528.655.032.038.07.07.113.097.034.02.07.037.108.05 0 0 .127-.608.18-.797a.182.182 0 01.139-.136c.65-.16 2.055-.394 2.055-.394a12.244 12.244 0 00-.79-.814.252.252 0 00-.147-.065c-.181-.021-.775-.064-.775-.064l.09-.097a.225.225 0 01.105-.066 46.226 46.226 0 002.27-.858.689.689 0 00.28-.194 5.15 5.15 0 00.18-.2.07.07 0 00.018-.036c0-.018.006-.05.006-.05s-.242.182-.338.249a.665.665 0 01-.25.117c-.2.052-.58.141-.799.194a.213.213 0 01-.145-.006 1.83 1.83 0 01-.145-.06.141.141 0 00-.112-.012c-.198.045-.74.178-.74.178s.25-.223.268-.237a.251.251 0 01.074-.04c.188-.075.42-.159.615-.238a.089.089 0 00.068-.084c.012-.15.055-.422.081-.565a.124.124 0 01.052-.088c.115-.09.536-.414.636-.485l.019-.018.115-.137c-.3.175-.834.492-1.11.667a2.575 2.575 0 00-.29.207.194.194 0 00-.036.035c-.079.091-.375.475-.48.616zM5.782 4.892V3.18a76.792 76.792 0 012.18-.163v.28c-.633.039-1.267.085-1.9.139v.425c.56-.047 1.12-.09 1.682-.126v.28c-.561.035-1.122.077-1.682.126v.446a77.9 77.9 0 011.9-.14v.28c-.726.045-1.453.1-2.18.164zM2.813 5.212v-1.71c.575-.073 1.15-.14 1.726-.2a.702.702 0 01.248.01.365.365 0 01.175.097.356.356 0 01.088.162c.013.057.02.116.02.175v.2a.74.74 0 01-.021.175.43.43 0 01-.263.304.783.783 0 01-.247.059c-.482.046-.965.102-1.448.166v.532l-.279.03zm.278-.846a58.824 58.824 0 011.537-.174.182.182 0 00.16-.176v-.3a.143.143 0 00-.16-.144c-.513.054-1.025.112-1.537.175v.619zM18.288 4.765a1.452 1.452 0 01-.268-.039.529.529 0 01-.2-.096.365.365 0 01-.119-.179.716.716 0 01-.025-.193v-.77c-.001-.066.008-.131.025-.194a.31.31 0 01.123-.165.44.44 0 01.201-.072c.09-.008.179-.008.268 0 .378.026.757.055 1.135.086.09.006.18.02.267.044a.52.52 0 01.202.103c.056.047.097.11.117.18a.69.69 0 01.026.2v.763a.651.651 0 01-.026.194.297.297 0 01-.117.16.438.438 0 01-.202.067 1.374 1.374 0 01-.267 0 58.76 58.76 0 00-1.14-.089zm-.174-1.441a.148.148 0 00-.16.149v.831a.172.172 0 00.16.17l.14.01h.033c.377.024.753.053 1.13.083h.022l.15.013a.143.143 0 00.16-.146v-.826a.176.176 0 00-.16-.173c-.488-.041-.98-.078-1.475-.111zM21.6 5.06V3.63a84.765 84.765 0 00-1.001-.105v-.279c.76.074 1.52.159 2.279.255v.277a68.569 68.569 0 00-1-.12v1.434L21.6 5.06zM14.764 4.603v-1.71c.728.017 1.456.044 2.184.081v.28a81.398 81.398 0 00-1.905-.075v.425c.563.015 1.124.037 1.686.065v.279a81.504 81.504 0 00-1.685-.064v.446c.634.018 1.27.043 1.904.076v.279a81.806 81.806 0 00-2.184-.082zM12.344 4.582c-.09.002-.18-.004-.268-.019a.468.468 0 01-.201-.083.327.327 0 01-.118-.169.672.672 0 01-.027-.194v-.76a.485.485 0 01.127-.366c.085-.08.222-.118.433-.12.54-.003 1.08-.002 1.619.006v.28c-.581-.008-1.16-.008-1.735 0a.16.16 0 00-.159.156v.832a.158.158 0 00.099.147c.02.008.04.012.06.011H13.755V3.86h-.911v-.28c.396 0 .792.003 1.189.009v1.001a81.552 81.552 0 00-1.688-.007zM9.305 4.657a1.42 1.42 0 01-.268-.01.463.463 0 01-.202-.075.32.32 0 01-.111-.164.658.658 0 01-.026-.194V2.979l.28-.015v1.268a.151.151 0 00.16.152c.476-.022.952-.04 1.427-.053a.167.167 0 00.16-.165V2.898l.28-.006v1.233c.002.065-.007.13-.025.194a.346.346 0 01-.118.174.51.51 0 01-.202.09 1.549 1.549 0 01-.268.03c-.365.014-.726.027-1.087.044z" fill="#fff"/><path d="M25.07 1.647a71.26 71.26 0 00-24.444 0C.564 3.316.494 5.895.613 8.084c.265 4.88 1.34 8.668 3.382 11.916 2.043 3.248 5.192 6.032 8.854 7.689 3.662-1.657 6.817-4.446 8.852-7.69 2.036-3.243 3.119-7.04 3.389-11.915.113-2.194.042-4.773-.02-6.437zm-.454 6.41c-.261 4.798-1.313 8.515-3.313 11.698a20.06 20.06 0 01-8.454 7.421 20.063 20.063 0 01-8.456-7.421c-1.998-3.183-3.05-6.9-3.31-11.697-.086-1.567-.086-3.536 0-6.012a70.752 70.752 0 0123.532 0c.083 2.471.083 4.445 0 6.007v.005z" fill="#fff"/></symbol><symbol fill="none" viewBox="0 0 12 12" id="phone" xmlns="http://www.w3.org/2000/svg"><path d="M2.36 1.333c.04.594.14 1.174.3 1.727l-.8.8a9.884 9.884 0 01-.507-2.527H2.36zm6.573 8.014c.567.16 1.147.26 1.734.3v.993c-.88-.06-1.727-.233-2.534-.5l.8-.793zM3 0H.667C.3 0 0 .3 0 .667 0 6.927 5.073 12 11.333 12c.367 0 .667-.3.667-.667V9.007c0-.367-.3-.667-.667-.667a7.605 7.605 0 01-2.38-.38.683.683 0 00-.68.16L6.807 9.587a10.1 10.1 0 01-4.394-4.394L3.88 3.727a.669.669 0 00.167-.68 7.574 7.574 0 01-.38-2.38C3.667.3 3.367 0 3 0z" fill="#fff"/></symbol><symbol fill="none" viewBox="0 0 19 25" id="renault" xmlns="http://www.w3.org/2000/svg"><path fill-rule="evenodd" clip-rule="evenodd" d="M8.082 20.521c.2-.373.428-.782.626-1.172.385-.759.385-.44 0-1.194-.393-.78-.819-1.551-1.243-2.323-.525-.959-1.031-1.983-1.567-2.942-.231-.415-.216-.357-.097-.589.205-.4.41-.777.615-1.158.828-1.53 1.667-3.185 2.502-4.678.199-.357 2.343-4.474 2.489-4.642l.79 1.448c.24.491.525.957.769 1.447.244.49.507.966.77 1.448.77 1.39 1.546 2.977 2.309 4.343.272.483.503.965.77 1.448.288.519.32.482.192.719-.128.236-.257.495-.385.726-.53.95-1.032 1.93-1.54 2.895-.26.49-.527.965-.77 1.447-.456.902-1.104 2.009-1.544 2.896l-1.54 2.895c-.126.233-.258.489-.384.729s-.289.482-.385.733l1.908-.006c.384-.831 1.18-2.193 1.661-3.123.66-1.271 4.972-9.273 4.972-9.37 0-.096-4.312-8.095-4.972-9.37C13.553 2.213 12.744.814 12.367 0l-1.925.006c-.317.682-.988 1.854-1.371 2.58-.454.855-.914 1.688-1.364 2.556-.449.869-.943 1.723-1.372 2.584-.216.434-.454.862-.688 1.285-.235.424-.448.856-.674 1.272-.235.435-.45.845-.692 1.284-.117.215-.237.45-.346.661-.198.386-.15.24.046.635.217.434.454.862.69 1.287.68 1.225 1.347 2.575 2.035 3.826.18.327 1.289 2.458 1.38 2.541l-.004.004z" fill="#353535"/><path fill-rule="evenodd" clip-rule="evenodd" d="M6.807 21.731c-.408-.828-1.085-2.027-1.54-2.895-.257-.483-.5-.965-.77-1.448-.769-1.372-1.539-2.958-2.308-4.343-.07-.126-.132-.237-.193-.36-.104-.2-.104-.16 0-.36.124-.24.257-.494.385-.725.531-.95 1.032-1.93 1.54-2.895C4.436 7.706 8.397.364 8.54.004L6.638.01c-.245.515-.555 1.055-.834 1.562L0 12.502c0 .096 4.313 8.098 4.972 9.37.275.53.55 1.046.832 1.56.283.515.589 1.047.834 1.568l1.924-.007c.319-.684.988-1.85 1.373-2.58.452-.855.912-1.686 1.363-2.555.45-.869.943-1.723 1.372-2.584l1.36-2.557c.236-.436.452-.845.693-1.284.608-1.11.512-.868.3-1.296-.213-.428-.457-.86-.688-1.286-.328-.592-3.296-6.26-3.415-6.37-.201.373-.428.782-.626 1.172-.385.76-.385.44 0 1.195.39.78.818 1.552 1.241 2.324.424.772.82 1.584 1.251 2.356l.472.884c.059.131 0 .17-.061.29-.205.4-.41.772-.615 1.158L10.7 17.388c-.333.608-2.958 5.622-3.105 5.79l-.79-1.447h.002z" fill="#353535"/></symbol><symbol fill="none" viewBox="0 0 19 12" id="toggle-button-menu" xmlns="http://www.w3.org/2000/svg"><path fill="#fff" d="M0 0h19v2H0zM0 5h12v2H0zM0 10h16v2H0z"/></symbol><symbol viewBox="0 0 57 57" id="up" xmlns="http://www.w3.org/2000/svg"><g stroke="#323242" stroke-width="2.3" fill="none" fill-rule="evenodd"><path fill="#FFC500" d="M29.719 2.935l.405.638c.264.414.694.694 1.177.771l1.707.27c.485.077.979-.058 1.358-.37l.582-.48a1.713 1.713 0 012.748.893l.189.73c.123.476.445.876.882 1.099l1.539.783c.437.223.949.248 1.406.069l.702-.278a1.714 1.714 0 012.338 1.7l-.046.753c-.03.49.151.968.498 1.316l1.221 1.221c.348.348.827.529 1.317.499l.753-.046a1.714 1.714 0 011.7 2.338l-.278.702a1.71 1.71 0 00.068 1.405l.784 1.54c.223.437.623.758 1.098.881l.731.189a1.713 1.713 0 01.893 2.748l-.48.583a1.708 1.708 0 00-.37 1.357l.27 1.707c.077.484.357.913.771 1.177l.637.405a1.713 1.713 0 010 2.89l-.637.405a1.72 1.72 0 00-.772 1.177l-.27 1.707c-.076.485.058.98.37 1.357l.48.583a1.712 1.712 0 01-.892 2.748l-.731.19a1.712 1.712 0 00-1.098.88l-.784 1.54a1.71 1.71 0 00-.068 1.405l.277.703a1.713 1.713 0 01-1.699 2.338l-.753-.046c-.49-.03-.97.151-1.317.498l-1.221 1.222a1.712 1.712 0 00-.498 1.316l.046.754a1.714 1.714 0 01-2.338 1.698l-.702-.277a1.712 1.712 0 00-1.406.068l-1.54.784a1.717 1.717 0 00-.881 1.098l-.189.731a1.713 1.713 0 01-2.748.893l-.582-.48a1.71 1.71 0 00-1.358-.37l-1.707.27a1.714 1.714 0 00-1.177.771l-.405.637a1.713 1.713 0 01-2.89 0l-.405-.637a1.716 1.716 0 00-1.177-.772l-1.707-.27a1.716 1.716 0 00-1.357.37l-.583.48a1.712 1.712 0 01-2.748-.892l-.189-.731a1.712 1.712 0 00-.88-1.098l-1.54-.784a1.713 1.713 0 00-1.406-.068l-.702.277a1.713 1.713 0 01-2.338-1.698l.046-.754c.03-.49-.152-.97-.499-1.316l-1.221-1.222a1.715 1.715 0 00-1.316-.498l-.754.046a1.714 1.714 0 01-1.699-2.338l.278-.703a1.718 1.718 0 00-.068-1.405l-.785-1.54a1.708 1.708 0 00-1.097-.88l-.731-.19a1.713 1.713 0 01-.893-2.748l.48-.583a1.71 1.71 0 00.37-1.357l-.27-1.707a1.713 1.713 0 00-.772-1.177l-.637-.405a1.714 1.714 0 010-2.89l.637-.405c.415-.264.695-.693.772-1.177l.27-1.707a1.712 1.712 0 00-.37-1.357l-.48-.583a1.713 1.713 0 01.893-2.748l.731-.189a1.714 1.714 0 001.097-.88l.785-1.54a1.72 1.72 0 00.068-1.406l-.278-.702a1.713 1.713 0 011.7-2.338l.753.046c.49.03.968-.151 1.316-.499l1.221-1.221c.347-.348.53-.827.5-1.316l-.047-.754a1.713 1.713 0 012.338-1.699l.702.278c.457.179.968.154 1.406-.069l1.54-.783c.436-.223.758-.623.88-1.098l.189-.731a1.713 1.713 0 012.748-.893l.583.48c.379.312.873.447 1.357.37l1.707-.27a1.715 1.715 0 001.177-.771l.405-.638a1.714 1.714 0 012.89 0z"/><path d="M18.594 28.694l9.926-9.926 9.434 9.433m-9.68 10.992V19.28"/></g></symbol><symbol viewBox="0 0 27 27" id="whatsapp" xmlns="http://www.w3.org/2000/svg"><g fill="#323242" fill-rule="nonzero"><path stroke="#323242" stroke-width=".5" d="M13.48 1C6.598 1 1 6.598 1 13.48c0 2.348.652 4.627 1.89 6.606a589.187 589.187 0 00-1.393 5.028.48.48 0 00.604.584l4.947-1.521a12.454 12.454 0 006.432 1.783c6.882 0 12.48-5.598 12.48-12.48C25.96 6.598 20.362 1 13.48 1zm0 24c-2.17 0-4.282-.606-6.11-1.752a.48.48 0 00-.396-.053l-4.32 1.33c.317-1.158.887-3.23 1.218-4.382a.48.48 0 00-.059-.394A11.481 11.481 0 011.96 13.48c0-6.352 5.168-11.52 11.52-11.52C19.832 1.96 25 7.128 25 13.48 25 19.832 19.832 25 13.48 25z"/><path d="M10.121 7.951h-.549c-.191 0-.502.072-.764.358-.263.286-1.004.977-1.004 2.382 0 1.406 1.028 2.764 1.17 2.955.144.19 1.984 3.168 4.897 4.313 2.422.951 2.915.762 3.44.714.526-.047 1.696-.69 1.935-1.358.24-.667.24-1.239.167-1.358-.071-.119-.263-.19-.55-.333-.286-.143-1.69-.846-1.954-.942-.262-.095-.453-.142-.645.144-.19.285-.754.946-.921 1.137-.167.19-.334.215-.621.072-.287-.144-1.2-.45-2.296-1.424-.852-.757-1.443-1.723-1.61-2.01-.168-.285-.018-.44.125-.582.13-.128.303-.303.446-.47.144-.167.184-.286.28-.476.096-.19.048-.358-.024-.5-.072-.144-.622-1.556-.877-2.121-.214-.476-.44-.492-.645-.5z"/></g></symbol></svg>